<?xml version="1.0" encoding="UTF-8"?>
<svg version="1.1" xmlns="http://www.w3.org/2000/svg" width="512" height="512">
<path d="M0 0 C1.18888824 -0.0071553 2.37777649 -0.01431061 3.60269165 -0.02168274 C4.9138797 -0.02437164 6.22506775 -0.02706055 7.57598877 -0.02983093 C8.96554739 -0.03609485 10.35510433 -0.04274158 11.74465942 -0.04974365 C15.52580917 -0.06716135 19.30694626 -0.07770776 23.08812618 -0.08594918 C25.45040799 -0.09109832 27.81268587 -0.09717413 30.1749649 -0.10346031 C37.56570893 -0.12251561 44.95644295 -0.13674532 52.34720683 -0.14507228 C60.87892033 -0.15484325 69.41037429 -0.18115751 77.94199634 -0.22157317 C84.53570868 -0.25173666 91.12934665 -0.26654141 97.72312665 -0.26985329 C101.66151006 -0.27220377 105.59961631 -0.28116325 109.53792572 -0.30631447 C113.24472965 -0.32960419 116.95107413 -0.33382511 120.65793228 -0.32355309 C122.66305729 -0.32282206 124.668159 -0.34190758 126.67318726 -0.36161804 C137.63302306 -0.29820765 137.63302306 -0.29820765 142.40899658 4.14717102 C146.65599286 8.85330203 147.53032917 12.07553447 147.60186768 18.32759094 C147.62596207 20.24054207 147.62596207 20.24054207 147.65054321 22.19213867 C147.66203295 23.58729889 147.6726411 24.98246661 147.68243408 26.37763977 C147.68775776 27.0820199 147.69308144 27.78640003 147.69856644 28.51212502 C147.72527649 32.24308304 147.74465506 35.97400791 147.75909424 39.70503235 C147.77241162 42.78281011 147.80022478 45.85992142 147.84112549 48.93745422 C147.89062799 52.66277811 147.91523672 56.3874995 147.92232132 60.1131382 C147.92900542 61.5272562 147.94415316 62.94136225 147.96821213 64.35529137 C148.18977543 78.1684372 148.18977543 78.1684372 143.99447632 83.62545776 C138.90298829 88.51217101 133.66308006 89.6035485 126.75762939 89.59980774 C125.3939624 89.56911194 125.3939624 89.56911194 124.00274658 89.53779602 C122.71739014 89.53175354 122.71739014 89.53175354 121.40606689 89.52558899 C118.24015538 89.50484178 115.07455185 89.4489977 111.90899658 89.39717102 C104.81399658 89.31467102 97.71899658 89.23217102 90.40899658 89.14717102 C90.40899658 103.66717102 90.40899658 118.18717102 90.40899658 133.14717102 C101.10339007 132.98985955 101.10339007 132.98985955 111.79693604 132.78681946 C121.6164066 132.66347854 129.76119829 133.58660253 138.28399658 138.95967102 C145.80411137 146.70096565 147.71564837 153.72507016 147.61676025 164.3808136 C147.61556183 165.39801483 147.6143634 166.41521606 147.61312866 167.46324158 C147.60998378 169.66813893 147.60268331 171.87303343 147.59169579 174.07790565 C147.57679273 177.58228947 147.57845837 181.08629312 147.58534241 184.59069824 C147.6041262 194.55357217 147.61088069 204.51615505 147.5635376 214.47895813 C147.53574377 220.58105709 147.54244724 226.68232794 147.57055092 232.78441429 C147.57477735 235.09535087 147.56650555 237.40634918 147.54482079 239.71718788 C147.4157312 254.07500747 148.64844445 265.34205961 155.40899658 278.14717102 C156.20475098 278.00335999 157.00050537 277.85954895 157.82037354 277.71138 C158.73649414 277.54581604 159.65261475 277.38025208 160.59649658 277.20967102 C164.68520032 276.47209401 164.68520032 276.47209401 168.75274658 275.62861633 C186.74208813 272.36804818 207.5205792 274.88134808 223.40899658 284.14717102 C225.19805908 285.56904602 225.19805908 285.56904602 226.40899658 287.14717102 C226.42962158 288.36404602 226.45024658 289.58092102 226.47149658 290.83467102 C226.85426863 295.13288216 228.75283663 296.88481499 231.97149658 299.64717102 C236.87909608 303.25776208 239.47744665 303.64984474 245.40899658 303.14717102 C249.92654064 305.16136264 252.28634198 308.24795404 254.84649658 312.33467102 C255.42572876 313.24974426 255.42572876 313.24974426 256.0166626 314.18330383 C267.77205369 333.50254445 271.20621255 358.30981988 265.90899658 380.27217102 C258.07624198 404.48751798 242.52824208 423.31932092 219.92852783 434.93623352 C207.75558999 440.52065472 195.74282573 442.64101654 182.40899658 442.14717102 C182.40899658 448.08717102 182.40899658 454.02717102 182.40899658 460.14717102 C183.72899658 460.47717102 185.04899658 460.80717102 186.40899658 461.14717102 C188.13189697 462.34199524 188.13189697 462.34199524 189.40899658 464.14717102 C190.06469822 468.49025342 189.87194793 472.8852843 189.84649658 477.27217102 C189.86647705 478.47099915 189.88645752 479.66982727 189.90704346 480.90498352 C189.90178087 490.50393936 188.07344291 498.39159248 181.27244854 505.47048247 C173.07535836 512.84602398 163.760848 512.86296064 153.315979 512.78208923 C151.68929518 512.78785704 150.06261788 512.79580257 148.43595409 512.80572546 C143.98545472 512.82653172 139.53549379 512.8163121 135.08499289 512.80079436 C130.27780669 512.78945922 125.47071165 512.80695429 120.6635437 512.82069397 C111.25401564 512.84290781 101.84468717 512.83813343 92.43515134 512.82363077 C84.78671715 512.81233124 77.13833883 512.81081072 69.48989868 512.81624985 C68.40064848 512.81701601 67.31139828 512.81778218 66.1891405 512.81857156 C63.97623514 512.82017021 61.76332979 512.82179128 59.55042446 512.82343452 C38.80805006 512.83768659 18.06578621 512.82130776 -2.67657006 512.79443268 C-20.46809018 512.77209442 -38.25944718 512.7759747 -56.05096436 512.79902649 C-76.71994938 512.82579403 -97.38883755 512.83631334 -118.05783749 512.82096517 C-120.26252682 512.81937245 -122.46721616 512.8178006 -124.67190552 512.81624985 C-126.29895919 512.81509278 -126.29895919 512.81509278 -127.95888263 512.81391234 C-135.59666606 512.80959821 -143.23438797 512.81687572 -150.87216187 512.82864761 C-160.18219264 512.84268171 -169.49201268 512.83885343 -178.80201936 512.81224389 C-183.55067049 512.79911805 -188.29897046 512.79393236 -193.04761887 512.81048965 C-197.39771607 512.82542773 -201.74713781 512.81713775 -206.09717405 512.79060189 C-207.6676954 512.78503323 -209.23827423 512.78782106 -210.80875838 512.79998083 C-220.74704907 512.87100575 -229.14856377 512.22065801 -236.72540569 505.15746367 C-244.1397552 497.40512811 -245.05445239 490.19460308 -245.1696167 479.82246399 C-245.19414917 478.59340332 -245.21868164 477.36434265 -245.24395752 476.09803772 C-245.31837061 472.02850651 -245.36861528 467.95931185 -245.41131592 463.88935852 C-245.42742883 462.47148237 -245.44356133 461.05360645 -245.45971298 459.63573074 C-245.52464922 453.70967256 -245.58078257 447.78363693 -245.61458015 441.85731316 C-245.65846072 434.22017576 -245.73052983 426.58613165 -245.88739014 418.95039368 C-247.16248694 355.54439014 -247.16248694 355.54439014 -231.43292236 326.62391663 C-228.79268872 321.64029845 -226.74483477 316.47735294 -224.68865967 311.23310852 C-224.00339956 309.56991641 -223.31411767 307.9083741 -222.62030029 306.24873352 C-221.28012298 303.02805448 -219.94140726 299.80678177 -218.60467529 296.58467102 C-217.92446257 294.94659794 -217.24412889 293.30857507 -216.56365967 291.67060852 C-216.28015152 290.98791901 -215.99664337 290.30522949 -215.70454407 289.60185242 C-215.41321091 288.90186127 -215.12187775 288.20187012 -214.82171631 287.48066711 C-214.504189 286.69056244 -214.18666168 285.90045776 -213.85951233 285.08641052 C-212.84235099 282.72956402 -211.75408353 280.47790952 -210.59336853 278.19206238 C-204.07866559 264.86821939 -203.50117011 253.07397441 -203.69647217 238.42060852 C-203.69657106 236.09277543 -203.69269467 233.76493915 -203.68507385 231.43711853 C-203.67373537 225.36748382 -203.70701772 219.29900867 -203.75299072 213.22956848 C-203.82005555 203.48398946 -203.82204838 193.73829041 -203.81630898 183.99252701 C-203.82137818 180.60835718 -203.84819333 177.22489562 -203.87815857 173.84086609 C-203.88480007 171.75986396 -203.89091632 169.67886006 -203.89642334 167.59785461 C-203.91042679 166.66888367 -203.92443024 165.73991272 -203.93885803 164.78279114 C-203.92926223 156.16981649 -201.88537956 148.79284915 -196.46990967 142.00654602 C-188.93553736 134.55049359 -181.20997781 132.95822064 -171.09100342 132.89717102 C-169.80903076 132.86623352 -169.80903076 132.86623352 -168.50115967 132.83467102 C-164.93687363 132.81242899 -162.3083478 132.80621103 -159.05975342 134.35029602 C-157.59100342 136.14717102 -157.59100342 136.14717102 -156.59100342 141.14717102 C-151.97100342 141.14717102 -147.35100342 141.14717102 -142.59100342 141.14717102 C-142.59100342 131.90717102 -142.59100342 122.66717102 -142.59100342 113.14717102 C-146.65928467 113.20517883 -150.72756592 113.26318665 -154.91912842 113.32295227 C-158.16580944 113.35511379 -161.41244537 113.38222511 -164.65919495 113.40592194 C-168.08519523 113.432312 -171.51057575 113.46756593 -174.93621826 113.52436829 C-178.8679452 113.58915329 -182.79942031 113.61336492 -186.73162842 113.63545227 C-187.9577887 113.6612587 -189.18394897 113.68706512 -190.44726562 113.71365356 C-191.58814636 113.71403122 -192.7290271 113.71440887 -193.90447998 113.71479797 C-194.90819641 113.72590103 -195.91191284 113.73700409 -196.94604492 113.7484436 C-199.59100342 113.14717102 -199.59100342 113.14717102 -201.9140625 110.85229492 C-204.17185467 107.21018237 -204.16628018 103.9609932 -204.12225342 99.80342102 C-204.12608032 98.99787781 -204.12990723 98.19233459 -204.1338501 97.36238098 C-204.1365666 95.65781912 -204.12922364 93.95321539 -204.11248779 92.24873352 C-204.09129634 89.68264098 -204.11217889 87.1194204 -204.13787842 84.55342102 C-204.1624684 70.58410641 -202.43665346 57.9016503 -192.59100342 47.14717102 C-180.1835301 35.78821658 -165.51452843 35.54493578 -149.67694092 35.65107727 C-147.77131088 35.65092191 -145.86568054 35.64942684 -143.96005249 35.64666748 C-139.98793375 35.64529127 -136.01617952 35.65771255 -132.04412842 35.68061829 C-126.9795879 35.70903929 -121.91565008 35.70624444 -116.85106468 35.69352818 C-112.92342065 35.6865402 -108.99591344 35.69439511 -105.0682869 35.7067852 C-103.20177359 35.71126671 -101.33524544 35.71166574 -99.46873093 35.7077198 C-84.65562775 35.6910525 -71.01853575 36.42399455 -59.55194092 47.03388977 C-51.69603768 55.54166583 -48.32328656 65.11558213 -48.36395264 76.66474915 C-48.36366058 77.36817444 -48.36336853 78.07159973 -48.36306763 78.79634094 C-48.3644461 81.09049907 -48.37993614 83.38432058 -48.39569092 85.67842102 C-48.39942634 87.28124311 -48.40227081 88.8840675 -48.40426636 90.4868927 C-48.41186117 94.6823113 -48.43147345 98.87758893 -48.45367432 103.07295227 C-48.47422273 107.36329746 -48.48328722 111.65366568 -48.49334717 115.94404602 C-48.51472374 124.34515923 -48.54987148 132.74613128 -48.59100342 141.14717102 C-43.31100342 140.81717102 -38.03100342 140.48717102 -32.59100342 140.14717102 C-31.93100342 138.49717102 -31.27100342 136.84717102 -30.59100342 135.14717102 C-27.32707773 132.68052821 -24.06144339 132.90491743 -20.07830811 132.92012024 C-19.43398834 132.91982819 -18.78966858 132.91953613 -18.12582397 132.91923523 C-16.0047032 132.92062408 -13.88393752 132.93616386 -11.76287842 132.95185852 C-10.288861 132.95559024 -8.8148411 132.95843646 -7.34082031 132.96043396 C-3.46756095 132.96805791 0.40554763 132.98769567 4.27874756 133.00984192 C8.92935063 133.03393089 13.58000421 133.04308724 18.23065186 133.05474854 C25.29020486 133.07412089 32.34942723 133.11245183 39.40899658 133.14717102 C39.40899658 118.62717102 39.40899658 104.10717102 39.40899658 89.14717102 C25.61766071 89.30500665 25.61766071 89.30500665 11.82696533 89.50752258 C10.08348577 89.51921742 8.33999519 89.52940736 6.59649658 89.53779602 C5.26521729 89.56849182 5.26521729 89.56849182 3.90704346 89.59980774 C-3.31631038 89.60381182 -8.72651891 87.93627436 -13.96600342 82.83467102 C-18.26401713 75.72641757 -17.89801283 68.39153081 -17.89178467 60.31123352 C-17.89606979 59.07730865 -17.90035492 57.84338379 -17.9047699 56.57206726 C-17.91049966 53.96820182 -17.91102347 51.36432038 -17.90667725 48.76045227 C-17.90351977 44.79272436 -17.92698631 40.82574424 -17.95233154 36.85810852 C-17.95460502 34.32165112 -17.95530781 31.78519173 -17.95428467 29.24873352 C-17.96349442 28.07033905 -17.97270416 26.89194458 -17.98219299 25.67784119 C-17.94117108 18.31545207 -17.66356149 10.92456981 -12.83709717 4.99092102 C-11.94184326 4.32576477 -11.94184326 4.32576477 -11.02850342 3.64717102 C-10.42908936 3.18310852 -9.82967529 2.71904602 -9.21209717 2.24092102 C-5.99006484 0.06701969 -3.87055993 0.01594259 0 0 Z " fill="#010102" transform="translate(244.59100341796875,-0.1471710205078125)"/>
<path d="M0 0 C1.90563004 -0.00015536 3.81126038 -0.00165043 5.71688843 -0.00440979 C9.68900716 -0.005786 13.6607614 0.00663528 17.6328125 0.02954102 C22.69735301 0.05796201 27.76129084 0.05516717 32.82587624 0.0424509 C36.75352026 0.03546293 40.68102748 0.04331784 44.60865402 0.05570793 C46.47516732 0.06018944 48.34169548 0.06058847 50.20820999 0.05664253 C65.02131317 0.03997523 78.65840517 0.77291728 90.125 11.3828125 C97.98090323 19.89058856 101.35365436 29.46450486 101.31298828 41.01367188 C101.31328033 41.71709717 101.31357239 42.42052246 101.31387329 43.14526367 C101.31249482 45.4394218 101.29700477 47.73324331 101.28125 50.02734375 C101.27751458 51.63016584 101.27467011 53.23299023 101.27267456 54.83581543 C101.26507975 59.03123403 101.24546747 63.22651166 101.2232666 67.421875 C101.20271819 71.71222019 101.1936537 76.00258841 101.18359375 80.29296875 C101.16221718 88.69408196 101.12706944 97.09505401 101.0859375 105.49609375 C106.6959375 105.49609375 112.3059375 105.49609375 118.0859375 105.49609375 C119.0759375 107.47609375 120.0659375 109.45609375 121.0859375 111.49609375 C123.81351445 112.85988222 125.95733077 112.61765064 129.0118866 112.61393738 C130.9066423 112.61561417 130.9066423 112.61561417 132.8396759 112.61732483 C134.24752819 112.61365972 135.65538036 112.60995034 137.06323242 112.60620117 C138.53983562 112.60595912 140.01643897 112.606236 141.49304199 112.60699463 C144.67804162 112.6081024 147.86302685 112.60666409 151.04802513 112.60362816 C156.08667893 112.6000009 161.12525738 112.60912428 166.16389465 112.62141418 C167.43894994 112.62444708 167.43894994 112.62444708 168.73976392 112.62754124 C170.47829127 112.6317101 172.21681855 112.63591286 173.95534575 112.64014876 C185.68812939 112.66830192 197.42075067 112.68843466 209.15356445 112.67114258 C217.06406974 112.65957912 224.97423766 112.66919275 232.88468248 112.70320016 C237.07078144 112.72034841 241.25627174 112.72665531 245.44237328 112.70708275 C249.38334463 112.68882435 253.32326891 112.69851224 257.26415253 112.7293396 C258.70766977 112.73569436 260.1512745 112.7318786 261.59472847 112.71694374 C273.8466511 112.59962539 273.8466511 112.59962539 278.43745422 116.41841125 C302.2559793 141.21182622 282.0859375 185.11534969 282.0859375 219.49609375 C176.4859375 219.49609375 70.8859375 219.49609375 -37.9140625 219.49609375 C-37.9140625 120.49609375 -37.9140625 120.49609375 -33.9140625 115.49609375 C-30.87205937 113.46809166 -30.24420493 113.25125598 -26.82421875 113.22265625 C-26.03982422 113.20203125 -25.25542969 113.18140625 -24.44726562 113.16015625 C-22.8041407 113.13417799 -21.16087523 113.11591067 -19.51757812 113.10546875 C-14.62062554 112.98646651 -14.62062554 112.98646651 -10.41015625 110.64453125 C-8.75086005 108.47752989 -8.75086005 108.47752989 -7.9140625 105.49609375 C-2.9640625 105.49609375 1.9859375 105.49609375 7.0859375 105.49609375 C7.0859375 96.25609375 7.0859375 87.01609375 7.0859375 77.49609375 C3.01765625 77.55410156 -1.050625 77.61210938 -5.2421875 77.671875 C-8.48886852 77.70403652 -11.73550445 77.73114784 -14.98225403 77.75484467 C-18.40825431 77.78123473 -21.83363483 77.81648866 -25.25927734 77.87329102 C-29.19100428 77.93807602 -33.12247939 77.96228765 -37.0546875 77.984375 C-38.28084778 78.01018143 -39.50700806 78.03598785 -40.77032471 78.06257629 C-42.48164581 78.06314278 -42.48164581 78.06314278 -44.22753906 78.0637207 C-45.23125549 78.07482376 -46.23497192 78.08592682 -47.269104 78.09736633 C-49.9140625 77.49609375 -49.9140625 77.49609375 -52.23712158 75.20121765 C-54.49491375 71.5591051 -54.48933926 68.30991593 -54.4453125 64.15234375 C-54.4491394 63.34680054 -54.45296631 62.54125732 -54.45690918 61.71130371 C-54.45962568 60.00674185 -54.45228272 58.30213812 -54.43554688 56.59765625 C-54.41435542 54.03156371 -54.43523797 51.46834312 -54.4609375 48.90234375 C-54.48552748 34.93302914 -52.75971254 22.25057303 -42.9140625 11.49609375 C-30.50658919 0.13713931 -15.83758751 -0.10614149 0 0 Z " fill="#398AD4" transform="translate(94.9140625,35.50390625)"/>
<path d="M0 0 C107.58 0 215.16 0 326 0 C327.98 4.95 329.96 9.9 332 15 C329.88163401 19.23673198 328.6795958 20.18534211 324.875 22.75 C308.75346498 34.2114038 298.2953313 51.50669507 293.54296875 70.66015625 C292.7183188 75.73264338 292.42677761 80.87866872 292 86 C184.09 86 76.18 86 -35 86 C-31.62504694 75.87514083 -31.62504694 75.87514083 -30.10571289 72.21582031 C-29.59297066 70.9743927 -29.59297066 70.9743927 -29.06987 69.70788574 C-28.70778946 68.8400647 -28.34570892 67.97224365 -27.97265625 67.078125 C-27.58717117 66.14713989 -27.2016861 65.21615479 -26.80451965 64.25695801 C-25.56009249 61.25342114 -24.31136176 58.25169533 -23.0625 55.25 C-22.20495463 53.18273591 -21.34769702 51.11535243 -20.49072266 49.04785156 C-18.78874703 44.94274536 -17.0852104 40.83829272 -15.38037109 36.734375 C-13.28540281 31.68994359 -11.19717562 26.64276485 -9.11328125 21.59375 C-8.82922928 20.90577332 -8.54517731 20.21779663 -8.2525177 19.50897217 C-6.96498678 16.39055128 -5.67776062 13.27200517 -4.39086914 10.15332031 C-3.9499292 9.08694336 -3.50898926 8.02056641 -3.0546875 6.921875 C-2.67812012 6.01018555 -2.30155273 5.09849609 -1.91357422 4.15917969 C-1.31890725 2.7537188 -0.68248796 1.36497593 0 0 Z " fill="#7FB3FA" transform="translate(54,270)"/>
<path d="M0 0 C1.90563004 -0.00015536 3.81126038 -0.00165043 5.71688843 -0.00440979 C9.68900716 -0.005786 13.6607614 0.00663528 17.6328125 0.02954102 C22.69735301 0.05796201 27.76129084 0.05516717 32.82587624 0.0424509 C36.75352026 0.03546293 40.68102748 0.04331784 44.60865402 0.05570793 C46.47516732 0.06018944 48.34169548 0.06058847 50.20820999 0.05664253 C65.02131317 0.03997523 78.65840517 0.77291728 90.125 11.3828125 C100.17409126 22.26576452 101.39033499 33.76113726 101.31298828 48.08203125 C101.3124234 49.55117281 101.31274224 51.02031494 101.31387329 52.48945618 C101.31444479 56.45791422 101.30272351 60.42625022 101.28872538 64.39468002 C101.27618403 68.54932784 101.27504484 72.70397875 101.27267456 76.85864258 C101.26646977 84.71720614 101.25007255 92.57571376 101.22997558 100.43425274 C101.20758537 109.38468331 101.19661531 118.33511661 101.18658471 127.28556824 C101.1657054 145.68910841 101.13054896 164.09259657 101.0859375 182.49609375 C101.70082031 182.4801416 102.31570312 182.46418945 102.94921875 182.44775391 C103.75746094 182.43534668 104.56570312 182.42293945 105.3984375 182.41015625 C106.59919922 182.38622803 106.59919922 182.38622803 107.82421875 182.36181641 C110.896484 182.54421557 112.72021402 183.57394342 115.0859375 185.49609375 C116.50635571 188.33693016 116.40046022 190.35086653 116.0859375 193.49609375 C114.75634766 195.6580658 114.75634766 195.6580658 112.0859375 197.49609375 C108.41276359 198.11290928 104.76408361 198.0523395 101.046875 198.02954102 C99.92130188 198.03815659 98.79572876 198.04677216 97.63604736 198.0556488 C93.91077768 198.07837507 90.18625613 198.07155753 86.4609375 198.0625 C83.87548599 198.06773239 81.29003641 198.07400744 78.70458984 198.08128357 C73.28407814 198.0917 67.86385306 198.0874364 62.44335938 198.07250977 C56.17878341 198.05558179 49.9149039 198.07143191 43.65040398 198.10373265 C37.62111419 198.13364196 31.59217924 198.13561504 25.56280518 198.12623405 C22.99830215 198.12541244 20.43378482 198.13231564 17.86932373 198.14700508 C14.28736221 198.16437712 10.70690047 198.14996752 7.125 198.12719727 C6.06097961 198.13888947 4.99695923 198.15058167 3.9006958 198.16262817 C-3.25472665 198.0698344 -3.25472665 198.0698344 -6.60791016 195.15196228 C-8.28794467 191.73585939 -8.08428056 190.08476248 -6.9140625 186.49609375 C-5.7421875 184.828125 -5.7421875 184.828125 -3.9140625 183.49609375 C-0.99609375 183.203125 -0.99609375 183.203125 2.2734375 183.30859375 C3.36011719 183.33566406 4.44679687 183.36273438 5.56640625 183.390625 C6.39785156 183.42542969 7.22929688 183.46023437 8.0859375 183.49609375 C8.07340942 182.58108093 8.06088135 181.66606812 8.04797363 180.72332764 C7.92834836 171.96125089 7.81059772 163.19915118 7.69478607 154.43702316 C7.63523129 149.93586612 7.57503224 145.43471991 7.51318359 140.93359375 C7.22310455 119.78634114 6.99870055 98.645685 7.0859375 77.49609375 C6.3807196 77.50719681 5.67550171 77.51829987 4.94891357 77.52973938 C-1.7014147 77.62997961 -8.3515318 77.70607729 -15.00244522 77.75515461 C-18.42171743 77.78123466 -21.84036478 77.81660025 -25.25927734 77.87329102 C-29.19100428 77.93807602 -33.12247939 77.96228765 -37.0546875 77.984375 C-38.28084778 78.01018143 -39.50700806 78.03598785 -40.77032471 78.06257629 C-42.48164581 78.06314278 -42.48164581 78.06314278 -44.22753906 78.0637207 C-45.23125549 78.07482376 -46.23497192 78.08592682 -47.269104 78.09736633 C-49.9140625 77.49609375 -49.9140625 77.49609375 -52.23712158 75.20121765 C-54.49491375 71.5591051 -54.48933926 68.30991593 -54.4453125 64.15234375 C-54.4491394 63.34680054 -54.45296631 62.54125732 -54.45690918 61.71130371 C-54.45962568 60.00674185 -54.45228272 58.30213812 -54.43554688 56.59765625 C-54.41435542 54.03156371 -54.43523797 51.46834312 -54.4609375 48.90234375 C-54.48552748 34.93302914 -52.75971254 22.25057303 -42.9140625 11.49609375 C-30.50658919 0.13713931 -15.83758751 -0.10614149 0 0 Z " fill="#010101" transform="translate(94.9140625,35.50390625)"/>
<path d="M0 0 C1.61536513 -0.01223706 1.61536513 -0.01223706 3.2633639 -0.02472132 C4.46118807 -0.02862968 5.65901224 -0.03253804 6.89313412 -0.03656483 C8.78480081 -0.04842995 8.78480081 -0.04842995 10.714683 -0.06053478 C14.23145291 -0.08228649 17.74822605 -0.09755811 21.26503384 -0.11167514 C24.27759494 -0.12455349 27.29013142 -0.1411132 30.3026743 -0.1576524 C58.86230892 -0.31382229 87.4225128 -0.38868484 115.98249054 -0.44927216 C119.70172373 -0.45730121 123.42095659 -0.46546946 127.14018917 -0.47377491 C128.06461577 -0.47583251 128.98904236 -0.47789012 129.94148188 -0.48001007 C144.91270756 -0.51442128 159.88350479 -0.58706334 174.8545034 -0.67468252 C190.21821186 -0.76385661 205.58169816 -0.81519962 220.94566005 -0.83057433 C229.57475081 -0.84023412 238.20307041 -0.86701452 246.8319025 -0.93688488 C254.18216492 -0.99637653 261.53155383 -1.02208639 268.88205124 -1.00354602 C272.63254724 -0.9951548 276.3811591 -1.00295354 280.13135052 -1.05453205 C284.20010483 -1.11005458 288.26478363 -1.08788202 292.33380795 -1.05829334 C293.51601707 -1.08673964 294.69822619 -1.11518593 295.91625983 -1.14449424 C300.70653526 -1.05470783 303.80218196 -0.97628862 307.45658386 2.30426538 C309.56410789 4.95312309 309.56410789 4.95312309 311.30358547 7.5787484 C314.77633253 12.67056215 319.72355281 16.91851329 325.16118526 19.78940868 C328.05791378 22.15098095 328.05791378 22.15098095 328.75493526 25.61851025 C328.76071568 26.98762848 328.73355006 28.35715611 328.67900753 29.7251997 C328.67288952 30.44963772 328.66677151 31.17407574 328.6604681 31.92046642 C328.63357617 34.22789991 328.56443374 36.53196378 328.49541378 38.83848095 C328.47388592 40.40159777 328.45497616 41.96475299 328.43877316 43.52793407 C328.27002404 54.93887069 328.27002404 54.93887069 327.05791378 56.15098095 C325.29174339 56.24929514 323.52159681 56.27653707 321.75269222 56.27682209 C320.59483054 56.27942984 319.43696886 56.28203758 318.24402046 56.28472435 C316.95582059 56.28249363 315.66762072 56.28026291 314.34038448 56.27796459 C312.97079998 56.27911546 311.60121578 56.28070275 310.23163223 56.28269184 C306.45049139 56.28688991 302.66937558 56.28479233 298.88823462 56.28170562 C294.81730029 56.27945367 290.74637043 56.2829301 286.67543697 56.28568554 C278.69351683 56.29014444 270.71160606 56.28916624 262.72968554 56.2862729 C256.24563917 56.28401933 249.76159544 56.28370614 243.27754879 56.28479671 C241.89605521 56.28502656 241.89605521 56.28502656 240.48665267 56.28526106 C238.61597594 56.28558077 236.7452992 56.28590498 234.87462246 56.28623365 C217.31157017 56.28908879 199.74852309 56.28580088 182.18547165 56.28043328 C167.0983534 56.27596521 152.01124283 56.27674114 136.92412472 56.28135204 C119.42617287 56.2866972 101.9282256 56.2888141 84.43027306 56.28573978 C82.56627496 56.28542121 80.70227687 56.28510684 78.83827877 56.28479671 C77.92102986 56.28464244 77.00378095 56.28448816 76.05873662 56.28432921 C69.57853162 56.28346388 63.09832951 56.28492728 56.61812496 56.28727627 C48.72659003 56.29007382 40.83506506 56.28933696 32.94353127 56.28399552 C28.91311453 56.2813579 24.88271442 56.28035447 20.85229778 56.28364468 C17.16869849 56.2866064 13.48513135 56.28501693 9.80153501 56.27966712 C7.82495902 56.2780062 5.84838082 56.2813016 3.8718071 56.28472435 C2.71394542 56.28211661 1.55608374 56.27950886 0.36313534 56.27682209 C-1.14828777 56.27657856 -1.14828777 56.27657856 -2.69024467 56.27633011 C-4.94208622 56.15098095 -4.94208622 56.15098095 -5.94208622 55.15098095 C-6.04083792 53.4684286 -6.07007526 51.78174067 -6.07148075 50.09629345 C-6.07463291 49.01847607 -6.07778507 47.94065868 -6.08103275 46.83018017 C-6.07900852 45.65729443 -6.07698429 44.48440868 -6.07489872 43.27598095 C-6.07585545 42.08118114 -6.07681217 40.88638134 -6.07779789 39.65537548 C-6.07847993 37.12331114 -6.076624 34.59124507 -6.07245731 32.05918407 C-6.06710943 28.16786835 -6.07240154 24.27666806 -6.07880497 20.38535595 C-6.07814419 17.93223069 -6.07686304 15.47910551 -6.07489872 13.02598095 C-6.07692295 11.85309521 -6.07894718 10.68020947 -6.08103275 9.47178173 C-6.07788059 8.39396435 -6.07472843 7.31614697 -6.07148075 6.20566845 C-6.07068516 5.25160107 -6.06988956 4.29753368 -6.06906986 3.31455517 C-5.8281987 -0.78945877 -3.58387264 0.01928123 0 0 Z " fill="#EBE9EB" transform="translate(55.9420862197876,405.84901905059814)"/>
<path d="M0 0 C109.56 0 219.12 0 332 0 C333.66666667 6.66666667 335.33333333 13.33333333 337 20 C336.04284843 20.00089563 336.04284843 20.00089563 335.06636047 20.00180936 C297.24661917 20.03770392 259.42696181 20.09434382 221.60729474 20.17792095 C217.06615906 20.1879384 212.52502301 20.19778253 207.98388672 20.20751953 C207.07982893 20.2094609 206.17577113 20.21140228 205.24431765 20.21340248 C190.60627668 20.24442289 175.96825139 20.26140325 161.33018374 20.27319422 C146.30997555 20.28560556 131.28984963 20.31310659 116.26969337 20.35461307 C107.00156601 20.37974894 97.73357509 20.39311721 88.46541315 20.39142957 C82.10973248 20.39139982 75.75419079 20.40602838 69.39856428 20.43216428 C65.73175381 20.44681084 62.06522836 20.45501281 58.39839363 20.44580269 C54.42044085 20.43598028 50.44298807 20.45703447 46.46508789 20.48101807 C45.30943329 20.47325765 44.15377869 20.46549723 42.96310425 20.45750165 C35.48943392 20.53735579 29.9043229 21.49637291 24.14834595 26.66162109 C20.10781713 33.00187244 20.27625784 39.27769123 20.3359375 46.625 C20.33115387 47.92646973 20.32637024 49.22793945 20.32144165 50.56884766 C20.31410628 53.31247935 20.32466514 56.05529231 20.34814453 58.79882812 C20.37663309 62.29600201 20.36021069 65.79125694 20.33028221 69.2883606 C20.30775412 72.65072293 20.32357874 76.01258335 20.3359375 79.375 C20.32075577 81.24406006 20.32075577 81.24406006 20.30526733 83.15087891 C20.38868879 89.36916203 20.78863569 94.08021792 24.2460022 99.33837891 C31.06798158 105.80106935 37.5644629 105.57053007 46.58177185 105.50793457 C47.97217606 105.5125466 49.36257538 105.51890156 50.75296456 105.52684355 C54.5641679 105.54351896 58.37496985 105.53529883 62.18617451 105.52289867 C66.30010815 105.51384302 70.4139731 105.52782051 74.52789307 105.53881836 C82.58357494 105.55660316 90.63910771 105.55276365 98.69479542 105.5411678 C105.24253233 105.53213297 111.79022747 105.53090969 118.33796883 105.53526306 C119.73602661 105.53618246 119.73602661 105.53618246 121.16232799 105.53712043 C123.05578042 105.53839934 124.94923283 105.53969619 126.84268523 105.5410108 C144.59724026 105.55241664 162.35171268 105.53930314 180.10625417 105.51780933 C195.33723492 105.49994129 210.56809372 105.50304003 225.79907227 105.52148438 C243.48869477 105.54289607 261.17824485 105.55131491 278.8678785 105.53903532 C280.75465746 105.53776113 282.64143643 105.53650365 284.52821541 105.53526306 C285.45652996 105.53464596 286.38484451 105.53402886 287.3412898 105.53339306 C293.87990769 105.52994084 300.41847961 105.53576581 306.95709038 105.54518127 C314.92738578 105.55640608 322.89752363 105.55335121 330.867801 105.5320583 C334.9336389 105.52155389 338.99921423 105.51741551 343.06505013 105.53065491 C346.7890408 105.54259764 350.51252618 105.53598578 354.23647118 105.5147447 C356.21752956 105.50817888 358.19862316 105.52119805 360.17964453 105.53497362 C367.23688184 105.47287916 372.06299112 104.94697936 378 101 C381.76902641 96.16231347 383.10225098 91.26522239 383.31640625 85.23828125 C383.35830078 84.12001953 383.40019531 83.00175781 383.44335938 81.84960938 C383.48267578 80.68236328 383.52199219 79.51511719 383.5625 78.3125 C383.60568359 77.13365234 383.64886719 75.95480469 383.69335938 74.74023438 C383.79951176 71.82694117 383.90156242 68.91356243 384 66 C385.58357459 66.31127516 387.16684993 66.62407289 388.75 66.9375 C389.63171875 67.11152344 390.5134375 67.28554688 391.421875 67.46484375 C392.9981151 67.79203298 394.56933504 68.14682404 396.12817383 68.54882812 C400.05499798 69.49532233 404.17893888 69.468321 408.19921875 69.71875 C411 70 411 70 412 71 C412.08631874 72.34267413 412.10706473 73.68974322 412.09765625 75.03515625 C412.09443359 75.84404297 412.09121094 76.65292969 412.08789062 77.48632812 C412.07951172 78.33646484 412.07113281 79.18660156 412.0625 80.0625 C412.05798828 80.91650391 412.05347656 81.77050781 412.04882812 82.65039062 C412.03700373 84.76695663 412.01906769 86.88348685 412 89 C411.030625 89.474375 410.06125 89.94875 409.0625 90.4375 C406.19522563 91.70193947 406.19522563 91.70193947 405 93 C404.8909532 94.6250038 404.84417701 96.25427628 404.82421875 97.8828125 C404.80037109 98.88570313 404.77652344 99.88859375 404.75195312 100.921875 C404.70945993 103.03365787 404.67795485 105.1456945 404.65820312 107.2578125 C404.48270196 113.65748284 404.03000486 117.91017811 400 123 C395.6230081 125.66698612 392.35772449 126.37581482 387.26578522 126.38031673 C386.61063586 126.38497665 385.95548651 126.38963657 385.28048414 126.3944377 C383.08770378 126.40637765 380.8955442 126.39699663 378.70275879 126.38768005 C377.11380464 126.39185341 375.52485347 126.39733094 373.93590784 126.40399987 C369.57138235 126.41847275 365.2070454 126.41420402 360.84250951 126.40683305 C356.13487165 126.40210829 351.42727498 126.41460503 346.71965027 126.42485046 C337.49812172 126.44205684 328.27666126 126.44287474 319.05512083 126.43763756 C311.5615052 126.43359839 304.06790971 126.4350364 296.57429504 126.44038582 C295.50832624 126.44113424 294.44235744 126.44188266 293.34408656 126.44265376 C291.17868514 126.44418522 289.01328373 126.44572356 286.84788233 126.44726873 C266.53631096 126.46100019 246.22477809 126.45555133 225.91320759 126.44408352 C207.32310733 126.43414835 188.73310656 126.44709559 170.14302164 126.47101771 C151.06140295 126.49538767 131.97983064 126.50502189 112.8981967 126.49836498 C102.18257472 126.49486836 91.4670293 126.49713417 80.75141907 126.51461601 C71.6304215 126.52931162 62.5095544 126.53000798 53.38855946 126.5125451 C48.7336302 126.50401131 44.07893427 126.50194345 39.42401695 126.51719666 C35.1641155 126.5309829 30.90464862 126.52635926 26.64477271 126.50695742 C25.10246111 126.50317841 23.5601152 126.50617381 22.01783401 126.51656907 C19.92276866 126.52968783 17.82921463 126.51820414 15.73421478 126.50057125 C14.57020692 126.50046391 13.40619906 126.50035658 12.20691824 126.50024599 C8.1760493 125.87147223 6.10564239 124.63092171 3 122 C-15.19218391 85.61563217 0 40.67895989 0 0 Z " fill="#398BD5" transform="translate(15,371)"/>
<path d="M0 0 C5.24417809 1.90782823 9.25268104 0.88422786 14.1796875 -1.20703125 C15.85779054 0.02757313 17.52190404 1.28121134 19.1796875 2.54296875 C20.1078125 3.2390625 21.0359375 3.93515625 21.9921875 4.65234375 C22.7140625 5.35875 23.4359375 6.06515625 24.1796875 6.79296875 C24.1796875 10.79296875 24.1796875 10.79296875 23.7421875 14.41796875 C23.72365202 19.43181628 26.37755815 22.29595921 29.30078125 26.1640625 C39.06302178 39.82308095 41.50058855 57.82699742 38.78857422 74.14648438 C34.63450197 93.35750917 24.13211174 109.0201442 7.9296875 120.11328125 C-3.84569546 127.30563164 -15.83155887 130.37429323 -29.5703125 130.29296875 C-30.71266357 130.28652344 -31.85501465 130.28007812 -33.03198242 130.2734375 C-50.39446388 129.89891154 -65.07341751 122.8811125 -77.76171875 110.984375 C-93.30916536 94.43386732 -97.46796453 76.80903574 -97.16015625 54.83984375 C-96.52796822 37.9360278 -87.45360879 22.68375191 -75.39746094 11.18164062 C-54.00952164 -7.6503406 -25.7979066 -11.03812069 0 0 Z " fill="#FDC068" transform="translate(457.8203125,296.20703125)"/>
<path d="M0 0 C7.36463638 -0.15289303 14.72885933 -0.25752618 22.09472656 -0.32958984 C24.59716079 -0.35965008 27.09949065 -0.40051022 29.6015625 -0.45263672 C33.21120031 -0.52592156 36.81943807 -0.55956613 40.4296875 -0.5859375 C41.53738495 -0.61690521 42.6450824 -0.64787292 43.78634644 -0.67977905 C51.58585495 -0.68311252 56.87854904 1.09424341 63 6 C68.21499774 11.64400025 70.25359544 17.63228693 70.24050903 25.34017944 C70.24325836 26.59372223 70.24600769 27.84726501 70.24884033 29.13879395 C70.24176347 30.51489355 70.23449388 31.89099217 70.22705078 33.26708984 C70.22648622 34.72608431 70.22680411 36.18507935 70.22793579 37.64407349 C70.22850855 41.59405552 70.21676667 45.54391557 70.20278788 49.4938693 C70.19026774 53.62584022 70.189109 57.75781407 70.18673706 61.88980103 C70.18052606 69.7094737 70.16412039 77.5290903 70.14403808 85.34873831 C70.12166725 94.25317415 70.11068267 103.1576127 70.10064721 112.06206965 C70.07975382 130.37475132 70.04308234 148.68735616 70 167 C49.21 167 28.42 167 7 167 C6.9906543 162.4833667 6.98130859 157.9667334 6.97167969 153.31323242 C6.9378875 138.37742823 6.88252588 123.44176123 6.81609726 108.50606823 C6.77635319 99.45204066 6.74393722 90.39809943 6.72900391 81.34399414 C6.71596332 73.44888014 6.68893747 65.55395646 6.64538693 57.65894967 C6.62282604 53.48178212 6.60708608 49.30484885 6.60811615 45.12761497 C6.60886596 41.18846058 6.59078773 37.24982301 6.55883217 33.31080246 C6.55037739 31.87220813 6.5485529 30.43355553 6.55419731 28.99494743 C6.58426003 20.14811228 5.59986943 13.09386636 2 5 C1.32874146 3.33517743 0.66078009 1.66900926 0 0 Z " fill="#E8E6E8" transform="translate(111,52)"/>
<path d="M0 0 C1.58357459 0.31127516 3.16684993 0.62407289 4.75 0.9375 C5.63171875 1.11152344 6.5134375 1.28554688 7.421875 1.46484375 C8.9981151 1.79203298 10.56933504 2.14682404 12.12817383 2.54882812 C16.05499798 3.49532233 20.17893888 3.468321 24.19921875 3.71875 C27 4 27 4 28 5 C28.08631874 6.34267413 28.10706473 7.68974322 28.09765625 9.03515625 C28.09443359 9.84404297 28.09121094 10.65292969 28.08789062 11.48632812 C28.07951172 12.33646484 28.07113281 13.18660156 28.0625 14.0625 C28.05798828 14.91650391 28.05347656 15.77050781 28.04882812 16.65039062 C28.03700373 18.76695663 28.01906769 20.88348685 28 23 C27.030625 23.474375 26.06125 23.94875 25.0625 24.4375 C22.19522563 25.70193947 22.19522563 25.70193947 21 27 C20.8909532 28.6250038 20.84417701 30.25427628 20.82421875 31.8828125 C20.80037109 32.88570313 20.77652344 33.88859375 20.75195312 34.921875 C20.70945993 37.03365787 20.67795485 39.1456945 20.65820312 41.2578125 C20.48270196 47.65748284 20.03000486 51.91017811 16 57 C11.69050977 59.61325286 8.48525096 60.37572668 3.47604847 60.38031673 C2.17361252 60.38875668 0.87117656 60.39719662 -0.47072715 60.40589231 C-1.90913072 60.40009756 -3.34753316 60.39401655 -4.78593445 60.38768005 C-6.31927961 60.39185364 -7.85262168 60.3973313 -9.38595802 60.40399987 C-13.59665551 60.41846929 -17.80715751 60.41420515 -22.01786578 60.40683305 C-26.55980119 60.40210756 -31.10169393 60.41460554 -35.64361572 60.42485046 C-44.53928143 60.44205415 -53.43487654 60.44287547 -62.33055457 60.43763756 C-69.55770115 60.43359866 -76.78482685 60.43503607 -84.01197243 60.44038582 C-85.5539423 60.44150845 -85.5539423 60.44150845 -87.12706307 60.44265376 C-89.21524368 60.4441852 -91.30342428 60.44572355 -93.39160488 60.44726873 C-112.9763009 60.46099868 -132.56095698 60.45555191 -152.14565209 60.44408352 C-170.07819473 60.43414374 -188.01063429 60.4471038 -205.94316103 60.47101771 C-224.34562817 60.49537401 -242.74804722 60.50502557 -261.15053016 60.49836498 C-271.48655528 60.49486592 -281.82250105 60.49715038 -292.15851402 60.51461601 C-300.95424457 60.52929439 -309.74983983 60.53003052 -318.54556759 60.5125451 C-323.0360816 60.50399784 -327.52635349 60.5019759 -332.01685524 60.51719666 C-336.12302077 60.53094295 -340.22873447 60.52641189 -344.33487318 60.50695742 C-345.82464177 60.50316602 -347.3144457 60.50620871 -348.80418309 60.51656907 C-350.82061096 60.52960129 -352.83715985 60.51585741 -354.85357189 60.50057125 C-355.97619024 60.50046391 -357.09880858 60.50035658 -358.25544566 60.50024599 C-361 60 -361 60 -362.84156448 58.08730561 C-365.01454928 54.17195316 -365.12125074 50.79513852 -365.09765625 46.359375 C-365.09443359 45.28945313 -365.09121094 44.21953125 -365.08789062 43.1171875 C-365.07951172 42.00601563 -365.07113281 40.89484375 -365.0625 39.75 C-365.05798828 38.62335938 -365.05347656 37.49671875 -365.04882812 36.3359375 C-365.03705397 33.55723783 -365.0206084 30.77864591 -365 28 C-364.34 27.67 -363.68 27.34 -363 27 C-362.72027344 27.53109375 -362.44054687 28.0621875 -362.15234375 28.609375 C-361.75144531 29.31578125 -361.35054688 30.0221875 -360.9375 30.75 C-360.55464844 31.44609375 -360.17179687 32.1421875 -359.77734375 32.859375 C-356.52809229 36.77275918 -353.15421839 38.72015801 -348.15160096 39.37001896 C-344.56829836 39.51687515 -341.00451838 39.53282954 -337.41822815 39.50793457 C-336.02782394 39.5125466 -334.63742462 39.51890156 -333.24703544 39.52684355 C-329.4358321 39.54351896 -325.62503015 39.53529883 -321.81382549 39.52289867 C-317.69989185 39.51384302 -313.5860269 39.52782051 -309.47210693 39.53881836 C-301.41642506 39.55660316 -293.36089229 39.55276365 -285.30520458 39.5411678 C-278.75746767 39.53213297 -272.20977253 39.53090969 -265.66203117 39.53526306 C-264.26397339 39.53618246 -264.26397339 39.53618246 -262.83767201 39.53712043 C-260.94421958 39.53839934 -259.05076717 39.53969619 -257.15731477 39.5410108 C-239.40275974 39.55241664 -221.64828732 39.53930314 -203.89374583 39.51780933 C-188.66276508 39.49994129 -173.43190628 39.50304003 -158.20092773 39.52148438 C-140.51130523 39.54289607 -122.82175515 39.55131491 -105.1321215 39.53903532 C-103.24534254 39.53776113 -101.35856357 39.53650365 -99.47178459 39.53526306 C-98.54347004 39.53464596 -97.61515549 39.53402886 -96.6587102 39.53339306 C-90.12009231 39.52994084 -83.58152039 39.53576581 -77.04290962 39.54518127 C-69.07261422 39.55640608 -61.10247637 39.55335121 -53.132199 39.5320583 C-49.0663611 39.52155389 -45.00078577 39.51741551 -40.93494987 39.53065491 C-37.2109592 39.54259764 -33.48747382 39.53598578 -29.76352882 39.5147447 C-27.78247044 39.50817888 -25.80137684 39.52119805 -23.82035547 39.53497362 C-16.76311816 39.47287916 -11.93700888 38.94697936 -6 35 C-2.23097359 30.16231347 -0.89774902 25.26522239 -0.68359375 19.23828125 C-0.64169922 18.12001953 -0.59980469 17.00175781 -0.55664062 15.84960938 C-0.49766602 14.09874023 -0.49766602 14.09874023 -0.4375 12.3125 C-0.39431641 11.13365234 -0.35113281 9.95480469 -0.30664062 8.74023438 C-0.20048824 5.82694117 -0.09843758 2.91356243 0 0 Z " fill="#398BD5" transform="translate(399,437)"/>
<path d="M0 0 C1.11059784 -0.00281982 2.22119568 -0.00563965 3.365448 -0.00854492 C5.20914474 -0.00550858 5.20914474 -0.00550858 7.09008789 -0.00241089 C8.37609894 -0.00416321 9.66210999 -0.00591553 10.98709106 -0.00772095 C14.52418578 -0.01229489 18.06125146 -0.01050589 21.59834671 -0.00734186 C25.2921278 -0.00481806 28.98590632 -0.00715586 32.6796875 -0.00872803 C38.88387501 -0.01054966 45.08805063 -0.00814357 51.29223633 -0.00338745 C58.47507778 0.00205516 65.65789086 0.0002925 72.84073162 -0.00521386 C78.99698219 -0.00974516 85.1532242 -0.01039545 91.3094759 -0.00777519 C94.99106118 -0.00621251 98.6726331 -0.0060184 102.35421753 -0.00931168 C106.45629571 -0.01272448 110.55832461 -0.00800038 114.66040039 -0.00241089 C115.88953156 -0.00443512 117.11866272 -0.00645935 118.38504028 -0.00854492 C120.05093704 -0.00431519 120.05093704 -0.00431519 121.75048828 0 C123.20727745 0.00056554 123.20727745 0.00056554 124.6934967 0.0011425 C126.87524414 0.12698364 126.87524414 0.12698364 127.87524414 1.12698364 C127.97934847 2.86534655 128.01377941 4.60793141 128.02050781 6.34939575 C128.02688766 7.46402695 128.03326752 8.57865814 128.0398407 9.72706604 C128.04150993 11.54731041 128.04150993 11.54731041 128.04321289 13.40432739 C128.04654129 14.64114761 128.04986969 15.87796783 128.05329895 17.15226746 C128.05837344 19.77428819 128.06070712 22.39631542 128.06054688 25.01834106 C128.06046543 27.71404706 128.06743071 30.40958383 128.08105469 33.10525513 C128.0992976 36.97583263 128.10428 40.84621131 128.10571289 44.71682739 C128.11289841 45.92829941 128.12008392 47.13977142 128.12748718 48.38795471 C128.12441055 49.50573807 128.12133392 50.62352142 128.11816406 51.775177 C128.11958908 52.76255356 128.1210141 53.74993011 128.1224823 54.76722717 C127.87524414 57.12698364 127.87524414 57.12698364 125.87524414 59.12698364 C123.58606625 59.37587261 123.58606625 59.37587261 120.66819763 59.3742218 C119.56463928 59.37841629 118.46108093 59.38261078 117.32408142 59.38693237 C116.10789627 59.38131287 114.89171112 59.37569336 113.63867188 59.36990356 C112.36226837 59.37180191 111.08586487 59.37370026 109.77078247 59.37565613 C106.26469982 59.38051185 102.75874404 59.37284016 99.25267673 59.36270308 C95.58960022 59.35393595 91.92652785 59.35567976 88.26344299 59.35606384 C82.11229319 59.35512669 75.96119265 59.34643529 69.81005859 59.33279419 C62.68910941 59.31706115 55.56821418 59.31179629 48.44724888 59.31252974 C41.60752068 59.31313918 34.76781013 59.30804187 27.92808723 59.29973793 C25.01222661 59.29619908 22.09637223 59.29437383 19.18050957 59.29384422 C15.11445418 59.29265713 11.0484633 59.28296103 6.98242188 59.27224731 C5.1551078 59.27292709 5.1551078 59.27292709 3.2908783 59.27362061 C1.63977051 59.26722313 1.63977051 59.26722313 -0.04469299 59.26069641 C-1.48847242 59.25818264 -1.48847242 59.25818264 -2.96141911 59.2556181 C-5.12475586 59.12698364 -5.12475586 59.12698364 -6.12475586 58.12698364 C-6.22369364 56.35252355 -6.25274678 54.57412113 -6.25415039 52.79690552 C-6.25730255 51.65902588 -6.26045471 50.52114624 -6.26370239 49.3487854 C-6.26167816 48.11027832 -6.25965393 46.87177124 -6.25756836 45.59573364 C-6.25852509 44.3343457 -6.25948181 43.07295776 -6.26046753 41.77334595 C-6.26114961 39.10001226 -6.25979115 36.42676928 -6.25512695 33.75344849 C-6.24942966 30.31991674 -6.25270887 26.88646314 -6.25869942 23.45293427 C-6.26317348 20.18803121 -6.26004469 16.92313771 -6.25756836 13.65823364 C-6.25959259 12.41972656 -6.26161682 11.18121948 -6.26370239 9.90518188 C-6.26055023 8.76730225 -6.25739807 7.62942261 -6.25415039 6.45706177 C-6.2533548 5.44969971 -6.2525592 4.44233765 -6.2517395 3.40444946 C-6.01348982 -0.86858524 -3.74333474 0.0014532 0 0 Z " fill="#E3636D" transform="translate(249.124755859375,14.873016357421875)"/>
<path d="M0 0 C0.85218109 -0.00997513 1.70436218 -0.01995026 2.58236694 -0.03022766 C3.50919281 -0.03089233 4.43601868 -0.03155701 5.39093018 -0.03224182 C6.37352814 -0.04056534 7.3561261 -0.04888885 8.36849976 -0.0574646 C11.6198319 -0.08157718 14.87096338 -0.09033898 18.12237549 -0.09693909 C20.38435934 -0.1059055 22.64634257 -0.11502734 24.9083252 -0.1242981 C29.65286704 -0.1407948 34.39733826 -0.14848928 39.14190674 -0.15138245 C45.2126402 -0.15676232 51.28270703 -0.1944239 57.35325241 -0.24012661 C62.02708337 -0.26991609 66.7007543 -0.27710645 71.37467194 -0.2781086 C73.61212462 -0.28230825 75.84957789 -0.29473219 78.08693695 -0.31562614 C81.2226157 -0.34257431 84.35675607 -0.33770374 87.49249268 -0.32521057 C88.87058609 -0.34746201 88.87058609 -0.34746201 90.27651978 -0.37016296 C97.40604873 -0.28954529 102.25205919 1.86200496 107.33190536 6.88839054 C112.51902975 12.88688002 111.40956993 21.81577121 111.29742432 29.24632263 C111.26307811 31.76845481 111.27680185 34.28708123 111.29620361 36.80931091 C111.2893043 38.43302354 111.27963113 40.05672724 111.26690674 41.68040466 C111.27186661 42.42334778 111.27682648 43.16629089 111.28193665 43.93174744 C111.15942945 49.45777623 109.96709663 53.76720923 106.70050049 58.27415466 C101.03141293 63.29681307 95.62337968 64.00375027 88.28057861 63.93699646 C86.76191444 63.95254829 86.76191444 63.95254829 85.21257019 63.96841431 C81.88521109 63.9953903 78.55917866 63.98584264 75.23175049 63.97337341 C72.90821975 63.97928567 70.58469206 63.98653379 68.26116943 63.99505615 C63.39915048 64.00692003 58.5375898 64.00025488 53.67559814 63.98094177 C47.45455014 63.95805045 41.23486756 63.98484743 35.01395416 64.02600384 C30.2182492 64.05161478 25.42286956 64.04899293 20.62712097 64.03811073 C18.33386495 64.03662694 16.04058364 64.04428035 13.74739075 64.06136131 C10.53756574 64.08139144 7.33013806 64.06289227 4.12042236 64.03465271 C3.17992538 64.04836914 2.23942841 64.06208557 1.27043152 64.07621765 C-5.46549401 63.95816618 -9.50666925 62.02503603 -14.29949951 57.27415466 C-17.61418699 52.51234215 -17.75423835 48.22765278 -17.73309326 42.62181091 C-17.73833511 41.80345261 -17.74357697 40.9850943 -17.74897766 40.14193726 C-17.75537568 38.41819895 -17.75408972 36.69441686 -17.74554443 34.97068787 C-17.73703547 32.34773753 -17.76582272 29.72696835 -17.79754639 27.10423279 C-17.79915879 25.42259281 -17.79858011 23.74094901 -17.79559326 22.05931091 C-17.80682724 21.28305862 -17.81806122 20.50680634 -17.82963562 19.70703125 C-17.75892694 14.12256363 -16.46819097 10.88941475 -13.29949951 6.27415466 C-9.23941063 2.51857245 -5.60474279 0.03531325 0 0 Z " fill="#020304" transform="translate(245.29949951171875,169.72584533691406)"/>
<path d="M0 0 C107.58 0 215.16 0 326 0 C327.98 4.95 329.96 9.9 332 15 C329.88163401 19.23673198 328.6795958 20.18534211 324.875 22.75 C308.10038173 34.67570518 296.53641066 53.65244312 293 74 C292.53295614 78.00650368 292.23985919 81.97036556 292 86 C286.06 86 280.12 86 274 86 C274 75.85714286 274 75.85714286 274.91796875 71.94921875 C275.11769287 71.09183105 275.31741699 70.23444336 275.52319336 69.35107422 C275.74241455 68.47209473 275.96163574 67.59311523 276.1875 66.6875 C276.41381104 65.76469238 276.64012207 64.84188477 276.87329102 63.89111328 C278.63494246 56.94824175 280.80927071 50.42951174 284 44 C284.42796875 43.10667969 284.8559375 42.21335937 285.296875 41.29296875 C293.78868814 24.61943677 306.57218919 12.2852072 322 2 C221.68 2 121.36 2 18 2 C13.05 14.21 8.1 26.42 3 39 C-2.8879466 53.22165564 -2.8879466 53.22165564 -5.7121582 59.94311523 C-6.86363227 62.68422135 -8.01105213 65.42700404 -9.15820312 68.16992188 C-9.90342212 69.94801044 -10.64885495 71.72600941 -11.39453125 73.50390625 C-11.73088089 74.3077626 -12.06723053 75.11161896 -12.41377258 75.93983459 C-12.72557968 76.68100021 -13.03738678 77.42216583 -13.35864258 78.18579102 C-13.62872635 78.82919937 -13.89881012 79.47260773 -14.17707825 80.13551331 C-15.05309656 82.12030041 -16.02976416 84.05952832 -17 86 C-22.94 86 -28.88 86 -35 86 C-32.92798489 79.55985448 -30.57696113 73.32002524 -27.97265625 67.078125 C-27.58717117 66.14713989 -27.2016861 65.21615479 -26.80451965 64.25695801 C-25.56009249 61.25342114 -24.31136176 58.25169533 -23.0625 55.25 C-22.20495463 53.18273591 -21.34769702 51.11535243 -20.49072266 49.04785156 C-18.78874703 44.94274536 -17.0852104 40.83829272 -15.38037109 36.734375 C-13.28540281 31.68994359 -11.19717562 26.64276485 -9.11328125 21.59375 C-8.82922928 20.90577332 -8.54517731 20.21779663 -8.2525177 19.50897217 C-6.96498678 16.39055128 -5.67776062 13.27200517 -4.39086914 10.15332031 C-3.9499292 9.08694336 -3.50898926 8.02056641 -3.0546875 6.921875 C-2.67812012 6.01018555 -2.30155273 5.09849609 -1.91357422 4.15917969 C-1.31890725 2.7537188 -0.68248796 1.36497593 0 0 Z " fill="#61A0F4" transform="translate(54,270)"/>
<path d="M0 0 C1.33875687 0.00303635 1.33875687 0.00303635 2.70455933 0.00613403 C4.10688309 0.00350555 4.10688309 0.00350555 5.53753662 0.00082397 C8.6440107 -0.00359617 11.75042837 -0.00065598 14.85690308 0.00271606 C17.00542207 0.00204307 19.15394099 0.00107309 21.30245972 -0.00018311 C25.81182579 -0.0016603 30.3211721 0.00049517 34.83053589 0.00515747 C40.62488885 0.01085477 46.41919549 0.00757588 52.21354675 0.00158501 C56.65203198 -0.00202002 61.09050614 -0.00088229 65.5289917 0.0017128 C67.66613775 0.00238223 69.80328479 0.00155309 71.94042969 -0.00076675 C74.92172934 -0.00329233 77.90295288 0.00054597 80.88424683 0.00613403 C81.7767514 0.0041098 82.66925598 0.00208557 83.58880615 0 C89.68014075 0.02126624 89.68014075 0.02126624 90.79440308 1.13552856 C90.89461237 3.41500648 90.92521611 5.69759991 90.92721558 7.97927856 C90.9281723 8.66356934 90.92912903 9.34786011 90.93011475 10.05288696 C90.93079637 11.50214734 90.9289433 12.95141075 90.92477417 14.40066528 C90.9194256 16.62615784 90.92471968 18.85144857 90.93112183 21.07693481 C90.93046104 22.48188318 90.92917987 23.88683142 90.92721558 25.29177856 C90.92608765 26.57890747 90.92495972 27.86603638 90.92379761 29.19216919 C90.79440308 32.13552856 90.79440308 32.13552856 89.79440308 33.13552856 C86.81678938 33.23614127 83.8623314 33.27167749 80.88424683 33.2649231 C79.94936432 33.26667542 79.01448181 33.26842773 78.05126953 33.27023315 C74.94479545 33.2746533 71.83837779 33.27171311 68.73190308 33.26834106 C66.58338408 33.26901406 64.43486517 33.26998404 62.28634644 33.27124023 C57.77698036 33.27271743 53.26763405 33.27056196 48.75827026 33.26589966 C42.9639173 33.26020236 37.16961066 33.26348125 31.3752594 33.26947212 C26.93677417 33.27307715 22.49830001 33.27193942 18.05981445 33.26934433 C15.9226684 33.2686749 13.78552136 33.26950404 11.64837646 33.27182388 C8.66707681 33.27434946 5.68585328 33.27051116 2.70455933 33.2649231 C1.36580246 33.26795944 1.36580246 33.26795944 0 33.27105713 C-6.0913346 33.24979089 -6.0913346 33.24979089 -7.20559692 32.13552856 C-7.30580622 29.85605065 -7.33640996 27.57345722 -7.33840942 25.29177856 C-7.33936615 24.60748779 -7.34032288 23.92319702 -7.34130859 23.21817017 C-7.34199022 21.76890979 -7.34013715 20.31964638 -7.33596802 18.87039185 C-7.33061944 16.64489929 -7.33591352 14.41960856 -7.34231567 12.19412231 C-7.34165489 10.78917395 -7.34037372 9.38422571 -7.33840942 7.97927856 C-7.33728149 6.69214966 -7.33615356 5.40502075 -7.33499146 4.07888794 C-7.10315462 -1.19474391 -4.68066985 0.01634129 0 0 Z " fill="#EBE9EB" transform="translate(250.20559692382813,184.86447143554688)"/>
<path d="M0 0 C4.5069752 1.33540006 4.5069752 1.33540006 6.375 4 C6.66796875 7.13671875 6.66796875 7.13671875 6.5625 10.6875 C6.52189453 12.45673828 6.52189453 12.45673828 6.48046875 14.26171875 C6.44566406 15.16535156 6.41085937 16.06898438 6.375 17 C7.29023438 17.27585937 8.20546875 17.55171875 9.1484375 17.8359375 C14.78711455 19.87023019 18.79922414 23.50211009 21.8125 28.6875 C23.99922798 33.62189923 24.3496031 38.71171882 23.375 44 C21.25 46.75 21.25 46.75 18.375 48 C14.52290654 48.07861415 12.96866994 47.54419745 10.125 44.9375 C8.57086524 42.32877379 7.95737243 40.69607589 7.3125 37.8125 C6.7759548 33.77942427 6.7759548 33.77942427 3.375 32 C0.30881339 31.46355851 -2.55817873 31.46302949 -5.625 32 C-8.7389376 34.58228971 -9.51006448 36.06135991 -10 40.0625 C-9.63450778 42.9255224 -9.23497354 44.62740741 -7.625 47 C-4.38309391 49.16127073 -2.61391187 49.43542673 1.1875 49.9375 C8.68497443 51.11180322 13.33847834 53.18862886 18.375 59 C18.84421875 59.51949219 19.3134375 60.03898437 19.796875 60.57421875 C24.01262078 66.03337269 24.16888733 71.56133515 23.9140625 78.30078125 C22.93434459 85.02391794 20.24841792 89.60789162 15.04296875 93.94140625 C9.21403712 98 9.21403712 98 6.375 98 C6.43300781 98.80824219 6.49101562 99.61648438 6.55078125 100.44921875 C6.91983541 109.19053024 6.91983541 109.19053024 4.1875 113.25 C1.11940327 115.15903797 -0.11100182 115.81092266 -3.625 115 C-5.86932982 113.12972515 -7.31943202 111.61113596 -8.625 109 C-8.69533769 107.12620395 -8.7093022 105.24998898 -8.6875 103.375 C-8.67847656 102.37210937 -8.66945313 101.36921875 -8.66015625 100.3359375 C-8.64855469 99.56507813 -8.63695312 98.79421875 -8.625 98 C-9.36621094 97.731875 -10.10742188 97.46375 -10.87109375 97.1875 C-17.08369497 94.50859111 -21.46072687 90.21979776 -24.125 84 C-25.52460685 79.86394209 -26.39712019 76.37534775 -25.625 72 C-23.5625 69 -23.5625 69 -20.625 67 C-16.94603468 66.93656956 -14.71578709 67.06503964 -11.875 69.5 C-10.3430124 72.5639752 -9.38845722 75.68094496 -8.46875 78.9765625 C-7.69774126 81.35195789 -7.69774126 81.35195789 -4.625 83 C-0.65586452 83.44101505 1.70783323 83.32648586 5.3125 81.5625 C7.93301465 78.30670907 8.11869892 76.22113428 7.8359375 72.12109375 C7.47978422 69.80516926 7.47978422 69.80516926 5.625 67.5625 C2.40065614 66.01233468 0.13436744 65.59500457 -3.375 65.125 C-11.15804462 64.02407733 -16.77631674 60.77490886 -21.5625 54.5 C-25.66764869 47.98838483 -26.49856328 41.59245125 -25.625 34 C-23.15909371 26.10909987 -17.58782937 21.17769762 -10.625 17 C-9.965 17 -9.305 17 -8.625 17 C-8.68300781 16.19175781 -8.74101562 15.38351562 -8.80078125 14.55078125 C-9.16724291 5.87087498 -9.16724291 5.87087498 -6.5625 1.6875 C-3.625 0 -3.625 0 0 0 Z " fill="#040302" transform="translate(429.625,301)"/>
<path d="M0 0 C109.56 0 219.12 0 332 0 C333.66666667 6.66666667 335.33333333 13.33333333 337 20 C330.73 20 324.46 20 318 20 C315 11 315 11 314 1 C216.65 1 119.3 1 19 1 C13.85933126 64.82639315 13.85933126 64.82639315 23 126 C9.04956589 126.68796661 9.04956589 126.68796661 5.3125 124.375 C-23.63589634 94.64421457 0 41.4961354 0 0 Z " fill="#067BC6" transform="translate(15,371)"/>
<path d="M0 0 C1.0528418 0.01353516 1.0528418 0.01353516 2.12695312 0.02734375 C3.85561525 0.05086296 5.58410145 0.08673287 7.3125 0.125 C6.98907623 0.91162018 6.66565247 1.69824036 6.33242798 2.50869751 C5.04230081 7.0830304 5.00483493 11.2569355 4.99365234 15.98583984 C4.98360672 16.96207306 4.9735611 17.93830627 4.96321106 18.94412231 C4.93241895 22.15805494 4.91535481 25.37190441 4.8984375 28.5859375 C4.87972268 30.81939406 4.86014903 33.05284357 4.8397522 35.2862854 C4.78845832 41.15521081 4.74881778 47.02415912 4.71160889 52.89318848 C4.67155214 58.88588111 4.62046738 64.87847863 4.5703125 70.87109375 C4.47358559 82.62233562 4.39018988 94.37361684 4.3125 106.125 C-1.9575 106.125 -8.2275 106.125 -14.6875 106.125 C-14.77784457 93.30336816 -14.85124132 80.48194749 -14.89474869 67.66006947 C-14.91562932 61.70644626 -14.94395618 55.75305199 -14.98925781 49.79956055 C-15.03269779 44.05481908 -15.05663352 38.31029792 -15.06700897 32.56540489 C-15.0744036 30.37291686 -15.08884345 28.18044097 -15.11042023 25.98804665 C-15.13942902 22.9186046 -15.14345698 19.85007451 -15.14160156 16.78051758 C-15.15598267 15.87277084 -15.17036377 14.96502411 -15.18518066 14.0297699 C-15.15827417 9.92002529 -15.0491408 7.71011985 -12.84661865 4.14653015 C-8.57386853 0.14605839 -5.60275699 -0.13601464 0 0 Z " fill="#027FCD" transform="translate(71.6875,148.875)"/>
<path d="M0 0 C6.39946514 3.26954492 10.94427082 8.71282415 13.1875 15.5 C13.41455078 18.72973633 13.41455078 18.72973633 13.3828125 22.33203125 C13.37781738 23.49710205 13.37282227 24.66217285 13.36767578 25.86254883 C13.34946777 27.33103271 13.33125977 28.7995166 13.3125 30.3125 C13.27125 34.994375 13.23 39.67625 13.1875 44.5 C-1.9925 44.5 -17.1725 44.5 -32.8125 44.5 C-32.915625 39.715 -33.01875 34.93 -33.125 30 C-33.19328003 27.75993164 -33.19328003 27.75993164 -33.26293945 25.47460938 C-33.35962195 16.19808019 -32.18092738 11.20446025 -25.93359375 4.4765625 C-25.37800781 4.03054687 -24.82242188 3.58453125 -24.25 3.125 C-23.69183594 2.66351563 -23.13367188 2.20203125 -22.55859375 1.7265625 C-15.88019621 -2.96475031 -7.53660342 -2.92658483 0 0 Z " fill="#D8D6D9" transform="translate(89.8125,53.5)"/>
<path d="M0 0 C1.45427399 -0.01029488 1.45427399 -0.01029488 2.93792725 -0.02079773 C6.14366282 -0.03910391 9.34891085 -0.03522306 12.5546875 -0.02954102 C14.78141439 -0.03410064 17.00813986 -0.03940556 19.23486328 -0.04542542 C23.90207638 -0.05436379 28.56911844 -0.05192465 33.23632812 -0.04199219 C39.22219694 -0.03049577 45.20747644 -0.05072105 51.19326782 -0.07990932 C55.79146077 -0.09823916 60.38951163 -0.09798537 64.98773193 -0.0922718 C67.19497505 -0.09211823 69.40222758 -0.09819244 71.60943604 -0.11056328 C74.69312733 -0.12541216 77.77571854 -0.11484106 80.859375 -0.09765625 C81.77378357 -0.10732422 82.68819214 -0.11699219 83.63031006 -0.12695312 C89.78052911 -0.05504765 89.78052911 -0.05504765 92.99267578 2.21665955 C95.1290421 5.46859764 95.03979871 7.60780518 94.4296875 11.40405273 C91.58068906 14.622115 89.27521431 15.65583694 85.09690857 15.9119873 C83.34397853 15.93569185 81.59066608 15.93737646 79.83764648 15.92163086 C78.87773804 15.92864014 77.91782959 15.93564941 76.92883301 15.94287109 C73.7608535 15.96045403 70.59376959 15.94882786 67.42578125 15.93530273 C65.22290373 15.93799733 63.02002738 15.94187948 60.81715393 15.94689941 C56.20293847 15.9527947 51.58903293 15.94422944 46.97485352 15.92553711 C41.05736631 15.90273448 35.14060425 15.91587922 29.22314358 15.93982697 C24.67554752 15.95427251 20.12812375 15.94968483 15.58052254 15.9393158 C13.39840675 15.93664578 11.21627536 15.93992789 9.03417778 15.94923401 C5.9864741 15.95938033 2.9399497 15.94392533 -0.10766602 15.92163086 C-1.46289619 15.93377625 -1.46289619 15.93377625 -2.84550476 15.94616699 C-8.95365824 15.86328738 -8.95365824 15.86328738 -12.12852478 13.49890137 C-14.59465022 9.91573899 -14.11339525 7.6808294 -13.5703125 3.40405273 C-10.06928029 -0.79990712 -5.01988406 -0.02471297 0 0 Z " fill="#040102" transform="translate(269.5703125,36.595947265625)"/>
<path d="M0 0 C0.66 0.33 1.32 0.66 2 1 C1.38253906 1.47308594 0.76507813 1.94617188 0.12890625 2.43359375 C-15.62754987 14.73658003 -29.72375926 31.60909301 -32.78515625 52.14453125 C-34.56780666 75.83757574 -30.66611744 96.36753904 -14.9296875 114.859375 C-14.29289062 115.56578125 -13.65609375 116.2721875 -13 117 C-12.42507813 117.64453125 -11.85015625 118.2890625 -11.2578125 118.953125 C-7.02101547 123.44373936 -2.235325 126.75908453 3 130 C1 131 1 131 -1.46875 130.25 C-8.69081078 127.27183061 -14.85118979 123.81483105 -21 119 C-21.69867188 118.46632813 -22.39734375 117.93265625 -23.1171875 117.3828125 C-34.49037853 108.13379723 -43.87485616 92.85405423 -45.79492188 78.1394043 C-47.8389894 56.81539991 -45.01547936 39.18578805 -31.59765625 21.90625 C-23.19098768 11.87843039 -12.29918753 4.50970209 0 0 Z " fill="#FAA65D" transform="translate(407,293)"/>
<path d="M0 0 C39.3558451 -0.22888529 78.71160345 -0.40509453 118.06798115 -0.51065329 C122.71426717 -0.52316037 127.36055188 -0.53610359 132.00683594 -0.54931641 C132.93182803 -0.55193951 133.85682013 -0.55456261 134.80984229 -0.55726521 C149.78758339 -0.6007794 164.7649407 -0.67962524 179.74245411 -0.77152796 C195.11063744 -0.86504141 210.47861977 -0.92058726 225.84707594 -0.94088495 C235.33060849 -0.95460701 244.8130563 -0.99794442 254.29625493 -1.07916467 C260.79916523 -1.1320229 267.30151473 -1.14800188 273.80462426 -1.13501377 C277.55715306 -1.12860739 281.30778674 -1.13842597 285.05997849 -1.19205475 C289.13094485 -1.24981406 293.19788196 -1.22987686 297.26916504 -1.20254517 C298.45205628 -1.23167358 299.63494752 -1.26080199 300.85368395 -1.29081309 C305.64546501 -1.2037458 308.74282523 -1.12815603 312.39908123 2.15287328 C314.50661469 4.80172157 314.50661469 4.80172157 316.24590826 7.42753088 C319.71799157 12.51952628 324.66547565 16.76996995 330.10546875 19.63623047 C333 22 333 22 333.68115234 25.48339844 C333.68020828 26.8590898 333.64663512 28.23502301 333.5859375 29.609375 C333.57744781 30.33618469 333.56895813 31.06299438 333.56021118 31.81182861 C333.52670601 34.12608121 333.45144932 36.43680705 333.375 38.75 C333.34489589 40.32156413 333.31752083 41.89318308 333.29296875 43.46484375 C333.2269265 47.31124813 333.12343921 51.15502691 333 55 C332.67 55 332.34 55 332 55 C332.07863281 54.154375 332.15726562 53.30875 332.23828125 52.4375 C332.32050439 48.6292705 332.11767961 45.6524926 331 42 C328.14420299 39.42488194 325.06931271 37.77040742 321.6875 36.01171875 C308.36685686 29.08090944 297.22766019 15.89641328 290 3 C290 2.34 290 1.68 290 1 C194.3 1 98.6 1 0 1 C0 0.67 0 0.34 0 0 Z " fill="#C6C4C6" transform="translate(51,406)"/>
<path d="M0 0 C5.94 0 11.88 0 18 0 C18 18.15 18 36.3 18 55 C12.39 55 6.78 55 1 55 C0 54 0 54 -0.12025452 51.82969666 C-0.11803391 50.87261307 -0.11581329 49.91552948 -0.11352539 48.92944336 C-0.11344986 47.84839828 -0.11337433 46.76735321 -0.11329651 45.65354919 C-0.10813522 44.4775264 -0.10297394 43.3015036 -0.09765625 42.08984375 C-0.0962413 40.89267227 -0.09482635 39.69550079 -0.09336853 38.46205139 C-0.08774979 34.62050934 -0.07519411 30.77902457 -0.0625 26.9375 C-0.05748741 24.34049563 -0.05292409 21.74349035 -0.04882812 19.14648438 C-0.03777427 12.76430068 -0.02049708 6.38216007 0 0 Z " fill="#D9D7DA" transform="translate(50,407)"/>
<path d="M0 0 C6.27 0 12.54 0 19 0 C19 14.52 19 29.04 19 44 C12.73 44 6.46 44 0 44 C0 29.48 0 14.96 0 0 Z " fill="#ECEAEC" transform="translate(300,89)"/>
<path d="M0 0 C1.51400391 0.01740234 1.51400391 0.01740234 3.05859375 0.03515625 C4.07050781 0.04417969 5.08242187 0.05320312 6.125 0.0625 C7.29869141 0.07990234 7.29869141 0.07990234 8.49609375 0.09765625 C8.67010546 4.17844776 8.82959758 8.25953412 8.97827148 12.34130859 C9.05486225 14.37364104 9.14143377 16.40559005 9.22851562 18.4375 C9.70302267 31.78696486 9.0147155 44.61349077 8.49609375 58.09765625 C48.09609375 58.09765625 87.69609375 58.09765625 128.49609375 58.09765625 C128.49609375 58.42765625 128.49609375 58.75765625 128.49609375 59.09765625 C111.43308788 59.12098488 94.37008697 59.13863524 77.30706882 59.14946842 C69.3849643 59.15463146 61.46286966 59.1616743 53.54077148 59.1730957 C46.63834738 59.18304231 39.73593044 59.18950962 32.83349937 59.19174474 C29.17648714 59.19305189 25.51949539 59.19613799 21.8624897 59.20338631 C17.78665369 59.21139973 13.71085362 59.2116474 9.63500977 59.21118164 C7.80298256 59.21657455 7.80298256 59.21657455 5.9339447 59.22207642 C4.83031586 59.22070175 3.72668701 59.21932709 2.58961487 59.21791077 C1.14193899 59.21929346 1.14193899 59.21929346 -0.33498287 59.22070408 C-2.50390625 59.09765625 -2.50390625 59.09765625 -3.50390625 58.09765625 C-3.60284403 56.32319616 -3.63189717 54.54479374 -3.63330078 52.76757812 C-3.63645294 51.62969849 -3.6396051 50.49181885 -3.64285278 49.31945801 C-3.64082855 48.08095093 -3.63880432 46.84244385 -3.63671875 45.56640625 C-3.63767548 44.30501831 -3.6386322 43.04363037 -3.63961792 41.74401855 C-3.6403 39.07068487 -3.63894154 36.39744188 -3.63427734 33.72412109 C-3.62858006 30.29058934 -3.63185926 26.85713575 -3.63784981 23.42360687 C-3.64232387 20.15870382 -3.63919508 16.89381032 -3.63671875 13.62890625 C-3.63874298 12.39039917 -3.64076721 11.15189209 -3.64285278 9.87585449 C-3.63970062 8.73797485 -3.63654846 7.60009521 -3.63330078 6.42773438 C-3.63250519 5.42037231 -3.63170959 4.41301025 -3.63088989 3.37512207 C-3.45168142 0.16099811 -3.23198029 0.12605227 0 0 Z " fill="#CB4351" transform="translate(246.50390625,14.90234375)"/>
<path d="M0 0 C9.68215795 1.91095223 9.68215795 1.91095223 11.91015625 2.53515625 C15.93605517 3.43063657 20.09190422 3.46289948 24.19921875 3.71875 C27 4 27 4 28 5 C28.07325168 7.86267567 28.09238205 10.700719 28.0625 13.5625 C28.05798828 14.36880859 28.05347656 15.17511719 28.04882812 16.00585938 C28.03700518 18.00393756 28.01906914 20.00197783 28 22 C19.12539702 22.49815859 8.10678718 22.05339359 0 18 C0 12.06 0 6.12 0 0 Z " fill="#0691F8" transform="translate(399,437)"/>
<path d="M0 0 C1.02416016 -0.01933594 2.04832031 -0.03867188 3.10351562 -0.05859375 C7.78023349 -0.02832373 11.48160649 0.00473564 15.28125 2.9375 C17.5625 5.625 17.5625 5.625 17.625 9.25 C16.2333506 13.67053338 16.2333506 13.67053338 13.5625 15.625 C9.28046716 16.2745064 4.95068556 16.08812334 0.625 16.0625 C-0.56802734 16.08248047 -1.76105469 16.10246094 -2.99023438 16.12304688 C-4.13685547 16.12240234 -5.28347656 16.12175781 -6.46484375 16.12109375 C-7.51406006 16.12294678 -8.56327637 16.1247998 -9.64428711 16.12670898 C-13.12615388 15.50130594 -14.29960093 14.39418703 -16.4375 11.625 C-17 8.6875 -17 8.6875 -16.4375 5.625 C-12.10586077 -0.68655158 -7.0024015 -0.13170661 0 0 Z " fill="#070707" transform="translate(147.4375,168.375)"/>
<path d="M0 0 C1.18851563 -0.02384766 2.37703125 -0.04769531 3.6015625 -0.07226562 C4.74367187 -0.07033203 5.88578125 -0.06839844 7.0625 -0.06640625 C8.10535156 -0.06713135 9.14820313 -0.06785645 10.22265625 -0.06860352 C13 0.5625 13 0.5625 15.3671875 2.91040039 C17 5.5625 17 5.5625 17.0625 8.625 C15.65946401 12.50398186 14.579365 13.46012205 11 15.5625 C7.1584298 16.17979408 3.38374478 16.16621327 -0.5 16.125 C-2.04880859 16.16077148 -2.04880859 16.16077148 -3.62890625 16.19726562 C-11.15756979 16.18269402 -11.15756979 16.18269402 -15.18359375 13.21875 C-17 10.5625 -17 10.5625 -17.5625 7.5 C-15.82235679 -1.58741454 -7.36368921 -0.06788651 0 0 Z " fill="#070707" transform="translate(148,133.4375)"/>
<path d="M0 0 C1.69866211 -0.03577148 1.69866211 -0.03577148 3.43164062 -0.07226562 C12.68543439 -0.05590653 12.68543439 -0.05590653 15.8125 2.9375 C17.5625 5.5625 17.5625 5.5625 18.125 8.125 C17.39216697 11.30060981 16.04847913 12.51522307 13.5625 14.5625 C9.58198202 16.55275899 4.62702497 15.87881959 0.25 15.9375 C-0.79607422 15.97488281 -1.84214844 16.01226562 -2.91992188 16.05078125 C-10.64715398 16.13931733 -10.64715398 16.13931733 -14.6328125 13.23046875 C-16.83886241 9.96914389 -17.17649543 8.42169838 -16.4375 4.5625 C-11.98569492 -1.1301948 -6.70176511 -0.06462281 0 0 Z " fill="#040404" transform="translate(147.4375,97.4375)"/>
<path d="M0 0 C1.34111343 0.00539291 1.34111343 0.00539291 2.70932007 0.01089478 C3.64580887 0.01074875 4.58229767 0.01060272 5.54716492 0.01045227 C8.65845007 0.01115179 11.76967617 0.01894602 14.88095093 0.02676392 C17.0318651 0.02862796 19.18277971 0.03005192 21.33369446 0.03105164 C27.00711225 0.03487792 32.68050463 0.04470914 38.35391235 0.05575562 C44.13831234 0.06596736 49.92271641 0.07054875 55.7071228 0.07559204 C67.06585796 0.08633131 78.42457421 0.10340906 89.78329468 0.12442017 C89.78329468 0.45442017 89.78329468 0.78442017 89.78329468 1.12442017 C61.07329468 1.12442017 32.36329468 1.12442017 2.78329468 1.12442017 C2.78329468 11.68442017 2.78329468 22.24442017 2.78329468 33.12442017 C-0.18670532 33.12442017 -3.15670532 33.12442017 -6.21670532 33.12442017 C-8.1252048 31.21592069 -7.34730166 27.80963242 -7.34951782 25.28067017 C-7.35047455 24.59637939 -7.35143127 23.91208862 -7.35241699 23.20706177 C-7.35309862 21.75780139 -7.35124555 20.30853798 -7.34707642 18.85928345 C-7.34172784 16.63379089 -7.34702192 14.40850016 -7.35342407 12.18301392 C-7.35276329 10.77806555 -7.35148212 9.37311731 -7.34951782 7.96817017 C-7.34838989 6.68104126 -7.34726196 5.39391235 -7.34609985 4.06777954 C-7.11398734 -1.2121233 -4.68317586 0.00795641 0 0 Z " fill="#CECDCF" transform="translate(250.21670532226563,184.87557983398438)"/>
<path d="M0 0 C0.94166016 -0.02384766 1.88332031 -0.04769531 2.85351562 -0.07226562 C7.53450595 -0.06235527 9.8547997 0.04486278 13.71875 2.87109375 C15.5625 5.5625 15.5625 5.5625 15.625 9.1875 C14.44427401 12.93804138 13.84951841 13.62796766 10.5625 15.5625 C7.08355179 16.16882469 3.58876317 16.0263154 0.0625 16 C-0.88753906 16.01998047 -1.83757812 16.03996094 -2.81640625 16.06054688 C-9.72168089 16.05569085 -9.72168089 16.05569085 -13.0625 13.75390625 C-15.09370191 10.5166782 -14.97140597 8.29984177 -14.4375 4.5625 C-11.00675141 -0.8703285 -5.77980887 -0.06697802 0 0 Z " fill="#020305" transform="translate(309.4375,320.4375)"/>
<path d="M0 0 C0.94166016 -0.02384766 1.88332031 -0.04769531 2.85351562 -0.07226562 C7.53450595 -0.06235527 9.8547997 0.04486278 13.71875 2.87109375 C15.5625 5.5625 15.5625 5.5625 15.625 9.1875 C14.44427401 12.93804138 13.84951841 13.62796766 10.5625 15.5625 C7.08355179 16.16882469 3.58876317 16.0263154 0.0625 16 C-0.88753906 16.01998047 -1.83757812 16.03996094 -2.81640625 16.06054688 C-9.72168089 16.05569085 -9.72168089 16.05569085 -13.0625 13.75390625 C-15.09370191 10.5166782 -14.97140597 8.29984177 -14.4375 4.5625 C-11.00675141 -0.8703285 -5.77980887 -0.06697802 0 0 Z " fill="#020305" transform="translate(247.4375,320.4375)"/>
<path d="M0 0 C0.94166016 -0.02384766 1.88332031 -0.04769531 2.85351562 -0.07226562 C7.53450595 -0.06235527 9.8547997 0.04486278 13.71875 2.87109375 C15.5625 5.5625 15.5625 5.5625 15.625 9.1875 C14.44427401 12.93804138 13.84951841 13.62796766 10.5625 15.5625 C7.08355179 16.16882469 3.58876317 16.0263154 0.0625 16 C-0.88753906 16.01998047 -1.83757812 16.03996094 -2.81640625 16.06054688 C-9.72168089 16.05569085 -9.72168089 16.05569085 -13.0625 13.75390625 C-15.09370191 10.5166782 -14.97140597 8.29984177 -14.4375 4.5625 C-11.00675141 -0.8703285 -5.77980887 -0.06697802 0 0 Z " fill="#020305" transform="translate(185.4375,320.4375)"/>
<path d="M0 0 C0.94166016 -0.02384766 1.88332031 -0.04769531 2.85351562 -0.07226562 C7.53450595 -0.06235527 9.8547997 0.04486278 13.71875 2.87109375 C15.5625 5.5625 15.5625 5.5625 15.625 9.1875 C14.44427401 12.93804138 13.84951841 13.62796766 10.5625 15.5625 C7.08355179 16.16882469 3.58876317 16.0263154 0.0625 16 C-0.88753906 16.01998047 -1.83757812 16.03996094 -2.81640625 16.06054688 C-9.72168089 16.05569085 -9.72168089 16.05569085 -13.0625 13.75390625 C-15.09370191 10.5166782 -14.97140597 8.29984177 -14.4375 4.5625 C-11.00675141 -0.8703285 -5.77980887 -0.06697802 0 0 Z " fill="#020305" transform="translate(123.4375,320.4375)"/>
<path d="M0 0 C0.94166016 -0.02384766 1.88332031 -0.04769531 2.85351562 -0.07226562 C7.53450595 -0.06235527 9.8547997 0.04486278 13.71875 2.87109375 C15.5625 5.5625 15.5625 5.5625 15.625 9.1875 C14.44427401 12.93804138 13.84951841 13.62796766 10.5625 15.5625 C7.08355179 16.16882469 3.58876317 16.0263154 0.0625 16 C-0.88753906 16.01998047 -1.83757812 16.03996094 -2.81640625 16.06054688 C-9.72168089 16.05569085 -9.72168089 16.05569085 -13.0625 13.75390625 C-15.09370191 10.5166782 -14.97140597 8.29984177 -14.4375 4.5625 C-11.00675141 -0.8703285 -5.77980887 -0.06697802 0 0 Z " fill="#010203" transform="translate(309.4375,287.4375)"/>
<path d="M0 0 C0.94166016 -0.02384766 1.88332031 -0.04769531 2.85351562 -0.07226562 C7.53450595 -0.06235527 9.8547997 0.04486278 13.71875 2.87109375 C15.5625 5.5625 15.5625 5.5625 15.625 9.1875 C14.44427401 12.93804138 13.84951841 13.62796766 10.5625 15.5625 C7.08355179 16.16882469 3.58876317 16.0263154 0.0625 16 C-0.88753906 16.01998047 -1.83757812 16.03996094 -2.81640625 16.06054688 C-9.72168089 16.05569085 -9.72168089 16.05569085 -13.0625 13.75390625 C-15.09370191 10.5166782 -14.97140597 8.29984177 -14.4375 4.5625 C-11.00675141 -0.8703285 -5.77980887 -0.06697802 0 0 Z " fill="#010203" transform="translate(247.4375,287.4375)"/>
<path d="M0 0 C0.94166016 -0.02384766 1.88332031 -0.04769531 2.85351562 -0.07226562 C7.53450595 -0.06235527 9.8547997 0.04486278 13.71875 2.87109375 C15.5625 5.5625 15.5625 5.5625 15.625 9.1875 C14.44427401 12.93804138 13.84951841 13.62796766 10.5625 15.5625 C7.08355179 16.16882469 3.58876317 16.0263154 0.0625 16 C-0.88753906 16.01998047 -1.83757812 16.03996094 -2.81640625 16.06054688 C-9.72168089 16.05569085 -9.72168089 16.05569085 -13.0625 13.75390625 C-15.09370191 10.5166782 -14.97140597 8.29984177 -14.4375 4.5625 C-11.00675141 -0.8703285 -5.77980887 -0.06697802 0 0 Z " fill="#010203" transform="translate(185.4375,287.4375)"/>
<path d="M0 0 C0.94166016 -0.02384766 1.88332031 -0.04769531 2.85351562 -0.07226562 C7.53450595 -0.06235527 9.8547997 0.04486278 13.71875 2.87109375 C15.5625 5.5625 15.5625 5.5625 15.625 9.1875 C14.44427401 12.93804138 13.84951841 13.62796766 10.5625 15.5625 C7.08355179 16.16882469 3.58876317 16.0263154 0.0625 16 C-0.88753906 16.01998047 -1.83757812 16.03996094 -2.81640625 16.06054688 C-9.72168089 16.05569085 -9.72168089 16.05569085 -13.0625 13.75390625 C-15.09370191 10.5166782 -14.97140597 8.29984177 -14.4375 4.5625 C-11.00675141 -0.8703285 -5.77980887 -0.06697802 0 0 Z " fill="#010203" transform="translate(123.4375,287.4375)"/>
<path d="M0 0 C0.95003906 -0.00708984 1.90007812 -0.01417969 2.87890625 -0.02148438 C11.08964551 0.05357864 11.08964551 0.05357864 14.5 3.4375 C15.2815534 8.90837379 15.2815534 8.90837379 14.5 11.4375 C11.6297371 14.71780045 9.25790557 15.69621868 5.03125 16.00390625 C3.35428313 16.02371295 1.67694178 16.02182849 0 16 C-0.84175781 16.02384766 -1.68351563 16.04769531 -2.55078125 16.07226562 C-6.99848278 16.06175924 -8.92936929 15.87476491 -12.55859375 13.09375 C-14.5 10.4375 -14.5 10.4375 -15.0625 7.375 C-13.47733714 -0.90307272 -6.96305084 -0.14644137 0 0 Z " fill="#070707" transform="translate(216.5,426.5625)"/>
<path d="M0 0 C5.61 0 11.22 0 17 0 C19.47390635 6.2436684 21.29446483 12.50272314 23 19 C16.73 19 10.46 19 4 19 C1.57457445 11.72372335 0.51206629 7.27134138 0 0 Z " fill="#0591F9" transform="translate(329,372)"/>
</svg>
