<?xml version="1.0" encoding="UTF-8"?>
<svg version="1.1" xmlns="http://www.w3.org/2000/svg" width="512" height="512">
<path d="M0 0 C1.01331642 -0.00623996 2.02663284 -0.01247993 3.07065582 -0.01890898 C6.47637492 -0.03490224 9.88138459 -0.02220956 13.28710938 -0.00964355 C15.72453226 -0.01506184 18.16195186 -0.02218283 20.59936523 -0.03088379 C26.53855182 -0.04725601 32.47755321 -0.04482345 38.4167347 -0.03323323 C43.24309067 -0.02420413 48.06938996 -0.02297262 52.89575195 -0.02732849 C53.58234469 -0.02794142 54.26893743 -0.02855436 54.976336 -0.02918586 C56.37108296 -0.03046475 57.7658299 -0.0317616 59.16057682 -0.03307623 C72.24288806 -0.04448575 85.32508724 -0.03136253 98.4073801 -0.00987476 C109.63557516 0.0079966 120.86360481 0.00489259 132.09179688 -0.0135498 C145.12689692 -0.03495 158.1618987 -0.04338708 171.19701385 -0.03110075 C172.58666482 -0.02982654 173.9763158 -0.02856905 175.3659668 -0.02732849 C176.04972334 -0.02671139 176.73347989 -0.02609429 177.43795633 -0.02545848 C182.25919863 -0.02200302 187.08037867 -0.02783814 191.90161133 -0.0372467 C198.38917798 -0.04962865 204.87650539 -0.04082857 211.36404419 -0.01766968 C213.74894693 -0.01236815 216.13387591 -0.01392087 218.51876831 -0.02272034 C221.76677765 -0.033602 225.01377446 -0.02000071 228.26171875 0 C229.21229408 -0.00892289 230.16286942 -0.01784577 231.14225006 -0.02703905 C232.01162956 -0.01660806 232.88100906 -0.00617707 233.7767334 0.00457001 C234.52641136 0.00521942 235.27608932 0.00586883 236.0484848 0.00653791 C239.07754225 0.73587801 240.261245 2.05211724 242.13085938 4.50793457 C242.63225603 7.05197525 242.63225603 7.05197525 242.63422394 9.98651123 C242.64465493 11.10669521 242.65508592 12.2268792 242.665833 13.38100815 C242.65691011 14.61173176 242.64798722 15.84245537 242.63879395 17.11047363 C242.64503391 18.41780582 242.65127387 19.72513802 242.65770292 21.07208633 C242.67443305 24.70396928 242.66613349 28.33543293 242.65375805 31.96731758 C242.6447248 35.88286332 242.65866867 39.79833588 242.66967773 43.71386719 C242.68748607 51.38561008 242.68361272 59.05719665 242.67202717 66.72894573 C242.6630022 72.96262078 242.66176478 79.19625194 242.66612244 85.42993164 C242.66673537 86.31635039 242.6673483 87.20276913 242.66797981 88.11604905 C242.66925868 89.91666 242.67055553 91.71727094 242.67187017 93.51788187 C242.68328275 110.41151218 242.67015165 127.30505574 242.64866871 144.19867182 C242.6307971 158.70154244 242.63390102 173.20428501 242.65234375 187.70715332 C242.67373851 204.53936243 242.68218405 221.37149547 242.6698947 238.20371628 C242.66862047 239.99779001 242.66736299 241.79186375 242.66612244 243.5859375 C242.66550533 244.46870999 242.66488823 245.35148247 242.66425243 246.26100564 C242.66079534 252.48888233 242.66663559 258.71671085 242.67604065 264.94458008 C242.68724655 272.5318866 242.68425039 280.11902755 242.66291767 287.70631504 C242.65238814 291.5792407 242.64831752 295.45189008 242.66151428 299.32481384 C242.67558843 303.51858276 242.6588109 307.711651 242.63879395 311.90539551 C242.64771683 313.13611912 242.65663972 314.36684273 242.665833 315.63486099 C242.65540201 316.75504498 242.64497102 317.87522896 242.63422394 319.02935791 C242.63357453 319.99775478 242.63292512 320.96615166 242.63225603 321.96389389 C241.9801141 325.27280228 240.76868596 326.46485317 238.13085938 328.50793457 C235.50967608 328.88248438 233.31516075 329.01604653 230.70019531 328.96203613 C229.58741211 328.96291229 229.58741211 328.96291229 228.45214844 328.96380615 C226.00603036 328.96102482 223.5611389 328.92993243 221.11523438 328.89855957 C219.4170193 328.89109731 217.71879561 328.88540431 216.02056885 328.88140869 C211.55529928 328.86615108 207.09055184 328.82686846 202.62548828 328.78259277 C198.06745466 328.74164264 193.50933651 328.72339824 188.95117188 328.70324707 C180.01083856 328.66037411 171.07089242 328.59212142 162.13085938 328.50793457 C162.13974182 329.15051208 162.14862427 329.7930896 162.15777588 330.45513916 C162.24621586 337.13833732 162.30657991 343.82136947 162.35058594 350.50500488 C162.37071101 352.99986522 162.39801389 355.49467835 162.43261719 357.98937988 C162.48109394 361.57380825 162.50381958 365.15761342 162.52148438 368.74230957 C162.54212952 369.85910095 162.56277466 370.97589233 162.58404541 372.12652588 C162.58434753 373.16730286 162.58464966 374.20807983 162.58496094 375.28039551 C162.59384338 376.19528748 162.60272583 377.11017944 162.61187744 378.05279541 C161.94957964 381.43319497 160.94607254 382.53477429 158.13085938 384.50793457 C155.51596316 384.91107606 153.31430269 385.0727191 150.70019531 385.05383301 C149.95833984 385.06417068 149.21648437 385.07450836 148.45214844 385.0851593 C146.00628912 385.11459722 143.56125696 385.11608661 141.11523438 385.11730957 C139.41699647 385.13229063 137.71877313 385.14901763 136.02056885 385.16741943 C131.5555352 385.21111382 127.09069809 385.23109657 122.62548828 385.24615479 C118.06726449 385.26571841 113.50925318 385.30768923 108.95117188 385.34777832 C100.01113322 385.42310296 91.07114207 385.47338072 82.13085938 385.50793457 C81.87908936 386.24688965 81.62731934 386.98584473 81.36791992 387.74719238 C81.02543213 388.72526855 80.68294434 389.70334473 80.33007812 390.71105957 C79.99580811 391.67688965 79.66153809 392.64271973 79.31713867 393.63781738 C75.68665359 402.42151415 68.21028524 409.59573017 59.69169807 413.67635679 C52.60759255 416.40728062 46.42514722 417.07776206 38.87255859 417.01586914 C37.68669096 417.0221091 36.50082333 417.02834907 35.27902031 417.03477812 C32.01844649 417.04788671 28.75847783 417.04328598 25.49792004 417.03083324 C21.96954978 417.02173069 18.4412573 417.0357781 14.91290283 417.04675293 C8.01313764 417.06448758 1.11354704 417.06072084 -5.78622484 417.04910237 C-11.39658058 417.04004833 -17.00688758 417.03885254 -22.61724854 417.04319763 C-23.81753116 417.04411703 -23.81753116 417.04411703 -25.04206192 417.045055 C-26.66791202 417.04633398 -28.2937621 417.04763083 -29.91961217 417.04894537 C-45.14531757 417.06033636 -60.37092646 417.04726076 -75.59661603 417.0257439 C-88.64518817 417.00787425 -101.69361793 417.01097878 -114.7421875 417.02941895 C-129.91547677 417.05085188 -145.08868157 417.05923786 -160.26198387 417.04696989 C-161.88166681 417.04569577 -163.50134975 417.04443828 -165.12103271 417.04319763 C-166.31623163 417.04227198 -166.31623163 417.04227198 -167.53557599 417.04132763 C-173.1355748 417.03788199 -178.73551978 417.04368607 -184.33551025 417.05311584 C-191.16524509 417.06436419 -197.99479616 417.06123647 -204.8245101 417.03999287 C-208.3054601 417.02952035 -211.78610434 417.02529503 -215.2670517 417.03858948 C-219.04861729 417.04955496 -222.82932837 417.03576722 -226.61083984 417.01586914 C-227.69967028 417.02479203 -228.78850071 417.03371491 -229.910326 417.04290819 C-241.33678329 416.92666031 -250.57058111 413.42999989 -258.86914062 405.50793457 C-267.57560786 396.38769463 -270.48647779 386.40651577 -270.3770752 373.99977112 C-270.38331516 372.89471912 -270.38955512 371.78966713 -270.39598417 370.65112871 C-270.41184052 366.97695457 -270.39933847 363.30345061 -270.38671875 359.62927246 C-270.39214292 356.98390794 -270.39912324 354.33858842 -270.40795898 351.6932373 C-270.42568183 345.27307566 -270.42193345 338.85310177 -270.41030842 332.43293298 C-270.40125519 327.21629943 -270.40005822 321.99971831 -270.40440369 316.78307915 C-270.40501662 316.03915225 -270.40562955 315.29522536 -270.40626106 314.52875523 C-270.40754 313.01732201 -270.40883686 311.50588881 -270.41015142 309.99445563 C-270.42153749 295.84721453 -270.40847169 281.70007739 -270.38694996 267.55285334 C-270.36905489 255.41339821 -270.37220666 243.27409597 -270.390625 231.13464355 C-270.41202214 217.02533005 -270.42046621 202.91610726 -270.40817595 188.8067798 C-270.40690177 187.30321309 -270.40564429 185.79964637 -270.40440369 184.29607964 C-270.40378658 183.55634169 -270.40316948 182.81660374 -270.40253368 182.05444949 C-270.39907922 176.84039088 -270.40491062 171.62638985 -270.4143219 166.41234016 C-270.42669834 159.40182785 -270.41791246 152.39161006 -270.39474487 145.3811264 C-270.38944226 142.80432302 -270.39099788 140.22749535 -270.39979553 137.65070152 C-270.41067194 134.14253893 -270.39708231 130.63531477 -270.3770752 127.12721252 C-270.38599808 126.09970212 -270.39492097 125.07219171 -270.40411425 124.01354462 C-270.32796275 117.16410844 -270.32796275 117.16410844 -268.02642059 113.87261105 C-265.02988342 111.97702779 -262.88189645 112.05315719 -259.35351562 112.11730957 C-258.103125 112.1302002 -256.85273438 112.14309082 -255.56445312 112.15637207 C-254.2625 112.1898877 -252.96054688 112.22340332 -251.61914062 112.25793457 C-250.30171875 112.27598145 -248.98429687 112.29402832 -247.62695312 112.31262207 C-244.37361755 112.35977186 -241.12174438 112.42557413 -237.86914062 112.50793457 C-237.89008789 111.68067871 -237.91103516 110.85342285 -237.93261719 110.00109863 C-238.01575682 106.25350087 -238.06779593 102.50609708 -238.11914062 98.75793457 C-238.16941406 96.80500488 -238.16941406 96.80500488 -238.22070312 94.81262207 C-238.23359375 93.56223145 -238.24648437 92.31184082 -238.25976562 91.02355957 C-238.28071289 89.87145996 -238.30166016 88.71936035 -238.32324219 87.53234863 C-237.86914062 84.50793457 -237.86914062 84.50793457 -236.50378418 82.35423279 C-232.34884799 79.44254811 -228.2185841 79.92630705 -223.26074219 79.94274902 C-221.64054169 79.92500679 -221.64054169 79.92500679 -219.98760986 79.90690613 C-216.41145596 79.87396854 -212.83606134 79.87106235 -209.25976562 79.87121582 C-206.77357674 79.86090325 -204.28739086 79.84984045 -201.8012085 79.83805847 C-196.58581719 79.81860773 -191.37069412 79.81521068 -186.15527344 79.82165527 C-179.47887692 79.82968175 -172.80408471 79.78346169 -166.12790298 79.72576618 C-160.9907923 79.68875075 -155.85401659 79.68386587 -150.71678925 79.68803978 C-148.25604157 79.68516951 -145.79528015 79.67110776 -143.33466339 79.64556313 C-139.88719649 79.61354175 -136.44259215 79.62616371 -132.99511719 79.64978027 C-131.4767627 79.62145615 -131.4767627 79.62145615 -129.92773438 79.59255981 C-123.40928787 79.6985173 -120.10857792 81.12861932 -115.48701096 85.75892258 C-114.95311375 86.33609653 -114.41921654 86.91327049 -113.86914062 87.50793457 C-112.99386719 88.34574463 -112.11859375 89.18355469 -111.21679688 90.04675293 C-110.46269531 90.80609131 -109.70859375 91.56542969 -108.93164062 92.34777832 C-107.68447266 93.59978027 -107.68447266 93.59978027 -106.41210938 94.8770752 C-105.57292969 95.72463379 -104.73375 96.57219238 -103.86914062 97.44543457 C-102.99902344 98.32006348 -102.12890625 99.19469238 -101.23242188 100.0958252 C-99.10900513 102.23090906 -96.98797685 104.36830663 -94.86914062 106.50793457 C-94.865495 105.94052551 -94.86184937 105.37311646 -94.85809326 104.78851318 C-94.81628617 98.88337225 -94.74695377 92.97900987 -94.66162109 87.07434082 C-94.63339353 84.87064398 -94.61218792 82.66684557 -94.59814453 80.4630127 C-94.57674016 77.29516525 -94.53010164 74.12854149 -94.47851562 70.96105957 C-94.47728699 69.97551086 -94.47605835 68.98996216 -94.47479248 67.97454834 C-94.45507385 67.05389587 -94.43535522 66.13324341 -94.41503906 65.18469238 C-94.40615662 64.37638977 -94.39727417 63.56808716 -94.38812256 62.73529053 C-93.64310267 59.53782954 -92.53465125 58.41204287 -89.86914062 56.50793457 C-87.24795733 56.13338476 -85.053442 55.99982261 -82.43847656 56.05383301 C-81.69662109 56.0532489 -80.95476562 56.05266479 -80.19042969 56.05206299 C-77.74431161 56.05484432 -75.29942015 56.08593671 -72.85351562 56.11730957 C-71.15530055 56.12477183 -69.45707686 56.13046484 -67.7588501 56.13446045 C-63.29358053 56.14971806 -58.82883309 56.18900068 -54.36376953 56.23327637 C-49.80573591 56.2742265 -45.24761776 56.2924709 -40.68945312 56.31262207 C-31.74911981 56.35549504 -22.80917367 56.42374772 -13.86914062 56.50793457 C-13.87802307 55.86535706 -13.88690552 55.22277954 -13.89605713 54.56072998 C-13.98449711 47.87753182 -14.04486116 41.19449967 -14.08886719 34.51086426 C-14.10899226 32.01600392 -14.13629514 29.52119079 -14.17089844 27.02648926 C-14.21937519 23.44206089 -14.24210083 19.85825573 -14.25976562 16.27355957 C-14.28041077 15.15676819 -14.30105591 14.03997681 -14.32232666 12.88934326 C-14.32262878 11.84856628 -14.32293091 10.80778931 -14.32324219 9.73547363 C-14.33212463 8.82058167 -14.34100708 7.9056897 -14.35015869 6.96307373 C-12.84393611 -0.72475816 -6.36490487 -0.05974627 0 0 Z " fill="#000000" transform="translate(269.869140625,47.4920654296875)"/>
<path d="M0 0 C13.55006858 -0.89245953 27.09286803 -1.56124222 40.66664314 -1.96886253 C46.97634325 -2.16487774 53.26558262 -2.42860834 59.56347656 -2.86669922 C104.15206261 -5.88874406 104.15206261 -5.88874406 120.96386719 8.59277344 C130.15214777 17.00870512 138.23339984 26.49453264 145.69958305 36.4531002 C146.93855792 38.13464059 146.93855792 38.13464059 149 39 C150.96885692 39.09945532 152.94112889 39.13345008 154.91249084 39.13803101 C156.172771 39.14348434 157.43305115 39.14893768 158.73152161 39.15455627 C160.1361999 39.15567614 161.54087825 39.15672665 162.94555664 39.15771484 C164.41891634 39.16238214 165.8922746 39.16752557 167.3656311 39.17311096 C170.54407173 39.18440324 173.72250292 39.19283216 176.90095711 39.19923019 C181.93176392 39.20990568 186.96250335 39.23015138 191.99327087 39.25234985 C206.30106504 39.31428259 220.60885613 39.3682239 234.91674805 39.40136719 C242.81475285 39.41974286 250.7126456 39.44871951 258.61056799 39.4893719 C262.78873231 39.51039996 266.96675564 39.52589312 271.14497566 39.52817917 C275.08077781 39.53033494 279.0162869 39.5462984 282.95199966 39.57256889 C284.39144332 39.57972928 285.8309226 39.58187878 287.27038002 39.57846642 C295.84451166 39.56139755 303.96302418 39.57555 311.26953125 44.54296875 C311.77871094 45.08566406 312.28789062 45.62835938 312.8125 46.1875 C313.33457031 46.71730469 313.85664063 47.24710938 314.39453125 47.79296875 C318.72638345 53.74794805 320.59772273 58.96578488 320.50793457 66.3044281 C320.51729451 67.49959513 320.51729451 67.49959513 320.52684355 68.71890694 C320.54269978 71.36816979 320.53019864 74.01650308 320.51757812 76.66577148 C320.52300257 78.5735121 320.53012704 80.48124852 320.53881836 82.38897705 C320.5570174 87.55640313 320.54999792 92.72350892 320.53730202 97.89094043 C320.5271552 103.30662046 320.53657251 108.72227357 320.54284668 114.13795471 C320.55011879 123.23272612 320.54054742 132.32736749 320.52148438 141.42211914 C320.49972308 151.92522149 320.50676345 162.42801314 320.52879 172.93110794 C320.54696418 181.95981226 320.54949224 190.98842326 320.53903532 200.01713997 C320.53281067 205.40472729 320.53193636 210.79216877 320.54518127 216.17974663 C320.55676825 221.2466772 320.54866194 226.31320879 320.52560425 231.38009644 C320.52033209 233.2355947 320.52180526 235.09112675 320.53065491 236.9466114 C320.61530405 256.50359245 320.61530405 256.50359245 313.8515625 264.55859375 C313.11679687 265.17863281 312.38203125 265.79867188 311.625 266.4375 C310.89539063 267.07558594 310.16578125 267.71367187 309.4140625 268.37109375 C303.18225608 272.57605051 296.83171625 272.288232 289.58853149 272.26742554 C287.85584048 272.27422221 287.85584048 272.27422221 286.08814561 272.28115618 C282.8904579 272.2916137 279.6929119 272.2931282 276.49521255 272.29076743 C273.04317368 272.29035874 269.59116817 272.30140331 266.1391449 272.31088257 C259.37945343 272.32748166 252.61979684 272.3329916 245.86008669 272.33410732 C240.36496501 272.33505823 234.86985483 272.33917063 229.37473679 272.34550858 C213.79018461 272.36311728 198.20565996 272.37234792 182.62109776 272.37084763 C181.78127222 272.37076772 180.94144668 272.3706878 180.07617188 272.37060547 C178.81489314 272.37048283 178.81489314 272.37048283 177.52813403 272.37035771 C163.89920149 272.3695447 150.27037943 272.38868694 136.64147885 272.4168822 C122.64264877 272.44561397 108.64387257 272.45942237 94.64501226 272.45769465 C86.78759238 272.45703089 78.93028836 272.46251695 71.07289505 272.48405075 C64.38350556 272.50226633 57.69428448 272.50660679 51.00488092 272.4930319 C47.5931813 272.48650432 44.18180472 272.48637699 40.77013588 272.5037384 C37.06827998 272.51914809 33.36727309 272.50990959 29.66543579 272.49447632 C28.59169287 272.50476344 27.51794996 272.51505057 26.41166937 272.52564943 C18.73431094 272.45489678 13.36473907 270.93747061 7.5390625 265.8515625 C6.90742188 265.11679687 6.27578125 264.38203125 5.625 263.625 C4.97789063 262.89539063 4.33078125 262.16578125 3.6640625 261.4140625 C-0.40730053 255.50771895 -0.2820902 249.57515693 -0.24050903 242.6736145 C-0.24221788 241.63534921 -0.24392673 240.59708391 -0.24568737 239.52735603 C-0.24898066 236.04957982 -0.23798103 232.5719967 -0.22705078 229.09423828 C-0.22648663 226.60077418 -0.2268033 224.10730974 -0.22793579 221.61384583 C-0.22839118 216.24622237 -0.22271965 210.87865898 -0.21146011 205.51105118 C-0.19519145 197.75044466 -0.18999571 189.98986165 -0.18748413 182.22923993 C-0.18310917 169.6375138 -0.16980547 157.04581361 -0.15087891 144.45410156 C-0.13251495 132.22395965 -0.11836097 119.99382479 -0.10986328 107.76367188 C-0.10933783 107.00953833 -0.10881239 106.25540479 -0.10827102 105.47841872 C-0.1056609 101.69507255 -0.1031335 97.91172632 -0.10064721 94.12838006 C-0.07992091 62.75223451 -0.04455191 31.3761212 0 0 Z " fill="#FEC146" transform="translate(16,176)"/>
<path d="M0 0 C73.92 0 147.84 0 224 0 C224 97.68 224 195.36 224 296 C202.88 296 181.76 296 160 296 C159.98541748 290.61010742 159.97083496 285.22021484 159.95581055 279.66699219 C159.90545084 261.84943344 159.83900249 244.03196145 159.76428509 226.21448898 C159.71938061 215.41285937 159.67995363 204.61126234 159.65356445 193.80957031 C159.63054105 184.39131625 159.59709459 174.97316573 159.55129844 165.55499387 C159.52742475 160.57132272 159.50865766 155.58775376 159.50238609 150.60402679 C159.49630869 145.90574911 159.47621354 141.20773269 159.44572449 136.509552 C159.43698664 134.79239979 159.43321278 133.07521338 159.43499184 131.35803986 C159.44526549 116.85608119 158.45468608 103.11985807 148.11328125 91.96484375 C137.6290105 82.26328869 126.35468085 80.70747983 112.50366211 80.68115234 C110.67289627 80.66608391 110.67289627 80.66608391 108.80514526 80.65071106 C105.48549935 80.62526051 102.16602149 80.60831997 98.84631801 80.59528303 C95.36694366 80.57956674 91.88765396 80.55280401 88.40834045 80.5272522 C81.83192711 80.48061392 75.25549758 80.44379787 68.67900425 80.41057932 C60.45065775 80.36848621 52.22240682 80.31315974 43.99414062 80.2578125 C29.32947975 80.15922902 14.66479569 80.08054086 0 80 C0 53.6 0 27.2 0 0 Z " fill="#F1F5FB" transform="translate(192,120)"/>
<path d="M0 0 C73.92 0 147.84 0 224 0 C224 97.68 224 195.36 224 296 C202.88 296 181.76 296 160 296 C159.98018066 288.41217529 159.96036133 280.82435059 159.93994141 273.0065918 C159.87517443 248.74618074 159.80064475 224.48580914 159.71994839 200.22544615 C159.70742907 196.45897281 159.69499637 192.69249919 159.68261719 188.92602539 C159.68015119 188.17616801 159.6776852 187.42631064 159.67514448 186.65373031 C159.63538856 174.50193271 159.60265378 162.35012577 159.57250018 150.19830098 C159.54141879 137.73535162 159.50282367 125.27244197 159.45720994 112.80953723 C159.42928745 105.11529206 159.40727079 97.42107605 159.39273749 89.72679374 C159.3809786 83.83318621 159.35878092 77.93964752 159.33261681 72.04608536 C159.32351475 69.62368245 159.31784472 67.20126396 159.31578636 64.77884483 C159.31248235 61.48235017 159.29705553 58.18613284 159.2784729 54.88969421 C159.281375 53.43785997 159.281375 53.43785997 159.28433573 51.95669574 C159.27687024 51.0763903 159.26940475 50.19608487 159.26171303 49.28910351 C159.25943471 48.52776425 159.25715638 47.76642498 159.25480902 46.98201483 C159.10812071 44.68109814 159.10812071 44.68109814 157 42 C153.70828099 40.90276033 151.25975977 40.86152833 147.7928009 40.84178162 C146.49289719 40.8319928 145.19299347 40.82220398 143.85369873 40.81211853 C142.41003455 40.80621431 140.96636998 40.80040387 139.52270508 40.79467773 C138.00503777 40.78509928 136.48737313 40.77508922 134.9697113 40.76467896 C130.84607059 40.73762028 126.72241842 40.71661592 122.59873796 40.69667697 C118.29055072 40.67482337 113.98239884 40.64743161 109.67424011 40.62062073 C101.51452049 40.57068538 93.35478125 40.52574967 85.19502324 40.48259836 C75.90611071 40.43323319 66.61723366 40.37831239 57.32835543 40.32291877 C38.21893507 40.20908579 19.10948213 40.10298305 0 40 C0 26.8 0 13.6 0 0 Z " fill="#64B0FB" transform="translate(272,64)"/>
<path d="M0 0 C1.25335648 -0.0112088 2.50671295 -0.0224176 3.79804993 -0.03396606 C5.17929541 -0.0210561 6.56053626 -0.00764202 7.94177246 0.00622559 C9.40236556 0.00272308 10.86295485 -0.00293697 12.3235321 -0.0105896 C16.28444302 -0.02482899 20.24465901 -0.00778496 24.20550346 0.01569557 C28.35249436 0.03581408 32.49945667 0.0299245 36.64648438 0.02758789 C43.61042735 0.02764145 50.5740989 0.04739183 57.53796387 0.07946777 C65.58658225 0.11636019 73.63484511 0.12514323 81.68353701 0.11817026 C89.4293882 0.11186269 97.1751176 0.12262425 104.92094421 0.14213562 C108.21589393 0.15030552 111.51078136 0.15301992 114.80574036 0.15144348 C118.68659242 0.15056384 122.56710719 0.16480184 126.44787025 0.19067001 C127.87125831 0.19782561 129.29468227 0.19991834 130.71808434 0.19655228 C132.6625838 0.19283137 134.60709037 0.20944302 136.55151367 0.22705078 C138.18302494 0.23264385 138.18302494 0.23264385 139.84749603 0.23834991 C143.1860126 0.67513452 145.07926517 1.63601755 147.77575684 3.62145996 C149.02532479 6.12059587 148.91617987 7.83786171 148.93688965 10.63439941 C148.94649719 11.67920975 148.95610474 12.72402008 148.96600342 13.80049133 C148.97237823 15.50044502 148.97237823 15.50044502 148.97888184 17.23474121 C148.98458191 18.39644333 148.99028198 19.55814545 148.99615479 20.75505066 C149.00561479 23.21726569 149.01214272 25.67949344 149.01599121 28.14172363 C149.02568994 31.90798069 149.05670192 35.67369062 149.08825684 39.43981934 C149.09478739 41.82979005 149.10003765 44.21976467 149.10388184 46.60974121 C149.11622864 47.73697098 149.12857544 48.86420074 149.14129639 50.02558899 C149.13829529 51.0798558 149.13529419 52.13412262 149.13220215 53.22033691 C149.13767059 54.60694267 149.13767059 54.60694267 149.14324951 56.02156067 C148.6947471 59.19457928 147.68848766 61.0658299 145.77575684 63.62145996 C142.53888557 64.70041705 140.19070441 64.75261528 136.78529358 64.76190186 C135.53324127 64.767612 134.28118896 64.77332214 132.99119568 64.77920532 C131.60110484 64.78045065 130.21101388 64.78157575 128.82092285 64.78259277 C127.35900751 64.78722134 125.89709339 64.79224605 124.43518066 64.79763794 C120.46207641 64.81075818 116.48898905 64.81720588 112.51586652 64.8216486 C110.03449542 64.82457925 107.55312895 64.828684 105.07176018 64.83315277 C97.31046907 64.84682522 89.54918852 64.85649375 81.7878862 64.86035466 C72.8237996 64.86483831 63.85986526 64.88240141 54.89582497 64.91135526 C47.96921683 64.93295311 41.04265159 64.94305789 34.11601013 64.94439578 C29.97767182 64.94544495 25.83947669 64.95137675 21.70117378 64.96921539 C17.80974702 64.98566393 13.91857158 64.9878674 10.0271225 64.97907639 C8.59845495 64.97830434 7.16977407 64.98267077 5.74114037 64.99253464 C3.79186897 65.00520472 1.84249711 64.99760365 -0.10679626 64.98895264 C-1.19798987 64.9904192 -2.28918348 64.99188576 -3.41344357 64.99339676 C-6.60097484 64.57160924 -7.95555636 63.86904477 -10.22424316 61.62145996 C-11.21674153 58.64396486 -11.37360673 56.60672062 -11.41711426 53.49499512 C-11.44120865 51.92789291 -11.44120865 51.92789291 -11.46578979 50.32913208 C-11.51026659 45.56134733 -11.55128621 40.79370041 -11.57434082 36.02575684 C-11.59091941 33.50971235 -11.61823398 30.99371532 -11.65637207 28.47790527 C-11.71106533 24.85102905 -11.73300238 21.2252552 -11.74768066 17.59802246 C-11.77035004 16.47392975 -11.79301941 15.34983704 -11.81637573 14.19168091 C-11.8135257 13.14064178 -11.81067566 12.08960266 -11.80773926 11.00671387 C-11.81582611 10.08532623 -11.82391296 9.1639386 -11.83224487 8.21463013 C-10.37729664 2.00917329 -5.92782398 -0.00388317 0 0 Z " fill="#000000" transform="translate(43.2242431640625,367.3785400390625)"/>
<path d="M0 0 C63.36 0 126.72 0 192 0 C192 5.28 192 10.56 192 16 C171.54 16.33 151.08 16.66 130 17 C133.96 18.65 137.92 20.3 142 22 C150.628075 27.67354808 156.67692924 35.92156393 159.05807495 45.9961853 C160.65240319 54.2767316 160.26148825 62.73098881 160.22705078 71.12744141 C160.22648596 73.05992629 160.22680461 74.9924116 160.22793579 76.92489624 C160.22850754 82.14731602 160.21678204 87.36964316 160.20278788 92.59204149 C160.19025084 98.05861976 160.18910768 103.52520035 160.18673706 108.99179077 C160.18053102 119.33294058 160.16413206 129.6740479 160.14403808 140.01517904 C160.1216518 151.79268998 160.11067879 163.57020299 160.10064721 175.34772992 C160.07976505 199.5651776 160.04420133 223.78258462 160 248 C154.72 248 149.44 248 144 248 C143.99413376 245.77159363 143.98826752 243.54318726 143.98222351 241.24725342 C143.9255018 220.23626188 143.85239403 199.22537269 143.76428509 178.21448898 C143.71938061 167.41285937 143.67995363 156.61126234 143.65356445 145.80957031 C143.63054105 136.39131625 143.59709459 126.97316573 143.55129844 117.55499387 C143.52742475 112.57132272 143.50865766 107.58775376 143.50238609 102.60402679 C143.49630869 97.90574911 143.47621354 93.20773269 143.44572449 88.509552 C143.43698664 86.79239979 143.43321278 85.07521338 143.43499184 83.35803986 C143.44526549 68.85608119 142.45468608 55.11985807 132.11328125 43.96484375 C121.6290105 34.26328869 110.35468085 32.70747983 96.50366211 32.68115234 C94.67289627 32.66608391 94.67289627 32.66608391 92.80514526 32.65071106 C89.48549935 32.62526051 86.16602149 32.60831997 82.84631801 32.59528303 C79.36694366 32.57956674 75.88765396 32.55280401 72.40834045 32.5272522 C65.83192711 32.48061392 59.25549758 32.44379787 52.67900425 32.41057932 C45.18674529 32.37225175 37.69457166 32.32286975 30.20238483 32.27259517 C14.80165073 32.16949791 -0.59913058 32.08055798 -16 32 C-16 26.72 -16 21.44 -16 16 C-10.72 16 -5.44 16 0 16 C0 10.72 0 5.44 0 0 Z " fill="#CCD1E0" transform="translate(208,168)"/>
<path d="M0 0 C20.16714661 -0.06953319 40.33425921 -0.12302801 60.50150108 -0.15543652 C69.86611393 -0.17088626 79.23065078 -0.1919395 88.59521484 -0.22631836 C96.76013511 -0.25627877 104.92500033 -0.27558876 113.08997405 -0.28226548 C117.41076387 -0.28616651 121.73139625 -0.2952948 126.05213547 -0.31719017 C130.12491454 -0.3376604 134.19747237 -0.34381266 138.270298 -0.33932304 C139.75933792 -0.34014356 141.24838579 -0.34604622 142.73738098 -0.35761642 C154.86829734 -0.44719918 165.56542688 0.72215615 175 9 C182.46434706 17.50739993 184.46564427 27.42063247 184.36076355 38.46572876 C184.36332682 39.47065978 184.3658901 40.47559081 184.36853105 41.51097429 C184.3734417 44.85204731 184.35702083 48.19266056 184.34057617 51.53369141 C184.33972931 53.93907663 184.34020619 56.34446264 184.34190369 58.74984741 C184.34267372 64.58660226 184.32970862 70.42320844 184.31059071 76.25992937 C184.28907877 83.05601657 184.28464946 89.85208313 184.2812262 96.6481996 C184.27467267 108.76631149 184.25474144 120.88436253 184.22631836 133.00244141 C184.19874927 144.76871437 184.17752967 156.53497076 184.16479492 168.30126953 C184.16361267 169.39056906 184.16361267 169.39056906 184.16240653 170.50187464 C184.1584912 174.14528158 184.15470013 177.78868863 184.15097082 181.43209577 C184.11990914 211.62144205 184.06627335 241.81070927 184 272 C176.08 272 168.16 272 160 272 C159.99191315 268.86211472 159.98382629 265.72422943 159.97549438 262.49125671 C159.90046679 233.73595042 159.81559591 204.98069071 159.71994839 176.22544615 C159.70742907 172.45897281 159.69499637 168.69249919 159.68261719 164.92602539 C159.68015119 164.17616801 159.6776852 163.42631064 159.67514448 162.65373031 C159.63538856 150.50193271 159.60265378 138.35012577 159.57250018 126.19830098 C159.54141879 113.73535162 159.50282367 101.27244197 159.45720994 88.80953723 C159.42928745 81.11529206 159.40727079 73.42107605 159.39273749 65.72679374 C159.3809786 59.83318621 159.35878092 53.93964752 159.33261681 48.04608536 C159.32351475 45.62368245 159.31784472 43.20126396 159.31578636 40.77884483 C159.31248235 37.48235017 159.29705553 34.18613284 159.2784729 30.88969421 C159.281375 29.43785997 159.281375 29.43785997 159.28433573 27.95669574 C159.27687024 27.0763903 159.26940475 26.19608487 159.26171303 25.28910351 C159.25943471 24.52776425 159.25715638 23.76642498 159.25480902 22.98201483 C159.10812071 20.68109814 159.10812071 20.68109814 157 18 C153.70828099 16.90276033 151.25975977 16.86152833 147.7928009 16.84178162 C146.49289719 16.8319928 145.19299347 16.82220398 143.85369873 16.81211853 C142.41003455 16.80621431 140.96636998 16.80040387 139.52270508 16.79467773 C138.00503777 16.78509928 136.48737313 16.77508922 134.9697113 16.76467896 C130.84607059 16.73762028 126.72241842 16.71661592 122.59873796 16.69667697 C118.29055072 16.67482337 113.98239884 16.64743161 109.67424011 16.62062073 C101.51452049 16.57068538 93.35478125 16.52574967 85.19502324 16.48259836 C75.90611071 16.43323319 66.61723366 16.37831239 57.32835543 16.32291877 C38.21893634 16.2090858 19.10948329 16.10244668 0 16 C0 10.72 0 5.44 0 0 Z " fill="#4A97F6" transform="translate(272,88)"/>
<path d="M0 0 C7.92 0 15.84 0 24 0 C24 63.36 24 126.72 24 192 C22.02 192.99 20.04 193.98 18 195 C16.74695386 197.50609228 16.86629236 199.22443266 16.85473633 202.02880859 C16.84835648 203.07684662 16.84197662 204.12488464 16.83540344 205.2046814 C16.83429062 206.34112091 16.8331778 207.47756042 16.83203125 208.6484375 C16.82870285 209.81251129 16.82537445 210.97658508 16.82194519 212.17593384 C16.81687476 214.6423503 16.8145369 217.10877364 16.81469727 219.57519531 C16.81251311 223.35232849 16.79436474 227.12916863 16.77539062 230.90625 C16.7724563 233.29947816 16.77047177 235.69270772 16.76953125 238.0859375 C16.76234573 239.21832855 16.75516022 240.3507196 16.74775696 241.51742554 C16.75083359 242.57176788 16.75391022 243.62611023 16.75708008 244.71240234 C16.75565506 245.63902679 16.75423004 246.56565125 16.75276184 247.52035522 C17.01940055 250.19457548 17.48173625 251.78594851 19 254 C20.11375 254.391875 21.2275 254.78375 22.375 255.1875 C24.86520853 256.12583945 25.80173508 256.67533317 27.20703125 258.9765625 C27.83993881 260.48444585 28.43437115 262.00933336 28.98046875 263.55078125 C30.27310004 266.65606791 32.08145504 269.24730506 34 272 C15.7078165 272.79917307 15.7078165 272.79917307 10 268 C4.67725573 262.97296374 0.43985209 258.39239063 -0.18033624 250.78915811 C-0.25215959 248.08195315 -0.25682524 245.38173998 -0.24050903 242.6736145 C-0.24221788 241.63534921 -0.24392673 240.59708391 -0.24568737 239.52735603 C-0.24898066 236.04957982 -0.23798103 232.5719967 -0.22705078 229.09423828 C-0.22648663 226.60077418 -0.2268033 224.10730974 -0.22793579 221.61384583 C-0.22839118 216.24622237 -0.22271965 210.87865898 -0.21146011 205.51105118 C-0.19519145 197.75044466 -0.18999571 189.98986165 -0.18748413 182.22923993 C-0.18310917 169.6375138 -0.16980547 157.04581361 -0.15087891 144.45410156 C-0.13251495 132.22395965 -0.11836097 119.99382479 -0.10986328 107.76367188 C-0.10933783 107.00953833 -0.10881239 106.25540479 -0.10827102 105.47841872 C-0.1056609 101.69507255 -0.1031335 97.91172632 -0.10064721 94.12838006 C-0.07992091 62.75223392 -0.04414956 31.37612233 0 0 Z " fill="#FEA325" transform="translate(16,176)"/>
<path d="M0 0 C42.24 0 84.48 0 128 0 C128 10.56 128 21.12 128 32 C85.76 32 43.52 32 0 32 C0 21.44 0 10.88 0 0 Z " fill="#CDD2E1" transform="translate(48,384)"/>
<path d="M0 0 C63.36 0 126.72 0 192 0 C192 5.28 192 10.56 192 16 C128.64 16 65.28 16 0 16 C0 10.72 0 5.44 0 0 Z " fill="#000000" transform="translate(208,168)"/>
<path d="M0 0 C90.41409611 -6.46236645 90.41409611 -6.46236645 109.63017273 9.22776794 C112.00802768 11.44686902 114.17208927 13.73995994 116.3125 16.1875 C117.32094467 17.30869736 117.32094467 17.30869736 118.34976196 18.45254517 C127.25159724 28.87675237 129.3977386 38.55567548 128.41088867 52.06762695 C128.20749878 54.01415161 128.20749878 54.01415161 128 56 C124.9929506 56.29011453 123.48202116 56.34201165 120.97628784 54.56410217 C120.3213736 53.89205246 119.66645935 53.22000275 118.99169922 52.52758789 C118.24097137 51.77002701 117.49024353 51.01246613 116.71676636 50.23194885 C115.92078033 49.40388229 115.12479431 48.57581573 114.3046875 47.72265625 C113.47542755 46.88157822 112.6461676 46.04050018 111.79177856 45.17393494 C109.14077945 42.48166657 106.50717498 39.77316497 103.875 37.0625 C101.23317279 34.35804637 98.58783307 31.65720539 95.9367981 28.96177673 C94.2870076 27.28269675 92.6430084 25.59790347 91.00534058 23.90699768 C90.26091705 23.14628464 89.51649353 22.38557159 88.74951172 21.60180664 C88.09618866 20.92896133 87.4428656 20.25611603 86.76974487 19.56288147 C83.08881458 16.3122108 78.76495997 16.82994924 74.13208008 16.79467773 C73.33184921 16.78477814 72.53161835 16.77487854 71.70713806 16.76467896 C69.06129925 16.73308397 66.41544248 16.70831442 63.76953125 16.68359375 C61.93535393 16.6630225 60.10118133 16.64202598 58.26701355 16.62062073 C53.4386884 16.56541777 48.61032058 16.51600063 43.78192139 16.46777344 C38.85522666 16.41754548 33.92859391 16.36186616 29.00195312 16.30664062 C19.33468638 16.19908074 9.66736702 16.09813465 0 16 C0 10.72 0 5.44 0 0 Z " fill="#FEA325" transform="translate(48,144)"/>
<path d="M0 0 C42.24 0 84.48 0 128 0 C128 5.28 128 10.56 128 16 C122.72 16 117.44 16 112 16 C112 13.36 112 10.72 112 8 C90.88 8 69.76 8 48 8 C48 10.64 48 13.28 48 16 C42.72 16 37.44 16 32 16 C32 13.36 32 10.72 32 8 C26.72 8 21.44 8 16 8 C16 10.64 16 13.28 16 16 C10.72 16 5.44 16 0 16 C0 10.72 0 5.44 0 0 Z " fill="#F2F6FC" transform="translate(48,384)"/>
<path d="M0 0 C7.92 0 15.84 0 24 0 C24 15.84 24 31.68 24 48 C16.08 48 8.16 48 0 48 C0 32.16 0 16.32 0 0 Z " fill="#FFA426" transform="translate(192,376)"/>
<path d="M0 0 C21.12 0 42.24 0 64 0 C64 5.28 64 10.56 64 16 C42.88 16 21.76 16 0 16 C0 10.72 0 5.44 0 0 Z " fill="#000000" transform="translate(96,392)"/>
<path d="M0 0 C21.12 0 42.24 0 64 0 C64 5.28 64 10.56 64 16 C42.88 16 21.76 16 0 16 C0 10.72 0 5.44 0 0 Z " fill="#000000" transform="translate(240,136)"/>
<path d="M0 0 C12.50557744 -1.1828104 25.0092492 -1.9847717 37.5625 -2.4375 C38.48062092 -2.47073742 39.39874184 -2.50397484 40.3446846 -2.53821945 C61.49972408 -3.21415122 80.16605435 -3.74601173 96.49491882 11.23051453 C103.01846473 17.8282752 109.00863295 25.16286861 114.07699585 32.94113159 C116.92536164 37.35904599 116.92536164 37.35904599 121.40896606 39.75296021 C123.64624754 40.00886849 125.75306204 40.1094618 128 40 C128 42.64 128 45.28 128 48 C124.9929506 48.29011453 123.48202116 48.34201165 120.97628784 46.56410217 C120.3213736 45.89205246 119.66645935 45.22000275 118.99169922 44.52758789 C118.24097137 43.77002701 117.49024353 43.01246613 116.71676636 42.23194885 C115.92078033 41.40388229 115.12479431 40.57581573 114.3046875 39.72265625 C113.47542755 38.88157822 112.6461676 38.04050018 111.79177856 37.17393494 C109.14077945 34.48166657 106.50717498 31.77316497 103.875 29.0625 C101.23317279 26.35804637 98.58783307 23.65720539 95.9367981 20.96177673 C94.2870076 19.28269675 92.6430084 17.59790347 91.00534058 15.90699768 C90.26091705 15.14628464 89.51649353 14.38557159 88.74951172 13.60180664 C88.09618866 12.92896133 87.4428656 12.25611603 86.76974487 11.56288147 C83.08881458 8.3122108 78.76495997 8.82994924 74.13208008 8.79467773 C73.33184921 8.78477814 72.53161835 8.77487854 71.70713806 8.76467896 C69.06129925 8.73308397 66.41544248 8.70831442 63.76953125 8.68359375 C61.93535393 8.6630225 60.10118133 8.64202598 58.26701355 8.62062073 C53.4386884 8.56541777 48.61032058 8.51600063 43.78192139 8.46777344 C38.85522666 8.41754548 33.92859391 8.36186616 29.00195312 8.30664062 C19.33468836 8.19908076 9.66736978 8.09763093 0 8 C0 5.36 0 2.72 0 0 Z " fill="#FD8104" transform="translate(48,152)"/>
<path d="M0 0 C5.28 0 10.56 0 16 0 C16 5.28 16 10.56 16 16 C10.72 16 5.44 16 0 16 C0 10.72 0 5.44 0 0 Z " fill="#000000" transform="translate(64,392)"/>
<path d="M0 0 C5.28 0 10.56 0 16 0 C16 5.28 16 10.56 16 16 C10.72 16 5.44 16 0 16 C0 10.72 0 5.44 0 0 Z " fill="#000000" transform="translate(208,136)"/>
</svg>
