<?xml version="1.0" encoding="UTF-8"?>
<svg version="1.1" xmlns="http://www.w3.org/2000/svg" width="512" height="512">
<path d="M0 0 C0.84113342 -0.00860046 1.68226685 -0.01720093 2.54888916 -0.02606201 C3.46329773 -0.03032196 4.3777063 -0.03458191 5.31982422 -0.03897095 C6.77409821 -0.05123718 6.77409821 -0.05123718 8.25775146 -0.06375122 C11.46333196 -0.08854888 14.6688685 -0.10510249 17.87451172 -0.11953735 C19.51640472 -0.12752287 19.51640472 -0.12752287 21.19146729 -0.13566971 C26.97968851 -0.1623705 32.76788834 -0.1817595 38.55615234 -0.19619751 C43.35191805 -0.20956527 48.14726115 -0.23747472 52.94287109 -0.27822876 C58.73116103 -0.32741839 64.5190661 -0.35230099 70.30755615 -0.35942459 C72.5148336 -0.36615416 74.72210189 -0.38142014 76.92926025 -0.4053154 C80.01303359 -0.43680966 83.09530839 -0.43702778 86.17919922 -0.42959595 C87.55081207 -0.45420395 87.55081207 -0.45420395 88.95013428 -0.47930908 C95.09908773 -0.41849833 95.09908773 -0.41849833 98.34765625 2.44036865 C99.74951172 5.15390015 99.74951172 5.15390015 99.74951172 9.15390015 C106.01951172 9.15390015 112.28951172 9.15390015 118.74951172 9.15390015 C119.07951172 6.84390015 119.40951172 4.53390015 119.74951172 2.15390015 C123.02772644 -0.03157634 123.98114814 -0.09944578 127.78173828 -0.11352539 C128.82173477 -0.12205536 129.86173126 -0.13058533 130.9332428 -0.13937378 C132.07401779 -0.13846741 133.21479279 -0.13756104 134.39013672 -0.1366272 C136.19308449 -0.14670303 136.19308449 -0.14670303 138.03245544 -0.15698242 C141.33257502 -0.17274726 144.6324429 -0.17933906 147.93258286 -0.18061399 C149.99792303 -0.18203626 152.06323692 -0.18630754 154.12857056 -0.19160843 C161.34484527 -0.21012459 168.56104608 -0.21827812 175.77734375 -0.21670532 C182.4841382 -0.21550735 189.19060903 -0.23653739 195.8973217 -0.26819265 C201.66737302 -0.29444754 207.43731938 -0.3050686 213.20742989 -0.3037945 C216.64796434 -0.30328704 220.088212 -0.30884771 223.52868652 -0.3301506 C227.37730296 -0.3498456 231.22509954 -0.34395636 235.07373047 -0.3319397 C236.19831161 -0.34317871 237.32289276 -0.35441772 238.48155212 -0.36599731 C251.08217465 -0.26651416 261.05761723 4.24013293 270.43701172 12.52890015 C278.74834757 21.96338949 283.88095627 31.38699981 283.86976624 44.2219696 C283.87182823 46.04973686 283.87182823 46.04973686 283.87393188 47.91442871 C283.87039325 49.25637842 283.86675845 50.59832788 283.86303711 51.9402771 C283.8627549 53.35971576 283.86291363 54.77915456 283.86347961 56.19859314 C283.86376627 60.04529464 283.85789077 63.8919649 283.85090566 67.73865914 C283.84465025 71.76120104 283.84406659 75.78374366 283.84288025 79.80628967 C283.83977339 87.42056303 283.83156868 95.03482201 283.82153076 102.64908904 C283.81034961 111.31892923 283.80485412 119.9887701 283.79983532 128.65861571 C283.78938554 146.49038533 283.77179857 164.32214158 283.74951172 182.15390015 C284.550513 182.1450177 285.35151428 182.13613525 286.17678833 182.12698364 C293.73898347 182.04671367 301.30097098 181.98587315 308.86348152 181.94665146 C312.75113275 181.92580895 316.63843087 181.89755334 320.52587891 181.85214233 C324.28009366 181.80856396 328.03396957 181.78473795 331.78841782 181.77439117 C333.21813158 181.76702116 334.64782755 181.75262901 336.07739639 181.73097992 C338.08526653 181.70179254 340.09348029 181.70026495 342.1015625 181.69979858 C343.81365402 181.68647491 343.81365402 181.68647491 345.56033325 181.67288208 C349.53258222 182.27200927 351.65938136 183.62019164 354.74951172 186.15390015 C357.08208439 189.36745723 357.00482937 192.31200232 357.01693726 196.2131958 C357.02973221 198.07637955 357.02973221 198.07637955 357.04278564 199.97720337 C357.04208664 201.35104383 357.04116359 202.72488419 357.04003906 204.09872437 C357.04602439 205.54769233 357.05282995 206.9966571 357.06039429 208.44561768 C357.07806105 212.37955957 357.08274995 216.31341445 357.08402586 220.24739218 C357.08544763 222.70584232 357.08971771 225.16427035 357.09502029 227.622715 C357.11352277 236.20132095 357.12169063 244.77986475 357.12011719 253.35848999 C357.1189157 261.35198676 357.14001868 269.34521355 357.17160451 277.338642 C357.19776562 284.20416529 357.20848456 291.0696004 357.20720637 297.93517315 C357.20669668 302.0344734 357.21238319 306.13353372 357.23356247 310.23278427 C357.25294226 314.08901157 357.25307147 317.94477 357.23852921 321.80101395 C357.23643966 323.21432938 357.24115083 324.62767414 357.25325012 326.04093933 C357.34928215 338.03732575 357.34928215 338.03732575 354.96914673 341.91662598 C351.85693806 345.05356697 350.21847564 346.0340837 345.80084229 346.39440918 C344.65500671 346.38996796 343.50917114 346.38552673 342.32861328 346.38095093 C340.37704315 346.38072433 340.37704315 346.38072433 338.38604736 346.38049316 C336.97074225 346.37028061 335.55543871 346.35984863 334.14013672 346.34921265 C332.68853958 346.34548086 331.23693992 346.34263467 329.78533936 346.34063721 C325.97126264 346.33301379 322.1573391 346.3133765 318.34332275 346.29122925 C314.44879223 346.27074293 310.55423688 346.26162954 306.65966797 346.2515564 C299.02287952 346.2301293 291.38621711 346.19600906 283.74951172 346.15390015 C283.75319889 346.80159457 283.75688606 347.449289 283.76068497 348.11661053 C283.84928935 363.92694858 283.91534388 379.73719943 283.95676041 395.54772472 C283.97732506 403.19380334 284.00532785 410.83971552 284.05126953 418.48568726 C284.09132532 425.15530321 284.11698876 431.82479854 284.1258657 438.49453145 C284.13104902 442.02128346 284.1431016 445.54769058 284.17243195 449.07433128 C284.20502305 453.02563986 284.20545921 456.97662094 284.20361328 460.92807007 C284.21799438 462.07822601 284.23237549 463.22838196 284.24719238 464.41339111 C284.17982522 477.82741461 280.23794828 488.81172194 271.37451172 498.84140015 C262.01126437 507.08997519 253.18095036 512.25973848 240.49987793 512.30107117 C239.76832662 512.30474786 239.03677531 512.30842454 238.28305578 512.31221265 C235.83111209 512.32322823 233.3792108 512.32708963 230.92724609 512.3309021 C229.16962042 512.3371681 227.41199607 512.34381502 225.65437317 512.35081482 C219.88401203 512.37183218 214.11365069 512.38221142 208.34326172 512.3921814 C206.35723354 512.39622908 204.3712055 512.40034601 202.38517761 512.40453148 C193.0594599 512.42357387 183.73375009 512.43780988 174.40801668 512.44614345 C163.63558771 512.45592865 152.86336352 512.48228553 142.09100676 512.52264434 C133.76736381 512.55276199 125.44377973 512.56760797 117.12008333 512.57092446 C112.14671013 512.5732789 107.17355595 512.58229115 102.20024109 512.60738564 C97.52492924 512.63059691 92.84998175 512.63492775 88.1746273 512.62462425 C86.45730569 512.62412717 84.73996654 512.63049819 83.02269936 512.6441803 C80.6810737 512.66179594 78.34077058 512.65484551 75.99914551 512.64164734 C74.6880204 512.64403569 73.37689529 512.64642405 72.02603912 512.64888477 C68.74951172 512.15390015 68.74951172 512.15390015 66.29640961 510.43591595 C64.74951172 508.15390015 64.74951172 508.15390015 64.74951172 503.15390015 C58.47951172 503.15390015 52.20951172 503.15390015 45.74951172 503.15390015 C45.41951172 505.13390015 45.08951172 507.11390015 44.74951172 509.15390015 C43.19696431 511.38321361 42.38566345 512.03259493 39.71643066 512.5415802 C38.93908569 512.54698318 38.16174072 512.55238617 37.36083984 512.55795288 C36.47561646 512.57063705 35.59039307 512.58332123 34.67834473 512.59638977 C33.72214233 512.59345413 32.76593994 512.59051849 31.78076172 512.5874939 C30.7900769 512.59273575 29.79939209 512.5979776 28.77868652 512.6033783 C26.67717424 512.6098075 24.57562601 512.60844994 22.47412109 512.59994507 C19.289204 512.59150533 16.10612328 512.62007 12.92138672 512.65194702 C10.87451225 512.65356112 8.82763465 512.65297753 6.78076172 512.6499939 C5.84075317 512.66122787 4.90074463 512.67246185 3.93225098 512.68403625 C-8.11914475 512.55986171 -18.01258347 507.66646719 -26.93798828 499.77890015 C-35.02159466 490.60291452 -40.38304062 481.22473516 -40.3707428 468.69325256 C-40.37280479 467.067425 -40.37280479 467.067425 -40.37490845 465.40875244 C-40.36951553 463.64037521 -40.36951553 463.64037521 -40.36401367 461.83627319 C-40.3641597 460.58708603 -40.36430573 459.33789886 -40.36445618 458.05085754 C-40.36387963 454.63388342 -40.35887052 451.21697001 -40.35188222 447.80000663 C-40.34562333 444.22590041 -40.34504288 440.65179335 -40.34385681 437.0776825 C-40.34075097 430.31339148 -40.33254765 423.54911666 -40.32250732 416.78483278 C-40.31132298 409.08232632 -40.30582988 401.37981909 -40.30081189 393.67730653 C-40.29036442 377.8361617 -40.27277944 361.99503301 -40.25048828 346.15390015 C-41.05148956 346.16278259 -41.85249084 346.17166504 -42.67776489 346.18081665 C-50.23996003 346.26108662 -57.80194754 346.32192714 -65.36445808 346.36114883 C-69.25210931 346.38199135 -73.13940744 346.41024695 -77.02685547 346.45565796 C-80.78107023 346.49923634 -84.53494614 346.52306234 -88.28939438 346.53340912 C-89.71910814 346.54077913 -91.14880412 346.55517128 -92.57837296 346.57682037 C-94.58624309 346.60600775 -96.59445685 346.60753535 -98.60253906 346.60800171 C-99.74393341 346.61688416 -100.88532776 346.6257666 -102.06130981 346.63491821 C-106.03355878 346.03579103 -108.16035792 344.68760865 -111.25048828 342.15390015 C-113.43310118 338.82089989 -113.50570729 336.02758094 -113.51791382 332.09460449 C-113.52644379 330.85248199 -113.53497375 329.6103595 -113.54376221 328.33059692 C-113.5430632 326.95675646 -113.54214015 325.5829161 -113.54101562 324.20907593 C-113.54700096 322.76010797 -113.55380651 321.3111432 -113.56137085 319.86218262 C-113.57903762 315.92824073 -113.58372651 311.99438584 -113.58500242 308.06040812 C-113.58642419 305.60195797 -113.59069428 303.14352994 -113.59599686 300.6850853 C-113.61449933 292.10647935 -113.62266719 283.52793555 -113.62109375 274.9493103 C-113.61989227 266.95581353 -113.64099524 258.96258674 -113.67258108 250.96915829 C-113.69874218 244.103635 -113.70946112 237.23819989 -113.70818293 230.37262714 C-113.70767325 226.27332689 -113.71335975 222.17426658 -113.73453903 218.07501602 C-113.75391882 214.21878872 -113.75404803 210.36303029 -113.73950577 206.50678635 C-113.73741622 205.09347091 -113.74212739 203.68012615 -113.75422668 202.26686096 C-113.85025871 190.27047455 -113.85025871 190.27047455 -111.47012329 186.39117432 C-108.48881096 183.38616987 -106.56083095 182.26077861 -102.30181885 181.91339111 C-101.15598328 181.91783234 -100.01014771 181.92227356 -98.82958984 181.92684937 C-96.87801971 181.92707596 -96.87801971 181.92707596 -94.88702393 181.92730713 C-93.47171882 181.93751968 -92.05641527 181.94795166 -90.64111328 181.95858765 C-89.18951614 181.96231944 -87.73791648 181.96516563 -86.28631592 181.96716309 C-82.47223921 181.9747865 -78.65831566 181.99442379 -74.84429932 182.01657104 C-70.9497688 182.03705736 -67.05521344 182.04617075 -63.16064453 182.0562439 C-55.52385608 182.077671 -47.88719367 182.11179123 -40.25048828 182.15390015 C-40.25601904 181.05866893 -40.25601904 181.05866893 -40.26166153 179.94131184 C-40.35021894 162.12813524 -40.41629791 144.31500292 -40.45773697 126.50165272 C-40.47831218 117.88703794 -40.50633566 109.27257063 -40.55224609 100.65805054 C-40.59226901 93.14463133 -40.61795768 85.63131898 -40.62684226 78.11779612 C-40.63203102 74.14393066 -40.64411958 70.17037075 -40.67340851 66.19660378 C-40.70082282 62.44632616 -40.70888163 58.69647617 -40.70291901 54.94610786 C-40.70452177 52.93394603 -40.72590701 50.92182936 -40.74816895 48.90979004 C-40.68612762 35.03724717 -37.07588469 23.87737503 -27.87548828 13.46640015 C-19.87779227 6.42081081 -11.06302944 0.08461513 0 0 Z " fill="#020202" transform="translate(134.25048828125,-0.153900146484375)"/>
<path d="M0 0 C47.19 0 94.38 0 143 0 C143.33 13.86 143.66 27.72 144 42 C146.65696758 42.88565586 148.28190083 43.1450262 151.01245117 43.20532227 C151.81305466 43.22526749 152.61365814 43.24521271 153.43852234 43.26576233 C154.29798965 43.28247482 155.15745697 43.29918732 156.04296875 43.31640625 C157.36836418 43.3475779 157.36836418 43.3475779 158.72053528 43.37937927 C161.54277785 43.44475754 164.36511335 43.50370528 167.1875 43.5625 C169.10092106 43.60569637 171.01433273 43.64931102 172.92773438 43.69335938 C177.61839437 43.80042695 182.30914783 43.90172752 187 44 C187 48.62 187 53.24 187 58 C185.41781677 58.00586624 183.83563354 58.01173248 182.20550537 58.01777649 C167.3139026 58.07492462 152.4224655 58.14746656 137.5310173 58.23571491 C129.8746961 58.28069089 122.2184216 58.32010133 114.56201172 58.34643555 C107.88909938 58.36940112 101.21633462 58.40278283 94.54353929 58.44870156 C91.00993801 58.47265345 87.47648306 58.49136924 83.94280243 58.49761391 C79.99913992 58.50477816 76.05584443 58.53519608 72.11230469 58.56762695 C70.939142 58.56619186 69.76597931 58.56475677 68.55726624 58.5632782 C67.48317001 58.57581635 66.40907379 58.58835449 65.3024292 58.60127258 C64.3695747 58.60588155 63.4367202 58.61049051 62.47559738 58.61523914 C59.5018262 59.07742688 58.12156406 59.88107846 56 62 C55.35559786 66.63109446 55.35559786 66.63109446 57.27391607 70.69470245 C59.37968583 72.28712566 60.43573161 72.37781361 63.05484295 72.38476086 C63.88289745 72.3942174 64.71095195 72.40367394 65.56409901 72.41341704 C66.92838692 72.40614568 66.92838692 72.40614568 68.32023621 72.39872742 C69.28651784 72.40537424 70.25279947 72.41202107 71.24836236 72.41886932 C74.50056019 72.43758763 77.75239297 72.43488807 81.00463867 72.43237305 C83.33018009 72.4413848 85.65571673 72.45171056 87.98124695 72.46325684 C94.30732624 72.49092174 100.63331565 72.50012423 106.95944762 72.50611091 C112.89699238 72.51452234 118.83447235 72.53664595 124.77197961 72.55872939 C136.5334342 72.6020258 148.2948835 72.63197622 160.05639648 72.65356445 C171.48252979 72.67456561 182.90861952 72.70186738 194.3347168 72.73754883 C195.04604352 72.73976234 195.75737024 72.74197585 196.49025232 72.74425644 C202.677639 72.76356516 208.86502415 72.7833518 215.05240917 72.80318546 C241.70158296 72.88798943 268.35072587 72.94140352 295 73 C295 117.22 295 161.44 295 207 C282.90730469 207.03738281 270.81460937 207.07476562 258.35546875 207.11328125 C250.71287898 207.14354274 243.07030463 207.17455572 235.42773438 207.20898438 C223.28639089 207.26353856 211.14509026 207.31494812 199.00366211 207.34643555 C190.16230859 207.36937871 181.32106687 207.40273526 172.47980195 207.44870156 C167.7965527 207.47268362 163.11341451 207.49137966 158.43010521 207.49761391 C154.02486219 207.50364232 149.61990351 207.52356029 145.21476555 207.55427551 C143.59542563 207.56309189 141.9760486 207.56677092 140.35668564 207.56500816 C138.15035621 207.56336432 135.94490285 207.57997678 133.73869324 207.60127258 C132.50256885 207.60588155 131.26644445 207.61049051 129.99286175 207.61523914 C127.02677586 207.7586444 127.02677586 207.7586444 125.10617542 209.34132671 C123.34147993 211.98742895 123.55843377 213.90903642 124 217 C126.10256762 219.73167625 127.29931683 220.86635167 130.72088623 221.51898193 C131.76013245 221.52786438 132.79937866 221.53674683 133.87011719 221.54589844 C135.05103943 221.56561707 136.23196167 221.58533569 137.44866943 221.60565186 C139.35353119 221.60749481 139.35353119 221.60749481 141.296875 221.609375 C142.60078186 221.62591125 143.90468872 221.64244751 145.24810791 221.65948486 C148.70701979 221.70312939 152.16567822 221.72315054 155.62481689 221.73822021 C159.15758067 221.75780215 162.69007793 221.7995551 166.22265625 221.83984375 C173.14860771 221.91720594 180.07339244 221.9576095 187 222 C187 231.24 187 240.48 187 250 C124.96 250 62.92 250 -1 250 C-1 240.76 -1 231.52 -1 222 C3.42164551 221.96241577 3.42164551 221.96241577 7.93261719 221.92407227 C17.66364998 221.8406577 27.39462947 221.7519641 37.12559128 221.66066074 C43.02641685 221.60545735 48.92724739 221.55204138 54.828125 221.50268555 C60.52101224 221.45500402 66.21383914 221.40265969 71.90665436 221.34705925 C74.08038076 221.3266529 76.25412371 221.30793698 78.42787933 221.29092598 C81.46858201 221.26684404 84.50917079 221.23679443 87.54980469 221.20532227 C88.9027916 221.19668907 88.9027916 221.19668907 90.28311157 221.18788147 C91.5282402 221.17319824 91.5282402 221.17319824 92.79852295 221.15821838 C93.51752148 221.15176583 94.23652 221.14531328 94.97730637 221.1386652 C97.08543736 220.99414287 98.96972128 220.57272836 101 220 C101.2475 218.7625 101.495 217.525 101.75 216.25 C101.95882812 215.20585937 101.95882812 215.20585937 102.171875 214.140625 C102.16513976 211.87773373 102.16513976 211.87773373 100.59589767 209.89864731 C96.66406469 207.02289293 93.05041395 207.44148962 88.29376221 207.48101807 C87.29804128 207.47351681 86.30232036 207.46601556 85.27642608 207.458287 C81.93049345 207.4379415 78.58523404 207.44612618 75.23925781 207.45410156 C72.84460273 207.44537031 70.44995349 207.43488611 68.05531311 207.42277527 C62.22176198 207.39774248 56.38839562 207.39103095 50.55479559 207.3923355 C43.76705681 207.39286956 36.9794477 207.37090739 30.19175598 207.34752855 C18.08699359 207.30643357 5.98226491 207.28313111 -6.12255859 207.27099609 C-17.88138071 207.25916989 -29.64013901 207.23893194 -41.39892578 207.20751953 C-42.13110703 207.20557402 -42.86328827 207.2036285 -43.61765683 207.20162404 C-49.98656277 207.18462784 -56.35546692 207.16699413 -62.72437096 207.14929771 C-90.14957588 207.07392176 -117.57466969 207.04041457 -145 207 C-145 162.78 -145 118.56 -145 73 C-132.41359375 72.97421875 -119.8271875 72.9484375 -106.859375 72.921875 C-98.90232802 72.89671908 -90.94530549 72.87055985 -82.98828125 72.83984375 C-70.3487971 72.79123998 -57.70939427 72.74682154 -45.06982422 72.72900391 C-35.86550405 72.71601001 -26.66134857 72.68910336 -17.45712113 72.64538693 C-12.58210096 72.62272112 -7.70728427 72.60709238 -2.83220673 72.60811615 C1.75449016 72.60885975 6.34073634 72.59103038 10.92731667 72.55883217 C12.61235055 72.55029941 14.29743479 72.54860603 15.982481 72.55419731 C18.28061972 72.56080835 20.57731217 72.54298873 22.87530518 72.51898193 C24.80553968 72.51345118 24.80553968 72.51345118 26.77476883 72.50780869 C30.54841508 71.91365272 31.74950313 71.03421405 34 68 C34.55156953 64.23094157 34.16551116 63.24826674 32 60 C28.63448877 58.87816292 25.90939768 58.79199032 22.36328125 58.68359375 C20.60818237 58.62643188 20.60818237 58.62643188 18.81762695 58.56811523 C17.33093506 58.52501221 15.84424316 58.48190918 14.3125 58.4375 C9.589375 58.293125 4.86625 58.14875 0 58 C0 38.86 0 19.72 0 0 Z " fill="#FB979E" transform="translate(181,124)"/>
<path d="M0 0 C0.77988281 -0.00563965 1.55976563 -0.0112793 2.36328125 -0.01708984 C3.22695312 -0.02353516 4.090625 -0.02998047 4.98046875 -0.03662109 C5.86992187 -0.01728516 6.759375 0.00205078 7.67578125 0.02197266 C9.00996094 -0.00703125 9.00996094 -0.00703125 10.37109375 -0.03662109 C11.23476562 -0.03017578 12.0984375 -0.02373047 12.98828125 -0.01708984 C13.76816406 -0.0114502 14.54804688 -0.00581055 15.3515625 0 C17.67578125 0.64697266 17.67578125 0.64697266 19.60325623 3.15214539 C24.21900724 6.90004049 28.3824215 6.30646993 34.16040039 6.21118164 C35.32203705 6.21202759 36.48367371 6.21287354 37.68051147 6.21374512 C40.20248812 6.21257058 42.72447923 6.20000788 45.24635506 6.17742729 C49.24502815 6.14277094 53.24305193 6.13918781 57.24180603 6.14576721 C67.17876788 6.15596921 77.1154279 6.11310227 87.05224609 6.06286621 C94.76731462 6.024551 102.48191348 6.00049936 110.19708341 6.01676041 C114.79736793 6.02463545 119.39608166 5.98753668 123.99610901 5.94297791 C126.42587472 5.94461708 128.85564008 5.94799121 131.28540039 5.95336914 C132.36584122 5.933293 133.44628204 5.91321686 134.5594635 5.89253235 C144.19966806 5.98107602 152.52723387 9.41637413 159.67578125 15.95947266 C166.88433337 24.04309673 167.2461738 32.53782629 167.12988281 42.97924805 C167.12875263 44.4091285 167.12939153 45.83901127 167.13165283 47.26889038 C167.13279426 51.12587919 167.10937856 54.98236415 167.081357 58.8392365 C167.05624729 62.87908027 167.05399384 66.91893728 167.04925537 70.95884705 C167.03685357 78.59788212 167.00407013 86.23668652 166.96385741 93.87562031 C166.91905232 102.57696092 166.89713076 111.2783129 166.87707567 119.97974026 C166.83533476 137.86895183 166.76422592 155.75793519 166.67578125 173.64697266 C160.40578125 173.64697266 154.13578125 173.64697266 147.67578125 173.64697266 C147.65 172.05626953 147.62421875 170.46556641 147.59765625 168.82666016 C147.54136367 166.72507066 147.4840166 164.62350922 147.42578125 162.52197266 C147.41160156 161.47525391 147.39742188 160.42853516 147.3828125 159.35009766 C147.35058594 158.33173828 147.31835938 157.31337891 147.28515625 156.26416016 C147.26420898 155.33200684 147.24326172 154.39985352 147.22167969 153.43945312 C145.71979695 145.7567453 138.73984547 140.43648213 133.421875 135.16259766 C132.52461197 134.26579285 131.62734894 133.36898804 130.70289612 132.44500732 C128.81149617 130.55662052 126.91834034 128.67023722 125.02172852 126.78710938 C122.59333547 124.37576592 120.17163815 121.9578311 117.75213528 119.53757095 C115.43650588 117.22227887 113.11663839 114.91124669 110.796875 112.60009766 C109.92808212 111.7324176 109.05928925 110.86473755 108.16416931 109.97076416 C107.35645584 109.16943054 106.54874237 108.36809692 105.71655273 107.54248047 C105.00691879 106.83665833 104.29728485 106.13083618 103.56614685 105.40362549 C99.7086504 101.81898447 97.43475972 101.3953238 92.28117371 101.38627625 C91.62947545 101.3824507 90.97777719 101.37862515 90.3063305 101.37468368 C88.11844537 101.36434935 85.93082247 101.36834659 83.74291992 101.37231445 C82.17587541 101.36796812 80.60883303 101.36278524 79.04179382 101.35682678 C74.78135003 101.34341478 70.52099484 101.34286071 66.26053405 101.34539008 C62.70443706 101.34645863 59.14835809 101.34157924 55.59226495 101.33678466 C47.20138889 101.32568117 38.81055759 101.32525634 30.41967773 101.33129883 C21.76448774 101.33733591 13.10946043 101.32503631 4.4542982 101.30372876 C-2.97595373 101.28610953 -10.40615391 101.28011204 -17.83642596 101.2833665 C-22.27439111 101.28517951 -26.7122403 101.28254177 -31.15018654 101.26865196 C-35.32561734 101.25607354 -39.50079492 101.2580178 -43.67622185 101.27106285 C-45.20724702 101.27342842 -46.73829 101.2706946 -48.26929474 101.26243973 C-50.36270963 101.25196809 -52.45527557 101.2600753 -54.54866028 101.27275085 C-55.71912808 101.27258311 -56.88959589 101.27241537 -58.09553242 101.27224255 C-61.76044653 101.69760244 -64.18221633 102.7401089 -67.32421875 104.64697266 C-68.74689737 107.4923299 -68.54393744 110.00915817 -68.640625 113.18603516 C-68.7034668 115.13896484 -68.7034668 115.13896484 -68.76757812 117.13134766 C-68.80739174 118.51155311 -68.84710397 119.89176148 -68.88671875 121.27197266 C-68.92991282 122.6600068 -68.9735274 124.04802793 -69.01757812 125.43603516 C-69.12393875 128.83957522 -69.22596589 132.24319044 -69.32421875 135.64697266 C-70.18176758 135.65631836 -71.03931641 135.66566406 -71.92285156 135.67529297 C-75.11394554 135.71938557 -78.30408631 135.78103322 -81.49462891 135.85449219 C-82.87373526 135.88266365 -84.25300193 135.90389737 -85.63232422 135.91796875 C-87.61844824 135.9394481 -89.60421784 135.98820398 -91.58984375 136.03759766 C-92.78383789 136.05854492 -93.97783203 136.07949219 -95.20800781 136.10107422 C-98.8889749 136.74590675 -100.04597358 137.75071452 -102.32421875 140.64697266 C-103.80064235 143.59981985 -103.54694814 146.33146249 -103.640625 149.62353516 C-103.6614061 150.30878265 -103.68218719 150.99403015 -103.70359802 151.70004272 C-103.7690206 153.89058335 -103.82794429 156.08124454 -103.88671875 158.27197266 C-103.92991093 159.75636016 -103.97352545 161.24073544 -104.01757812 162.72509766 C-104.12549013 166.36560084 -104.22461656 170.0061946 -104.32421875 173.64697266 C-111.25421875 173.64697266 -118.18421875 173.64697266 -125.32421875 173.64697266 C-125.41695221 155.04445071 -125.48826748 136.4419944 -125.53146744 117.83928871 C-125.55206219 109.20104715 -125.58012348 100.56295215 -125.62597656 91.92480469 C-125.66593917 84.39273647 -125.69167399 76.86077444 -125.70057273 69.32860315 C-125.7057716 65.34309701 -125.71792574 61.35789458 -125.74713898 57.37248611 C-125.77445745 53.61483101 -125.78263096 49.85760231 -125.77664948 46.09985733 C-125.77826028 44.07638333 -125.79969655 42.05295488 -125.82189941 40.02960205 C-125.78291192 31.34117484 -124.61310905 24.22101756 -119.46484375 17.06103516 C-111.41419823 9.44286233 -104.44772952 6.494183 -93.34228516 6.52099609 C-92.42328934 6.51912796 -91.50429352 6.51725983 -90.55744934 6.51533508 C-88.56038315 6.51132978 -86.56331238 6.50925613 -84.56624222 6.50887299 C-80.32262824 6.50546058 -76.07916793 6.48410367 -71.83560753 6.46364212 C-63.93205105 6.42559478 -56.02865848 6.39435993 -48.125 6.39648438 C-42.62945715 6.39727063 -37.13447623 6.37394491 -31.63908005 6.33460236 C-29.54434102 6.32412819 -27.44953725 6.32262869 -25.35478592 6.3302536 C-22.42421735 6.33985738 -19.49535575 6.31872732 -16.56494141 6.29052734 C-15.69931076 6.30072403 -14.83368011 6.31092072 -13.94181824 6.32142639 C-9.51056471 6.24493288 -7.88626227 6.12611791 -4.39193726 3.14718628 C-2.32421875 0.64697266 -2.32421875 0.64697266 0 0 Z " fill="#E9F5FE" transform="translate(235.32421875,8.35302734375)"/>
<path d="M0 0 C6.93 0 13.86 0 21 0 C21.0093457 2.05879395 21.01869141 4.11758789 21.02832031 6.23876953 C21.06213544 13.05221917 21.11770941 19.86536737 21.18390274 26.67857552 C21.2233589 30.80819377 21.25555631 34.93759939 21.27099609 39.06738281 C21.28617525 43.05526299 21.32064226 47.04255854 21.36830902 51.03017807 C21.38311 52.54910059 21.39104028 54.06810659 21.39188385 55.58710098 C21.39425932 57.72031734 21.4213808 59.85192553 21.45410156 61.98486328 C21.46298401 63.1973172 21.47186646 64.40977112 21.48101807 65.65896606 C22.10227556 69.6584162 23.49556423 71.85693567 26 75 C29.12390365 76.56195183 32.44643856 76.14054953 35.87556458 76.13371277 C37.11015247 76.1371111 37.11015247 76.1371111 38.36968154 76.14057809 C41.14335967 76.14693701 43.91698918 76.14608751 46.69067383 76.14526367 C48.67297937 76.14825402 50.65528432 76.15165625 52.6375885 76.15544128 C58.034331 76.16429897 63.43105765 76.16662016 68.82780671 76.16725707 C73.32836694 76.16820491 77.82892345 76.17188183 82.32948226 76.17542917 C92.94630062 76.18358073 103.56311051 76.18601279 114.17993164 76.18530273 C125.14074087 76.184702 136.10150087 76.19525127 147.06229764 76.2110464 C156.46361454 76.2241127 165.86491534 76.229487 175.26624125 76.22884732 C180.88514635 76.22859203 186.50400775 76.23146017 192.12290382 76.24202538 C197.40794902 76.25169085 202.6929086 76.25179618 207.97795677 76.24450874 C209.91899109 76.24346091 211.86003068 76.2458375 213.80105591 76.2518692 C216.44863347 76.25956421 219.09591353 76.25496081 221.7434845 76.24723816 C222.51352761 76.25238172 223.28357072 76.25752529 224.07694846 76.26282471 C228.14620278 76.23655504 231.37596213 75.91685374 235 74 C237.42465379 70.76283414 237.30645675 67.42991935 237.4140625 63.484375 C237.47207031 61.60878906 237.47207031 61.60878906 237.53125 59.6953125 C237.5621875 58.39335937 237.593125 57.09140625 237.625 55.75 C237.68300781 53.77386719 237.68300781 53.77386719 237.7421875 51.7578125 C237.83646182 48.50534839 237.9220675 45.25289004 238 42 C239.28632324 41.98598145 239.28632324 41.98598145 240.59863281 41.97167969 C243.78972679 41.92758709 246.97986756 41.86593944 250.17041016 41.79248047 C251.54951651 41.76430901 252.92878318 41.74307528 254.30810547 41.72900391 C256.29422949 41.70752455 258.27999909 41.65876868 260.265625 41.609375 C261.45961914 41.58842773 262.65361328 41.56748047 263.88378906 41.54589844 C267.58016771 40.89836611 268.74895999 39.947376 271 37 C272.20161511 33.39515466 272.23017136 30.02710143 272.31640625 26.26953125 C272.3475779 25.14390022 272.3475779 25.14390022 272.37937927 23.99552917 C272.44469926 21.60127816 272.50367792 19.20691861 272.5625 16.8125 C272.60570193 15.18813987 272.64931676 13.56379067 272.69335938 11.93945312 C272.8011389 7.95974498 272.90034215 3.97995299 273 0 C279.27 0 285.54 0 292 0 C292.09277039 16.51639063 292.16406742 33.03267306 292.20724869 49.54926109 C292.22783536 57.21896636 292.25588091 64.88850633 292.30175781 72.55810547 C292.34174549 79.24637043 292.3674611 85.9345156 292.37635398 92.62289679 C292.38154869 96.16128923 292.39367548 99.69933913 292.42292023 103.23762131 C292.45537487 107.19672604 292.45595178 111.15550192 292.45410156 115.11474609 C292.46848267 116.27568787 292.48286377 117.43662964 292.49768066 118.63275146 C292.45606406 126.8881599 290.97197758 133.67772526 286.24609375 140.55078125 C275.95944161 150.57082469 265.47510684 151.72579457 251.76611328 151.58007812 C250.04848558 151.58034521 248.33085697 151.5828854 246.61323547 151.58750916 C242.9354783 151.5928858 239.25820372 151.5829678 235.58050919 151.5610199 C229.76448844 151.52700305 223.94887099 151.53126858 218.13278198 151.5411377 C205.79677026 151.5567521 193.46097079 151.53054324 181.125 151.5 C167.78454991 151.46701004 154.44432583 151.44119537 141.10383594 151.46387625 C135.32200554 151.47227088 129.54090101 151.45645372 123.75917363 151.42208099 C120.16756293 151.40564965 116.57618977 151.40978469 112.98456383 151.41952705 C111.31924854 151.41978724 109.65390643 151.41144793 107.9886837 151.39388847 C105.71541107 151.3710812 103.44421693 151.37897593 101.17092896 151.39440918 C99.89931475 151.39068047 98.62770054 151.38695175 97.31755257 151.38311005 C93.1358261 152.16069081 91.75598747 153.86079035 89 157 C86.67578125 157.64697266 86.67578125 157.64697266 84.3125 157.6640625 C83.44882813 157.67050781 82.58515625 157.67695313 81.6953125 157.68359375 C80.80585938 157.66425781 79.91640625 157.64492188 79 157.625 C78.11054688 157.64433594 77.22109375 157.66367187 76.3046875 157.68359375 C75.44101563 157.67714844 74.57734375 157.67070312 73.6875 157.6640625 C72.90761719 157.65842285 72.12773437 157.6527832 71.32421875 157.64697266 C69 157 69 157 66.77832031 154.49389648 C62.87348885 150.9888127 59.93226273 151.3343922 54.859375 151.43359375 C53.97775696 151.42795914 53.09613892 151.42232452 52.18780518 151.41651917 C49.37466068 151.40009211 46.56308916 151.41557169 43.75 151.4375 C40.95133488 151.45416735 38.15372438 151.46306901 35.3550415 151.44776917 C33.61752954 151.43858973 31.87979275 151.44731246 30.14251709 151.47740173 C21.06651636 151.43698842 14.28137303 147.90835279 7.72265625 141.79296875 C0.09725943 133.85633124 -0.29102191 126.02517056 -0.22705078 115.56884766 C-0.22734283 114.31951447 -0.22763489 113.07018127 -0.22793579 111.7829895 C-0.2267839 108.37013477 -0.21677611 104.9575241 -0.20278788 101.54471254 C-0.19025755 97.973287 -0.18910821 94.40185795 -0.18673706 90.83041382 C-0.18052905 84.0732159 -0.16412744 77.31608294 -0.14403808 70.55891359 C-0.12165793 62.86364586 -0.11068034 55.16837497 -0.10064721 47.47308278 C-0.07976059 31.64868324 -0.04419342 15.82435256 0 0 Z " fill="#E9F5FE" transform="translate(110,346)"/>
<path d="M0 0 C47.19 0 94.38 0 143 0 C143.33 13.86 143.66 27.72 144 42 C146.65696758 42.88565586 148.28190083 43.1450262 151.01245117 43.20532227 C151.81305466 43.22526749 152.61365814 43.24521271 153.43852234 43.26576233 C154.29798965 43.28247482 155.15745697 43.29918732 156.04296875 43.31640625 C157.36836418 43.3475779 157.36836418 43.3475779 158.72053528 43.37937927 C161.54277785 43.44475754 164.36511335 43.50370528 167.1875 43.5625 C169.10092106 43.60569637 171.01433273 43.64931102 172.92773438 43.69335938 C177.61839437 43.80042695 182.30914783 43.90172752 187 44 C187 48.62 187 53.24 187 58 C184.62672516 58.00879936 184.62672516 58.00879936 182.20550537 58.01777649 C167.3139026 58.07492462 152.4224655 58.14746656 137.5310173 58.23571491 C129.8746961 58.28069089 122.2184216 58.32010133 114.56201172 58.34643555 C107.88909938 58.36940112 101.21633462 58.40278283 94.54353929 58.44870156 C91.00993801 58.47265345 87.47648306 58.49136924 83.94280243 58.49761391 C79.99913992 58.50477816 76.05584443 58.53519608 72.11230469 58.56762695 C70.939142 58.56619186 69.76597931 58.56475677 68.55726624 58.5632782 C67.48317001 58.57581635 66.40907379 58.58835449 65.3024292 58.60127258 C64.3695747 58.60588155 63.4367202 58.61049051 62.47559738 58.61523914 C59.48180951 59.0805379 58.17346791 59.90956242 56 62 C55.34 63.32 54.68 64.64 54 66 C47.73 66 41.46 66 35 66 C34.01 64.02 33.02 62.04 32 60 C28.63448877 58.87816292 25.90939768 58.79199032 22.36328125 58.68359375 C21.19321533 58.64548584 20.02314941 58.60737793 18.81762695 58.56811523 C17.33093506 58.52501221 15.84424316 58.48190918 14.3125 58.4375 C9.589375 58.293125 4.86625 58.14875 0 58 C0 38.86 0 19.72 0 0 Z " fill="#D7EBFD" transform="translate(181,124)"/>
<path d="M0 0 C10.14515673 6.1560417 17.25976362 16.00934383 20.4140625 27.46484375 C20.82586488 30.39646054 20.89252693 33.25740424 20.8515625 36.21484375 C20.84253906 37.00125244 20.83351563 37.78766113 20.82421875 38.59790039 C20.47699264 50.38309217 16.4221851 59.76268386 8.4140625 68.46484375 C-2.81094606 78.20608681 -12.95396025 80.92537321 -27.7265625 80.80859375 C-40.06083148 79.70999489 -49.91625404 72.15400797 -57.7578125 63.03125 C-65.25157535 52.51115985 -66.93228292 40.05235654 -64.9609375 27.52734375 C-62.39742299 16.24787991 -55.43048355 6.89478606 -45.7734375 0.64453125 C-31.04339325 -7.64111864 -14.98142983 -8.00091841 0 0 Z " fill="#030202" transform="translate(309.5859375,226.53515625)"/>
<path d="M0 0 C6.6 0 13.2 0 20 0 C20.99 1.98 21.98 3.96 23 6 C25.64420117 7.32210059 27.68199615 7.16122122 30.64306641 7.20532227 C32.41467636 7.2352401 32.41467636 7.2352401 34.22207642 7.26576233 C36.14242203 7.29083107 36.14242203 7.29083107 38.1015625 7.31640625 C39.40829926 7.33718735 40.71503601 7.35796844 42.06137085 7.37937927 C45.536689 7.43459294 49.01206653 7.48400525 52.48748779 7.53222656 C56.0333789 7.58244677 59.57918479 7.63807723 63.125 7.69335938 C70.08326821 7.80144502 77.04158297 7.90047304 84 8 C84 17.24 84 26.48 84 36 C21.96 36 -40.08 36 -104 36 C-104 26.76 -104 17.52 -104 8 C-99.57835449 7.96241577 -99.57835449 7.96241577 -95.06738281 7.92407227 C-85.33635002 7.8406577 -75.60537053 7.7519641 -65.87440872 7.66066074 C-59.97358315 7.60545735 -54.07275261 7.55204138 -48.171875 7.50268555 C-42.47898776 7.45500402 -36.78616086 7.40265969 -31.09334564 7.34705925 C-28.91961924 7.3266529 -26.74587629 7.30793698 -24.57212067 7.29092598 C-21.53141799 7.26684404 -18.49082921 7.23679443 -15.45019531 7.20532227 C-14.54820404 7.1995668 -13.64621277 7.19381134 -12.71688843 7.18788147 C-11.4717598 7.17319824 -11.4717598 7.17319824 -10.20147705 7.15821838 C-9.48247852 7.15176583 -8.76348 7.14531328 -8.02269363 7.1386652 C-7.35520473 7.09290568 -6.68771584 7.04714617 -6 7 C-5.29459454 6.95548675 -4.58918907 6.91097349 -3.86240768 6.86511135 C-3.24781315 6.57962461 -2.63321861 6.29413786 -2 6 C-1.34 4.02 -0.68 2.04 0 0 Z " fill="#D7EBFD" transform="translate(284,338)"/>
<path d="M0 0 C6.6 0 13.2 0 20 0 C20.02578125 2.54074219 20.0515625 5.08148438 20.078125 7.69921875 C20.11657188 10.1683241 20.16172339 12.63722248 20.20751953 15.10620117 C20.23569086 16.8180142 20.25692452 18.52995637 20.27099609 20.24194336 C20.29247965 22.70753919 20.33915416 25.17158861 20.390625 27.63671875 C20.39185364 28.39836838 20.39308228 29.16001801 20.39434814 29.94474792 C20.52974096 34.89097674 21.39129508 37.57533739 25 41 C28.34447274 42.11482425 30.87172809 42.13877234 34.39701843 42.15821838 C35.04886653 42.16315636 35.70071463 42.16809434 36.3723157 42.17318195 C38.56030099 42.18856112 40.74825692 42.19691868 42.9362793 42.20532227 C44.50320698 42.21490046 46.07013207 42.22491051 47.63705444 42.23532104 C51.89498893 42.2623825 56.15293451 42.28338535 60.41090751 42.30332303 C64.85923017 42.32517492 69.30751857 42.35256751 73.7558136 42.37937927 C82.18115358 42.42931694 90.60651256 42.47425179 99.03188974 42.51740164 C108.62309325 42.56676483 118.2142624 42.62168636 127.80543268 42.67708123 C147.53692329 42.79091776 167.26844723 42.89755601 187 43 C187 49.27 187 55.54 187 62 C125.29 62 63.58 62 0 62 C0 41.54 0 21.08 0 0 Z " fill="#C2E0FD" transform="translate(146,346)"/>
<path d="M0 0 C10.40285626 -0.99601815 17.827756 1.32911265 26.16796875 7.640625 C31.38599818 12.40249408 34.5525405 18.07674537 35.3572464 25.13228035 C35.49113019 28.86930564 35.49573367 32.59425282 35.45410156 36.33227539 C35.45297138 37.76215584 35.45361028 39.19203861 35.45587158 40.62191772 C35.45701301 44.47890653 35.43359731 48.33539149 35.40557575 52.19226384 C35.38046604 56.23210761 35.37821259 60.27196462 35.37347412 64.31187439 C35.36107232 71.95090946 35.32828888 79.58971387 35.28807616 87.22864765 C35.24327107 95.92998826 35.22134951 104.63134024 35.20129442 113.33276761 C35.15955351 131.22197918 35.08844467 149.11096253 35 167 C28.73 167 22.46 167 16 167 C15.96132813 164.61394531 15.96132813 164.61394531 15.921875 162.1796875 C15.86558242 160.078098 15.80823535 157.97653656 15.75 155.875 C15.73582031 154.82828125 15.72164063 153.7815625 15.70703125 152.703125 C15.5143887 146.61562047 15.10642065 142.7908241 11 138 C10.30261719 137.35161163 9.60523438 136.70322327 8.88671875 136.03518677 C6.02641205 131.43377755 6.50570741 127.17807207 6.609375 121.86669922 C6.61521606 120.74247055 6.62105713 119.61824188 6.6270752 118.45994568 C6.64228983 116.01977386 6.66674667 113.57964618 6.69934082 111.13964462 C6.75043754 107.27156507 6.77646916 103.40403502 6.79589844 99.53567505 C6.84550257 90.61885743 6.93197528 81.70253289 7.02081299 72.78603363 C7.10822929 63.97545669 7.17962932 55.1651718 7.22375488 46.35425186 C7.24957557 42.55464414 7.29961645 38.75585364 7.35058594 34.95651245 C7.36512843 32.60757139 7.3785338 30.25862293 7.390625 27.90966797 C7.42162292 26.33971825 7.42162292 26.33971825 7.45324707 24.73805237 C7.45589648 15.4142658 4.92920814 7.88510592 0 0 Z " fill="#D7EBFD" transform="translate(367,15)"/>
<path d="M0 0 C6.27 0 12.54 0 19 0 C19.09277039 16.51639063 19.16406742 33.03267306 19.20724869 49.54926109 C19.22783536 57.21896636 19.25588091 64.88850633 19.30175781 72.55810547 C19.34174549 79.24637043 19.3674611 85.9345156 19.37635398 92.62289679 C19.38154869 96.16128923 19.39367548 99.69933913 19.42292023 103.23762131 C19.45537487 107.19672604 19.45595178 111.15550192 19.45410156 115.11474609 C19.47567322 116.85615875 19.47567322 116.85615875 19.49768066 118.63275146 C19.45606406 126.8881599 17.97197758 133.67772526 13.24609375 140.55078125 C6.27389756 147.34227257 -0.80294747 151.27757225 -10.6875 151.3125 C-12.45964279 151.23368806 -14.23155074 151.13888345 -16 151 C-15.57847656 150.18015625 -15.15695312 149.3603125 -14.72265625 148.515625 C-14.17480469 147.43796875 -13.62695312 146.3603125 -13.0625 145.25 C-12.51722656 144.18265625 -11.97195313 143.1153125 -11.41015625 142.015625 C-8.92488935 136.7008714 -8.83421608 131.91158085 -8.79467773 126.10058594 C-8.77982834 124.75371704 -8.77982834 124.75371704 -8.76467896 123.37963867 C-8.73311589 120.41457752 -8.70832701 117.44950034 -8.68359375 114.484375 C-8.66301974 112.42742499 -8.64202315 110.37047916 -8.62062073 108.3135376 C-8.56544622 102.90160514 -8.51601653 97.48963481 -8.46777344 92.07763672 C-8.4175247 86.55432773 -8.36185623 81.03107368 -8.30664062 75.5078125 C-8.19911554 64.6719202 -8.09815886 53.8359812 -8 43 C-16.58 43 -25.16 43 -34 43 C-34 51.25 -34 59.5 -34 68 C-34.33 68 -34.66 68 -35 68 C-35 59.42 -35 50.84 -35 42 C-31.92945313 41.96132813 -31.92945313 41.96132813 -28.796875 41.921875 C-26.80775005 41.88014511 -24.81862535 41.83827597 -22.82958984 41.79248047 C-21.45048349 41.76430901 -20.07121682 41.74307528 -18.69189453 41.72900391 C-16.70577051 41.70752455 -14.72000091 41.65876868 -12.734375 41.609375 C-11.54038086 41.58842773 -10.34638672 41.56748047 -9.11621094 41.54589844 C-5.41983229 40.89836611 -4.25104001 39.947376 -2 37 C-0.79838489 33.39515466 -0.76982864 30.02710143 -0.68359375 26.26953125 C-0.66281265 25.51911057 -0.64203156 24.76868988 -0.62062073 23.99552917 C-0.55530074 21.60127816 -0.49632208 19.20691861 -0.4375 16.8125 C-0.39429807 15.18813987 -0.35068324 13.56379067 -0.30664062 11.93945312 C-0.1988611 7.95974498 -0.09965785 3.97995299 0 0 Z " fill="#D6EAFB" transform="translate(383,346)"/>
<path d="M0 0 C1.89685547 -0.04833984 1.89685547 -0.04833984 3.83203125 -0.09765625 C12.74169171 -0.10683201 19.60019795 1.51396365 27 6.625 C29.40456392 9.12235367 31.30148764 11.6067802 33 14.625 C33.37253906 15.22441406 33.74507813 15.82382813 34.12890625 16.44140625 C36.395181 22.12233713 36.09290854 30.76554888 33.9375 36.5 C29.43524045 43.76170895 24.96854245 48.383559 17 51.625 C16.34 51.625 15.68 51.625 15 51.625 C20.03970875 58.11468083 25.30645842 64.26120527 30.8984375 70.27734375 C33.61609288 73.31323758 34.92679174 74.9539243 35.375 79.0625 C35 82.625 35 82.625 33.375 85.0625 C30.26456309 87.10884007 28.66322334 87.22307728 25 86.625 C21.35057624 84.04583994 18.67662472 81.19716847 15.9375 77.6875 C11.81111477 72.5242996 7.43422812 67.67114497 2.89819336 62.86547852 C-0.90277831 58.81944338 -0.90277831 58.81944338 -2 56.625 C-2.0093457 57.35614014 -2.01869141 58.08728027 -2.02832031 58.84057617 C-2.08212664 62.16522718 -2.16575504 65.48848678 -2.25 68.8125 C-2.27126953 70.53823242 -2.27126953 70.53823242 -2.29296875 72.29882812 C-2.32519531 73.41064453 -2.35742188 74.52246094 -2.390625 75.66796875 C-2.41157227 76.68914795 -2.43251953 77.71032715 -2.45410156 78.76245117 C-3.13946987 82.35634355 -4.42176616 84.06321929 -7 86.625 C-10.5 87.25 -10.5 87.25 -14 86.625 C-16.94603961 83.84148931 -17.92148416 82.16565023 -18.50793457 78.12742615 C-18.53153849 76.76931548 -18.5333848 75.41071404 -18.51757812 74.05249023 C-18.5245874 73.30716034 -18.53159668 72.56183044 -18.53881836 71.79391479 C-18.55636653 69.34009101 -18.544789 66.88742842 -18.53125 64.43359375 C-18.53394556 62.72396117 -18.53782852 61.01433009 -18.54284668 59.30470276 C-18.54873714 55.72617967 -18.54019251 52.14805659 -18.52148438 48.56958008 C-18.49867751 43.9837717 -18.51183128 39.39889885 -18.53577423 34.81312466 C-18.55022986 31.28462171 -18.54562767 27.75634052 -18.53526306 24.22783089 C-18.532596 22.53694612 -18.53586482 20.84604118 -18.54518127 19.15517998 C-18.55534532 16.79228247 -18.53985073 14.43089992 -18.51757812 12.06811523 C-18.52567505 11.3703447 -18.53377197 10.67257416 -18.54211426 9.95365906 C-18.48382146 6.61421048 -18.19667081 4.88349309 -16.1505127 2.19413757 C-11.61247803 -1.11707315 -5.3977616 -0.02685454 0 0 Z " fill="#020101" transform="translate(358,220.375)"/>
<path d="M0 0 C1.92199219 -0.03577148 1.92199219 -0.03577148 3.8828125 -0.07226562 C13.44043048 -0.05757666 20.21864679 1.5635143 27.53125 7.84375 C28.1396875 8.5759375 28.748125 9.308125 29.375 10.0625 C30.0040625 10.7946875 30.633125 11.526875 31.28125 12.28125 C35.53635364 18.37188854 35.56806425 24.35283162 34.875 31.5625 C33.11783355 39.78226521 28.66904922 44.80894543 21.875 49.5625 C19.54282703 50.82646965 17.39602741 51.7042779 14.875 52.5625 C15.42027344 53.15675781 15.96554688 53.75101562 16.52734375 54.36328125 C21.54285021 59.8760516 26.35245197 65.50804882 31.02734375 71.3125 C32.83105161 73.58369749 32.83105161 73.58369749 34.875 75.5625 C35.30334085 79.41756762 35.43397202 81.69050365 33.3125 85 C29.87616297 87.20278015 27.90960075 87.09259353 23.875 86.5625 C21.3454536 84.8040421 19.47655215 82.59690963 17.5 80.25 C16.94127197 79.61787598 16.38254395 78.98575195 15.80688477 78.33447266 C11.67192384 73.61982213 7.66993598 68.78335965 3.77734375 63.8671875 C1.92302458 61.62068174 -0.0530595 59.60674292 -2.125 57.5625 C-2.13116333 58.61377075 -2.13116333 58.61377075 -2.13745117 59.6862793 C-2.17043372 62.87503205 -2.24108332 66.06188605 -2.3125 69.25 C-2.31830078 70.35279297 -2.32410156 71.45558594 -2.33007812 72.59179688 C-2.57878156 81.73855654 -2.57878156 81.73855654 -5.484375 84.796875 C-8.73057495 86.96741106 -10.29625182 87.29566454 -14.125 86.5625 C-16.27624512 84.99926758 -16.27624512 84.99926758 -18.125 82.5625 C-18.51994368 79.90695222 -18.67289245 77.66501415 -18.64257812 75.01171875 C-18.6495874 74.25678131 -18.65659668 73.50184387 -18.66381836 72.72402954 C-18.68140198 70.23231052 -18.66977511 67.74173026 -18.65625 65.25 C-18.65894483 63.51651797 -18.66282717 61.78303741 -18.66784668 60.04956055 C-18.6737422 56.41798499 -18.66517726 52.7868032 -18.64648438 49.15527344 C-18.62369454 44.50105955 -18.63681737 39.84776829 -18.66077423 35.19358826 C-18.67523091 31.61447197 -18.67062687 28.0355743 -18.66026306 24.45645142 C-18.6575954 22.74044689 -18.66086693 21.02442249 -18.67018127 19.30844116 C-18.68034508 16.90952004 -18.66485007 14.51209125 -18.64257812 12.11328125 C-18.65067505 11.40458893 -18.65877197 10.69589661 -18.66711426 9.96572876 C-18.60931187 6.60384902 -18.33204472 4.83578542 -16.27749634 2.12391663 C-11.71454011 -1.18604288 -5.41536084 -0.04548475 0 0 Z " fill="#030202" transform="translate(80.125,220.4375)"/>
<path d="M0 0 C2.02921838 0.01374025 4.05369977 -0.02004668 6.08251953 -0.05834961 C16.39717828 -0.04304596 23.55324256 1.95502044 31.30517578 8.82641602 C37.21736615 15.32563238 39.15266244 21.92094861 38.80908203 30.65454102 C37.76126564 38.73460969 33.45523623 45.20730973 27.43017578 50.57641602 C22.68562778 53.59408809 17.8759482 55.7143293 12.19970703 55.67407227 C11.39726562 55.67084961 10.59482422 55.66762695 9.76806641 55.66430664 C8.9346875 55.65592773 8.10130859 55.64754883 7.24267578 55.63891602 C5.97520508 55.63214844 5.97520508 55.63214844 4.68212891 55.62524414 C2.59811423 55.61347005 0.51413601 55.59553492 -1.56982422 55.57641602 C-1.54364014 56.33784912 -1.51745605 57.09928223 -1.49047852 57.88378906 C-1.38635407 61.34362036 -1.32144693 64.80312187 -1.25732422 68.26391602 C-1.19448242 70.06119141 -1.19448242 70.06119141 -1.13037109 71.89477539 C-0.99220894 81.814818 -0.99220894 81.814818 -3.89794922 84.87329102 C-7.16655155 86.95678607 -8.76582909 87.30484061 -12.56982422 86.57641602 C-14.72106934 85.01318359 -14.72106934 85.01318359 -16.56982422 82.57641602 C-16.9647679 79.92086823 -17.11771667 77.67893017 -17.08740234 75.02563477 C-17.09441162 74.27069733 -17.1014209 73.51575989 -17.10864258 72.73794556 C-17.1262262 70.24622653 -17.11459932 67.75564628 -17.10107422 65.26391602 C-17.10376905 63.53043398 -17.10765139 61.79695342 -17.1126709 60.06347656 C-17.11856641 56.43190101 -17.11000148 52.80071921 -17.09130859 49.16918945 C-17.06851876 44.51497557 -17.08164159 39.86168431 -17.10559845 35.20750427 C-17.12005513 31.62838799 -17.11545109 28.04949031 -17.10508728 24.47036743 C-17.10241962 22.7543629 -17.10569115 21.0383385 -17.11500549 19.32235718 C-17.1251693 16.92343605 -17.10967429 14.52600727 -17.08740234 12.12719727 C-17.09549927 11.41850494 -17.10359619 10.70981262 -17.11193848 9.97964478 C-17.05420472 6.62175699 -16.77589667 4.84926541 -14.72805786 2.13783264 C-10.47413454 -0.93975195 -5.06352612 -0.04781479 0 0 Z " fill="#040202" transform="translate(198.56982421875,220.423583984375)"/>
<path d="M0 0 C0.80610718 -0.0038269 1.61221436 -0.00765381 2.44274902 -0.01159668 C4.14397432 -0.0143139 5.84524153 -0.0069659 7.54638672 0.00976562 C10.14775896 0.0311801 12.74636972 0.00995981 15.34765625 -0.015625 C17.00261025 -0.01298169 18.65756254 -0.00785663 20.3125 0 C21.47670471 -0.01214539 21.47670471 -0.01214539 22.66442871 -0.02453613 C26.20551771 0.0368315 28.26386388 0.23934925 31.14257812 2.38085938 C32.65625 4.53125 32.65625 4.53125 33.21875 7.46875 C32.6407446 10.61566826 31.87793628 12.29480711 29.55297852 14.50366211 C25.16791959 16.8793492 19.68118642 16.01990315 14.84375 15.84375 C13.67392578 15.82119141 12.50410156 15.79863281 11.29882812 15.77539062 C8.41741952 15.71658637 5.53667058 15.62690972 2.65625 15.53125 C2.65625 22.46125 2.65625 29.39125 2.65625 36.53125 C4.27015625 36.48484375 5.8840625 36.4384375 7.546875 36.390625 C9.66664817 36.35310689 11.78644134 36.31670678 13.90625 36.28125 C14.96972656 36.24773437 16.03320312 36.21421875 17.12890625 36.1796875 C18.15371094 36.16679687 19.17851562 36.15390625 20.234375 36.140625 C21.17700195 36.11967773 22.11962891 36.09873047 23.09082031 36.07714844 C26.44430807 36.67074258 27.6200646 37.84778454 29.65625 40.53125 C29.72780001 44.53805051 29.39734134 46.66766422 26.765625 49.734375 C22.1752965 52.3870774 18.04128707 51.96276238 12.84375 51.78125 C11.37518555 51.75417969 11.37518555 51.75417969 9.87695312 51.7265625 C7.46962997 51.67959034 5.06281257 51.60785146 2.65625 51.53125 C2.65625 58.13125 2.65625 64.73125 2.65625 71.53125 C4.40292969 71.48484375 6.14960938 71.4384375 7.94921875 71.390625 C10.24737873 71.35310402 12.54555721 71.31670421 14.84375 71.28125 C15.99423828 71.24773437 17.14472656 71.21421875 18.33007812 71.1796875 C19.44189453 71.16679687 20.55371094 71.15390625 21.69921875 71.140625 C22.72039795 71.11967773 23.74157715 71.09873047 24.79370117 71.07714844 C28.44002722 71.65558481 30.0849814 72.92253996 32.65625 75.53125 C33.27224288 79.3640946 33.38408584 81.4814055 31.14257812 84.71459961 C27.66616676 87.25466019 24.45972061 87.1241589 20.3125 87.09765625 C19.50639282 87.10385483 18.70028564 87.11005341 17.86975098 87.11643982 C16.16855068 87.12353124 14.46728088 87.1203757 12.76611328 87.10766602 C10.16439113 87.09379341 7.56626246 87.12788248 4.96484375 87.16601562 C3.30989495 87.16696681 1.65494166 87.16510801 0 87.16015625 C-1.16420471 87.18004356 -1.16420471 87.18004356 -2.35192871 87.20033264 C-5.95217805 87.13831351 -7.87725667 86.96850031 -10.5480957 84.46508789 C-12.7402807 80.88337653 -12.90874241 78.03291841 -12.86132812 73.95874023 C-12.8683374 73.21341034 -12.87534668 72.46808044 -12.88256836 71.70016479 C-12.90011653 69.24634101 -12.888539 66.79367842 -12.875 64.33984375 C-12.87769556 62.63021117 -12.88157852 60.92058009 -12.88659668 59.21095276 C-12.89248714 55.63242967 -12.88394251 52.05430659 -12.86523438 48.47583008 C-12.84242751 43.8900217 -12.85558128 39.30514885 -12.87952423 34.71937466 C-12.89397986 31.19087171 -12.88937767 27.66259052 -12.87901306 24.13408089 C-12.876346 22.44319612 -12.87961482 20.75229118 -12.88893127 19.06142998 C-12.89909532 16.69853247 -12.88360073 14.33714992 -12.86132812 11.97436523 C-12.86942505 11.2765947 -12.87752197 10.57882416 -12.88586426 9.85990906 C-12.82821499 6.55732669 -12.53071304 4.78455728 -10.5480957 2.09840393 C-7.23285009 -0.25853137 -3.91894135 -0.04088375 0 0 Z " fill="#040202" transform="translate(138.34375,220.46875)"/>
<path d="M0 0 C5.65791582 3.90871284 10.49436475 9.67841802 12.66796875 16.30859375 C14.47342721 26.34098666 12.62354144 34.66584859 7.296875 43.2265625 C1.11794603 49.23385456 -6.00127535 52.6870956 -14.640625 52.8515625 C-22.76680059 52.69871907 -28.1920211 50.79584139 -34.23828125 45.359375 C-40.58870325 38.69777079 -43.02457384 33.18862979 -43.453125 24.0390625 C-43.23085916 15.68959796 -40.27428392 9.66863595 -34.703125 3.5390625 C-24.95176275 -5.29354185 -11.44036383 -6.69223897 0 0 Z " fill="#FB979E" transform="translate(301.953125,239.5859375)"/>
<path d="M0 0 C76.89 0 153.78 0 233 0 C233 44.22 233 88.44 233 134 C228.71 134 224.42 134 220 134 C220 90.11 220 46.22 220 1 C147.4 1 74.8 1 0 1 C0 0.67 0 0.34 0 0 Z " fill="#F57F85" transform="translate(243,197)"/>
<path d="M0 0 C1.00587158 -0.0038269 2.01174316 -0.00765381 3.0480957 -0.01159668 C5.17302451 -0.01431651 7.29798676 -0.00695041 9.42285156 0.00976562 C12.67588932 0.03117359 15.92671845 0.00996568 19.1796875 -0.015625 C21.24479654 -0.01298174 23.30990421 -0.00785679 25.375 0 C26.34800049 -0.00809692 27.32100098 -0.01619385 28.32348633 -0.02453613 C35.02202735 0.06850742 35.02202735 0.06850742 38.296875 2.34570312 C40.37114857 5.60569207 40.29386039 7.75834088 39.6875 11.53125 C36.78666857 14.65351895 35.19575726 15.47858085 30.91796875 15.921875 C29.56975415 15.89556837 28.22180482 15.84826804 26.875 15.78125 C26.18212891 15.76320312 25.48925781 15.74515625 24.77539062 15.7265625 C23.07882336 15.67976064 21.38297524 15.60802624 19.6875 15.53125 C19.69638245 16.36174866 19.70526489 17.19224731 19.7144165 18.0479126 C19.7945735 25.87559799 19.85546991 33.7031455 19.89474869 41.531147 C19.91562133 45.55561077 19.94393235 49.57973535 19.98925781 53.60400391 C20.0327282 57.48788536 20.05663954 61.37144062 20.06700897 65.25554657 C20.07439831 66.73715093 20.08882818 68.21873749 20.11042023 69.70020294 C20.13947212 71.77611321 20.14345556 73.85067687 20.14160156 75.92675781 C20.15048401 77.10812317 20.15936646 78.28948853 20.16851807 79.50665283 C19.58688808 83.16388843 18.61339937 84.32872582 15.6875 86.53125 C12.75 87.09375 12.75 87.09375 9.6875 86.53125 C6.49193504 83.97928132 4.87369623 82.49336074 4.08622742 78.42436218 C4.09733047 77.26298233 4.10843353 76.10160248 4.11987305 74.9050293 C4.11914291 74.26056351 4.11841278 73.61609772 4.11766052 72.95210266 C4.12112609 70.83568211 4.15992973 68.72150152 4.19921875 66.60546875 C4.20855076 65.13289085 4.21566504 63.66029737 4.22065735 62.18769836 C4.23969726 58.32230346 4.28877011 54.45785633 4.34417725 50.59283447 C4.39543587 46.64470235 4.41818537 42.69641623 4.44335938 38.74804688 C4.49689351 31.00868371 4.5821676 23.27009994 4.6875 15.53125 C3.71603027 15.55590332 2.74456055 15.58055664 1.74365234 15.60595703 C-0.159729 15.63471924 -0.159729 15.63471924 -2.1015625 15.6640625 C-3.36178223 15.68871582 -4.62200195 15.71336914 -5.92041016 15.73876953 C-9.3125 15.53125 -9.3125 15.53125 -12.6875 13.40625 C-14.60205397 10.01896221 -15.04463349 8.35461376 -14.3125 4.53125 C-10.82378646 -0.8635163 -5.79771287 -0.04824627 0 0 Z " fill="#060404" transform="translate(412.3125,220.46875)"/>
<path d="M0 0 C3.3 0 6.6 0 10 0 C10.33 13.86 10.66 27.72 11 42 C13.65696758 42.88565586 15.28190083 43.1450262 18.01245117 43.20532227 C18.81305466 43.22526749 19.61365814 43.24521271 20.43852234 43.26576233 C21.29798965 43.28247482 22.15745697 43.29918732 23.04296875 43.31640625 C23.9265657 43.33718735 24.81016266 43.35796844 25.72053528 43.37937927 C28.54277785 43.44475754 31.36511335 43.50370528 34.1875 43.5625 C36.10092106 43.60569637 38.01433273 43.64931102 39.92773438 43.69335938 C44.61839437 43.80042695 49.30914783 43.90172752 54 44 C54 48.62 54 53.24 54 58 C49.71 58 45.42 58 41 58 C40.67 57.01 40.34 56.02 40 55 C39.03344482 54.98598145 39.03344482 54.98598145 38.04736328 54.97167969 C35.07252233 54.91734956 32.09915023 54.83383021 29.125 54.75 C28.11179687 54.73582031 27.09859375 54.72164062 26.0546875 54.70703125 C18.508938 54.4651803 10.59448225 53.61137445 5.02587891 48.01660156 C0.00883951 41.84439385 -0.14890981 36.19865908 -0.09765625 28.41796875 C-0.09553383 27.19670036 -0.09553383 27.19670036 -0.09336853 25.95075989 C-0.08779317 23.36296844 -0.07524524 20.77526508 -0.0625 18.1875 C-0.05748181 16.42773563 -0.05291946 14.66796989 -0.04882812 12.90820312 C-0.03783181 8.60543506 -0.02058421 4.30273244 0 0 Z " fill="#BFDCF8" transform="translate(314,124)"/>
<path d="M0 0 C1.10472153 -0.01583633 2.20944305 -0.03167267 3.34764099 -0.04798889 C4.53624222 -0.04302902 5.72484344 -0.03806915 6.94946289 -0.03295898 C8.78765343 -0.04225685 8.78765343 -0.04225685 10.66297913 -0.05174255 C13.254478 -0.05884634 15.84602245 -0.05565711 18.4375 -0.04296875 C22.40393078 -0.02911626 26.36799752 -0.06315548 30.33422852 -0.10131836 C32.85180722 -0.10226965 35.36938888 -0.10041022 37.88696289 -0.09545898 C39.07353989 -0.10871719 40.26011688 -0.1219754 41.48265076 -0.13563538 C50.64045674 -0.03203529 50.64045674 -0.03203529 53.76806641 2.84619141 C55.48461914 5.53344727 55.48461914 5.53344727 55.54711914 9.15844727 C54.36335744 12.91863149 53.80283805 13.62005565 50.48461914 15.53344727 C47.90454102 15.92112732 47.90454102 15.92112732 44.95336914 15.9375 C43.29144531 15.95652626 43.29144531 15.95652626 41.59594727 15.97593689 C40.40420898 15.97300125 39.2124707 15.97006561 37.98461914 15.96704102 C36.75678711 15.97228287 35.52895508 15.97752472 34.26391602 15.98292542 C31.66822058 15.98934826 29.07249606 15.98800528 26.47680664 15.97949219 C22.49971873 15.97097958 18.52406522 15.99974748 14.54711914 16.03149414 C12.02628624 16.03310611 9.50545079 16.03252871 6.98461914 16.02954102 C5.19701172 16.04639198 5.19701172 16.04639198 3.37329102 16.06358337 C2.2653418 16.05420242 1.15739258 16.04482147 0.01586914 16.03515625 C-0.95801758 16.03499008 -1.9319043 16.03482391 -2.93530273 16.03465271 C-6.27410655 15.38605737 -7.46076035 14.19980023 -9.51538086 11.53344727 C-10.01538086 8.03344727 -10.01538086 8.03344727 -9.51538086 4.53344727 C-6.62222705 0.78451108 -4.67168433 0.02982663 0 0 Z " fill="#020202" transform="translate(220.515380859375,29.466552734375)"/>
<path d="M0 0 C0.33 0 0.66 0 1 0 C1 8.91 1 17.82 1 27 C58.42 27 115.84 27 175 27 C175 18.09 175 9.18 175 0 C179.29 0 183.58 0 188 0 C188 9.24 188 18.48 188 28 C125.96 28 63.92 28 0 28 C0 18.76 0 9.52 0 0 Z " fill="#A5BCD1" transform="translate(180,346)"/>
<path d="M0 0 C2.68125 -0.103125 5.3625 -0.20625 8.125 -0.3125 C9.37434326 -0.38078003 9.37434326 -0.38078003 10.64892578 -0.45043945 C14.63959985 -0.52423502 17.24428246 -0.25846041 20.4296875 2.26953125 C23.25537881 5.27129148 24.89506663 7.04474163 25.1171875 11.18359375 C24.57643174 16.21611107 23.88995468 19.43420821 20 23 C15.77780821 25.19921786 11.83768249 25.23979424 7.1875 25.125 C4.815625 25.08375 2.44375 25.0425 0 25 C0 16.75 0 8.5 0 0 Z " fill="#FC979E" transform="translate(197,236)"/>
<path d="M0 0 C6.6 0 13.2 0 20 0 C20 7.92 20 15.84 20 24 C13.4 24 6.8 24 0 24 C0 16.08 0 8.16 0 0 Z " fill="#BBD7F3" transform="translate(146,158)"/>
<path d="M0 0 C3.5578125 -0.0928125 3.5578125 -0.0928125 7.1875 -0.1875 C8.29387817 -0.22846802 8.29387817 -0.22846802 9.42260742 -0.27026367 C14.88496549 -0.33886587 17.63049818 1.1230642 21.78515625 4.4140625 C23.81442027 7.06319817 23.46684647 9.55463285 23.3515625 12.77734375 C22.82048958 16.13490476 21.5070251 17.76400464 19 20 C14.83583853 22.13413275 11.32465121 22.21167572 6.6875 22.125 C3.3771875 22.063125 3.3771875 22.063125 0 22 C0 14.74 0 7.48 0 0 Z " fill="#FC989F" transform="translate(355,236)"/>
<path d="M0 0 C3.526875 -0.12375 3.526875 -0.12375 7.125 -0.25 C7.85348145 -0.28641602 8.58196289 -0.32283203 9.33251953 -0.36035156 C14.40007317 -0.44556673 17.13527027 0.81188467 21 4 C23.50304378 7.75456567 23.45280074 9.54745934 23 14 C21.31644766 17.30475088 20.12178614 19.40505271 16.8125 21.16015625 C13.33080675 22.19982854 10.31538135 22.19281087 6.6875 22.125 C3.3771875 22.063125 3.3771875 22.063125 0 22 C0 14.74 0 7.48 0 0 Z " fill="#FC979E" transform="translate(77,236)"/>
<path d="M0 0 C1.9375 1.125 1.9375 1.125 3 3 C3.5 6.4375 3.5 6.4375 3 10 C0.9375 12.5 0.9375 12.5 -2 14 C-5.80284671 14 -8.01930006 13.7968187 -11 11.375 C-12.46981805 7.88418213 -11.98413921 5.60851044 -11 2 C-7.79952331 -1.93904824 -4.62362797 -1.17692348 0 0 Z " fill="#09090A" transform="translate(298,31)"/>
<path d="M0 0 C3.3508462 1.6754231 4.93475243 2.68598781 7.453125 5.22265625 C8.071875 5.84333984 8.690625 6.46402344 9.328125 7.10351562 C9.96234375 7.74998047 10.5965625 8.39644531 11.25 9.0625 C11.8996875 9.71283203 12.549375 10.36316406 13.21875 11.03320312 C18 15.85965402 18 15.85965402 18 17 C12.06 17 6.12 17 0 17 C0 11.39 0 5.78 0 0 Z " fill="#CFE2F3" transform="translate(339,136)"/>
</svg>
